<svg width="172" height="34" viewBox="0 0 172 34" fill="none" xmlns="http://www.w3.org/2000/svg">
<path fill-rule="evenodd" clip-rule="evenodd" d="M15.7714 4.54138V8.87267L14.9259 8.06378C13.4785 6.67899 12.0243 6.15604 9.65714 6.16905C7.98217 6.17826 6.90571 6.4345 5.42857 7.1757C2.0744 8.85874 0 12.4652 0 16.6134C0 20.7617 2.0744 24.3681 5.42857 26.0512C6.90571 26.7924 7.98217 27.0486 9.65714 27.0578C12.0243 27.0708 13.4785 26.5479 14.9259 25.1631L15.7714 24.3542V25.4624V26.5706H18.2857H20.8V13.3903V0.210083H18.2857H15.7714V4.54138ZM91.0857 3.4332V6.65632H89.4286H87.7714V8.4981V10.3399H89.4239H91.0765L91.1096 16.5847C91.1426 22.7849 91.1447 22.8341 91.404 23.4802C91.9119 24.7451 92.9075 25.7465 94.1539 26.2455C94.7465 26.4827 95.0248 26.5077 97.5143 26.5465L100.229 26.5889V24.3926V22.1963L98.7143 22.1959C96.9894 22.1954 96.6427 22.0746 96.304 21.3556C96.1314 20.9892 96.115 20.414 96.1417 15.6728L96.1714 10.3974L98.0286 10.3658L99.8857 10.3341V8.49522V6.65632H98H96.1143V3.4332V0.210083H93.6H91.0857V3.4332ZM31.7143 6.20439C27.3103 6.79341 23.6927 10.1665 22.8091 14.5078C22.5779 15.644 22.5779 17.5829 22.8091 18.7191C23.6263 22.7337 26.7217 25.8817 30.8301 26.8761C32.063 27.1744 34.1914 27.1225 35.5735 26.7603C36.8257 26.4321 38.2655 25.7514 39.1822 25.0543C40.5352 24.0253 41.8349 22.4161 42.457 20.999L42.74 20.3546H40.0557C38.4505 20.3546 37.3714 20.3982 37.3714 20.4631C37.3714 20.5229 37.0907 20.8771 36.7477 21.2502C35.6547 22.4393 34.3101 22.9656 32.6416 22.8573C30.2488 22.702 28.6789 21.2923 27.8354 18.5416L27.756 18.2826H35.3638H42.9714L42.971 17.1027C42.9688 11.5131 39.9825 7.32396 35.3162 6.36451C34.2719 6.14971 32.6586 6.078 31.7143 6.20439ZM54.7429 6.18689C53.0701 6.42448 51.7682 7.03757 50.6731 8.10315L49.9429 8.81385V7.73514V6.65632H47.4286H44.9143V19.8366V33.0168H47.4286H49.9429V28.7149V24.413L50.6731 25.1237C52.0563 26.4696 53.6686 27.071 55.8857 27.0679C59.8006 27.0623 63.0104 24.9827 64.6767 21.3726C65.4186 19.7651 65.6522 18.6254 65.6522 16.6134C65.6522 15.1789 65.6072 14.7115 65.3861 13.8508C64.5736 10.6879 62.5135 8.13515 59.797 6.9251C58.4526 6.32629 56.1394 5.98844 54.7429 6.18689ZM76.3429 6.19391C75.216 6.33665 74.213 6.62857 73.1802 7.11457C71.9855 7.67666 71.3335 8.12767 70.3586 9.06663C68.2566 11.0912 67.1641 13.6722 67.1641 16.6134C67.1641 19.5547 68.2566 22.1357 70.3586 24.1603C71.3349 25.1005 71.9838 25.5491 73.1943 26.1204C75.9081 27.4013 79.1776 27.4013 81.8914 26.1204C84.6128 24.836 86.5614 22.5958 87.4635 19.7144C88.8227 15.3732 87.1435 10.5366 83.369 7.92093C81.4816 6.61292 78.6094 5.90694 76.3429 6.19391ZM167.171 6.65885C165.794 7.00925 164.612 8.12134 164.214 9.44166C163.734 11.0331 164.17 12.8477 165.273 13.8516C166.68 15.1318 168.935 15.3093 170.382 14.2537C171.256 13.6157 172 12.1095 172 10.9767V10.455H169.829H167.657V11.1457V11.8363H168.971C169.694 11.8363 170.286 11.8706 170.286 11.9125C170.286 11.9544 170.155 12.2135 169.995 12.4883C169.617 13.1389 169.024 13.4479 168.155 13.4479C166.574 13.4479 165.469 12.1369 165.651 10.4752C165.889 8.30275 168.067 7.31752 169.736 8.62748C170.11 8.92079 170.25 8.95854 170.965 8.95854C171.408 8.95854 171.771 8.91457 171.771 8.8607C171.771 8.68446 171.134 7.87327 170.683 7.4743C170.439 7.25938 170.015 6.98312 169.739 6.86029C169.161 6.60279 167.808 6.49666 167.171 6.65885ZM109.6 10.8088V14.8461L111.914 14.809C114.078 14.7741 114.264 14.7539 114.779 14.4987C115.459 14.1616 115.869 13.569 115.96 12.7913C116.041 12.1063 115.873 11.5205 115.473 11.0856L115.186 10.7729L115.416 10.526C116.428 9.4412 116.053 7.62452 114.686 6.98899C114.29 6.80481 113.92 6.77615 111.914 6.77396L109.6 6.77143V10.8088ZM117.486 10.8003V14.8292H118.286H119.086V13.2752V11.7212H119.698H120.311L121.486 13.2752L122.66 14.8292H123.616C124.141 14.8292 124.571 14.7903 124.57 14.7429C124.569 14.6955 124.059 13.9868 123.437 13.1684L122.306 11.6802L122.843 11.4294C124.139 10.825 124.6 9.35476 123.91 8.02603C123.653 7.52932 123.476 7.35136 122.983 7.0919L122.374 6.77143H119.93H117.486V10.8003ZM128.25 6.96792C128.051 7.35619 124.914 14.6853 124.914 14.7623C124.914 14.8047 125.281 14.824 125.73 14.8055L126.545 14.7717L126.922 13.9083L127.299 13.045L129.086 13.0132L130.874 12.9815L131.29 13.9053L131.707 14.8292H132.547C133.3 14.8292 133.38 14.808 133.322 14.6247C133.287 14.5121 132.52 12.7121 131.617 10.6245L129.976 6.82898L129.166 6.79526C128.482 6.76682 128.34 6.79364 128.25 6.96792ZM134.286 10.8003V14.8292H135.084H135.882L135.912 12.0537L135.943 9.27821L137.886 12.0518L139.829 14.8254L140.714 14.8273L141.6 14.8292V10.8003V6.77143H140.8H140V9.48334C140 11.1229 139.958 12.1691 139.894 12.1292C139.836 12.0929 138.953 10.8725 137.932 9.41726L136.076 6.77143H135.181H134.286V10.8003ZM143.429 10.8042V14.8553L145.4 14.8036C147.832 14.7397 148.373 14.5728 149.378 13.5758C150.271 12.6891 150.553 11.9252 150.491 10.5608C150.415 8.9072 149.704 7.82262 148.242 7.1323C147.634 6.84521 147.488 6.82691 145.514 6.79111L143.429 6.75313V10.8042ZM151.886 10.8003V14.8292H152.686H153.486V10.8003V6.77143H152.686H151.886V10.8003ZM155.314 10.8003V14.8292H156.112H156.91L156.941 12.0389L156.971 9.24851L158.917 12.0101L160.863 14.7717L161.746 14.8053L162.629 14.8389V10.8052V6.77143H161.829H161.029V9.54895V12.3265L159.077 9.54895L157.126 6.77143H156.22H155.314V10.8003ZM114.137 8.54794C114.358 8.80752 114.406 8.95946 114.351 9.23631C114.227 9.8693 113.931 9.98913 112.486 9.99201L111.2 9.99454V9.15043C111.2 8.68607 111.239 8.26672 111.286 8.21849C111.333 8.17015 111.93 8.14966 112.612 8.17279C113.816 8.21354 113.861 8.22459 114.137 8.54794ZM122.14 8.38287C122.705 8.75376 122.736 9.57197 122.2 9.99639C121.948 10.1962 121.735 10.2248 120.499 10.2248H119.086V9.17691V8.12905L120.486 8.17279C121.451 8.20284 121.965 8.26822 122.14 8.38287ZM147.438 8.46495C148.423 8.90398 148.983 9.86366 148.891 10.9571C148.759 12.5216 147.76 13.3172 145.914 13.3277L145.029 13.3328V10.7265V8.1203L145.981 8.18016C146.559 8.21654 147.131 8.32819 147.438 8.46495ZM129.724 10.3161L130.257 11.5485L129.171 11.5817C128.574 11.5999 128.062 11.5916 128.034 11.5632C128.005 11.5348 128.231 10.9421 128.534 10.2461C128.837 9.54998 129.109 9.00367 129.138 9.03198C129.167 9.06042 129.431 9.63828 129.724 10.3161ZM11.7143 10.4963C13.4682 10.9683 14.763 12.2771 15.4034 14.2256C15.6567 14.9962 15.6967 15.3197 15.6987 16.6134C15.7008 17.9515 15.6677 18.2074 15.3856 19.0308C15.0023 20.15 14.568 20.8554 13.8401 21.5412C11.8815 23.3865 8.69109 23.3429 6.804 21.4449C4.05006 18.6751 4.58857 12.8793 7.77451 10.9988C8.81577 10.3842 10.4993 10.1695 11.7143 10.4963ZM34.3429 10.4963C35.9978 10.9417 37.2712 12.166 37.9258 13.9415C38.0609 14.3079 38.1714 14.6316 38.1714 14.6609C38.1714 14.6902 35.8515 14.7141 33.0162 14.7141H27.8609L27.9341 14.3976C27.9742 14.2234 28.1935 13.695 28.4213 13.2232C29.0842 11.8497 30.1954 10.8899 31.5456 10.5244C32.3377 10.3101 33.6031 10.2973 34.3429 10.4963ZM56.6457 10.5005C58.3832 10.9664 59.6714 12.2667 60.3069 14.1961C60.5726 15.0028 60.6102 15.3026 60.6104 16.6134C60.6106 17.9114 60.5719 18.2281 60.3177 19.0013C59.5128 21.4504 57.6603 22.8874 55.3143 22.8829C53.2529 22.8788 51.6008 21.8436 50.6942 19.9879C49.0997 16.7244 50.1654 12.2676 52.8623 10.9204C54.0213 10.3414 55.4579 10.1819 56.6457 10.5005ZM78.9189 10.5174C80.7509 10.995 82.1442 12.5253 82.6832 14.6519C82.9446 15.6831 82.9139 17.6778 82.6203 18.745C81.9063 21.3404 80.0104 22.887 77.5429 22.887C74.3826 22.887 72.1954 20.3211 72.1954 16.6134C72.1954 15.2852 72.4078 14.3127 72.9367 13.2177C73.3493 12.3639 74.336 11.3007 75.0624 10.9274C76.1866 10.3498 77.6704 10.192 78.9189 10.5174ZM113.825 11.6382C114.278 11.8692 114.47 12.3095 114.298 12.7265C114.095 13.2216 113.746 13.3328 112.395 13.3328H111.2V12.4119V11.491L112.371 11.4927C113.078 11.4938 113.655 11.5514 113.825 11.6382ZM120.563 18.4325C119.379 18.7711 118.492 19.5398 117.954 20.6946C117.696 21.2492 117.657 21.4845 117.657 22.4865C117.657 23.556 117.684 23.6956 118.03 24.4022C118.694 25.7613 119.902 26.5619 121.439 26.6613C122.69 26.7421 123.421 26.4704 124.3 25.597C125.098 24.8044 125.453 24.022 125.566 22.8056L125.633 22.0761L123.474 22.1074L121.314 22.1388L121.28 22.8582L121.246 23.5777H122.555C124.056 23.5777 124.092 23.6191 123.358 24.483C122.883 25.0421 122.362 25.2308 121.473 25.166C118.978 24.9842 118.337 21.2101 120.607 20.0706C121.342 19.7015 122.134 19.6846 122.829 20.0233C123.104 20.1576 123.39 20.3648 123.464 20.4837C123.576 20.6651 123.741 20.6999 124.487 20.6999H125.376L125.155 20.263C124.864 19.689 124 18.8959 123.348 18.6058C122.694 18.3142 121.284 18.2265 120.563 18.4325ZM145.632 18.5157C145.107 18.6882 144.744 18.9135 144.249 19.3757C141.549 21.893 143.068 26.4267 146.689 26.6607C148.159 26.7558 149.496 26.1444 150.249 25.0328C150.458 24.7251 150.629 24.4273 150.629 24.3709C150.629 24.3145 150.251 24.2683 149.789 24.2683C149.075 24.2683 148.917 24.3052 148.732 24.5148C148.158 25.1648 146.779 25.3887 145.956 24.9658C145.055 24.5028 144.528 23.5872 144.528 22.4841C144.528 20.1627 146.934 18.9416 148.645 20.3946C148.96 20.6623 149.104 20.6999 149.816 20.6999C150.263 20.6999 150.628 20.661 150.628 20.6136C150.627 20.4364 150.178 19.7931 149.763 19.3752C148.784 18.3897 147.088 18.0368 145.632 18.5157ZM112.169 18.5168C111.931 18.904 108.726 26.4573 108.777 26.509C108.905 26.6383 110.26 26.5682 110.367 26.4267C110.428 26.3476 110.626 25.9319 110.808 25.503L111.139 24.7234L112.948 24.7548L114.758 24.7863L115.128 25.6497L115.498 26.513L116.32 26.5469C116.935 26.5721 117.143 26.5429 117.142 26.4318C117.142 26.3498 116.38 24.5216 115.45 22.369L113.757 18.4552L113.003 18.4214C112.534 18.4004 112.218 18.4365 112.169 18.5168ZM126.971 22.4841V26.5746L129.8 26.5438L132.629 26.513L132.663 25.7936L132.697 25.0741H130.634H128.571V24.1532V23.2323H130.571H132.571V22.4841V21.7359H130.571H128.571V20.815V19.8941H130.634H132.697L132.663 19.1747L132.629 18.4552L129.8 18.4245L126.971 18.3936V22.4841ZM134.223 18.5424C134.193 18.6219 134.182 20.4478 134.198 22.6L134.229 26.513H135.029H135.829L135.886 23.8103L135.943 21.1076L137.841 23.8103L139.739 26.513L140.612 26.5466L141.486 26.5802V22.489V18.3977H140.688H139.89L139.859 21.1732L139.829 23.9487L137.886 21.1751L135.943 18.4015L135.111 18.3996C134.547 18.3982 134.261 18.4443 134.223 18.5424ZM151.086 18.4667C151.086 18.5101 151.78 19.6973 152.629 21.1049L154.171 23.6641V25.1174V26.5706H154.971H155.771L155.772 25.1605L155.772 23.7503L157.314 21.1603C158.162 19.7358 158.856 18.5314 158.857 18.484C158.857 18.4366 158.479 18.3977 158.017 18.3977H157.176L156.11 20.1834C155.523 21.1655 155.001 21.9265 154.949 21.8744C154.897 21.8222 154.402 21.0316 153.848 20.1174L152.842 18.4552L151.964 18.4216C151.481 18.4031 151.086 18.4235 151.086 18.4667ZM113.371 21.6208C113.573 22.0956 113.811 22.6525 113.9 22.8582L114.06 23.2323H112.922H111.784L112.188 22.3402C112.41 21.8496 112.665 21.2718 112.755 21.0563C112.844 20.8409 112.937 20.6855 112.96 20.7109C112.984 20.7365 113.169 21.146 113.371 21.6208Z" fill="white"/>
</svg>
