<svg width="27" height="35" viewBox="0 0 27 35" fill="none" xmlns="http://www.w3.org/2000/svg">
<mask id="path-1-outside-1_12185_2299" maskUnits="userSpaceOnUse" x="-1" y="0" width="28" height="35" fill="black">
<rect fill="white" x="-1" width="28" height="35"/>
<path d="M17.1 26.07V1.5H10.8L2.565 4.47L4.32 10.635L9.9 9.105V26.07H1.125V33H25.425V26.07H17.1Z"/>
</mask>
<path d="M17.1 26.07V1.5H10.8L2.565 4.47L4.32 10.635L9.9 9.105V26.07H1.125V33H25.425V26.07H17.1Z" fill="url(#paint0_linear_12185_2299)"/>
<path d="M17.1 26.07H15.6V27.57H17.1V26.07ZM17.1 1.5H18.6V-2.14577e-06H17.1V1.5ZM10.8 1.5V-2.14577e-06H10.5378L10.2911 0.088962L10.8 1.5ZM2.565 4.47L2.0561 3.05896L0.738953 3.534L1.12232 4.88069L2.565 4.47ZM4.32 10.635L2.87732 11.0457L3.28404 12.4744L4.71665 12.0816L4.32 10.635ZM9.9 9.105H11.4V7.13834L9.50335 7.65839L9.9 9.105ZM9.9 26.07V27.57H11.4V26.07H9.9ZM1.125 26.07V24.57H-0.375V26.07H1.125ZM1.125 33H-0.375V34.5H1.125V33ZM25.425 33V34.5H26.925V33H25.425ZM25.425 26.07H26.925V24.57H25.425V26.07ZM18.6 26.07V1.5H15.6V26.07H18.6ZM17.1 -2.14577e-06H10.8V3H17.1V-2.14577e-06ZM10.2911 0.088962L2.0561 3.05896L3.0739 5.88104L11.3089 2.91103L10.2911 0.088962ZM1.12232 4.88069L2.87732 11.0457L5.76268 10.2243L4.00768 4.05931L1.12232 4.88069ZM4.71665 12.0816L10.2967 10.5516L9.50335 7.65839L3.92335 9.18839L4.71665 12.0816ZM8.4 9.105V26.07H11.4V9.105H8.4ZM9.9 24.57H1.125V27.57H9.9V24.57ZM-0.375 26.07V33H2.625V26.07H-0.375ZM1.125 34.5H25.425V31.5H1.125V34.5ZM26.925 33V26.07H23.925V33H26.925ZM25.425 24.57H17.1V27.57H25.425V24.57Z" fill="url(#paint1_linear_12185_2299)" mask="url(#path-1-outside-1_12185_2299)"/>
<defs>
<linearGradient id="paint0_linear_12185_2299" x1="-3.01748e-07" y1="17.5" x2="27" y2="17.5" gradientUnits="userSpaceOnUse">
<stop stop-color="#DA4533"/>
<stop offset="1" stop-color="#DA4533" stop-opacity="0"/>
</linearGradient>
<linearGradient id="paint1_linear_12185_2299" x1="-3.01748e-07" y1="17.5" x2="27" y2="17.5" gradientUnits="userSpaceOnUse">
<stop stop-color="#DA4533"/>
<stop offset="1" stop-color="#DA4533" stop-opacity="0"/>
</linearGradient>
</defs>
</svg>
