<svg width="27" height="36" viewBox="0 0 27 36" fill="none" xmlns="http://www.w3.org/2000/svg">
<mask id="path-1-outside-1_12211_28" maskUnits="userSpaceOnUse" x="0" y="0" width="27" height="36" fill="black">
<rect fill="white" width="27" height="36"/>
<path d="M2.35 34H25.3V27.07H13.87L18.775 22.57C22.555 19.105 24.85 16.09 24.85 11.995C24.85 6.28 20.395 1.87 13.735 1.87C8.92 1.87 4.69 4.21 2.35 8.98L8.425 12.535C9.775 10.195 11.26 8.89 13.645 8.89C16.615 8.89 17.65 10.87 17.65 12.445C17.65 14.47 15.985 16.27 13.87 18.205L2.35 28.78V34Z"/>
</mask>
<path d="M2.35 34H0.85V35.5H2.35V34ZM25.3 34V35.5H26.8V34H25.3ZM25.3 27.07H26.8V25.57H25.3V27.07ZM13.87 27.07L12.856 25.9647L10.0162 28.57H13.87V27.07ZM18.775 22.57L17.7614 21.4643L17.761 21.4647L18.775 22.57ZM2.35 8.98L1.00332 8.31936L0.389463 9.57068L1.59241 10.2746L2.35 8.98ZM8.425 12.535L7.66741 13.8296L8.97005 14.5919L9.72428 13.2846L8.425 12.535ZM13.87 18.205L12.8575 17.0983L12.8556 17.1L13.87 18.205ZM2.35 28.78L1.33563 27.675L0.85 28.1208V28.78H2.35ZM2.35 35.5H25.3V32.5H2.35V35.5ZM26.8 34V27.07H23.8V34H26.8ZM25.3 25.57H13.87V28.57H25.3V25.57ZM14.884 28.1753L19.789 23.6753L17.761 21.4647L12.856 25.9647L14.884 28.1753ZM19.7886 23.6757C23.623 20.1609 26.35 16.7632 26.35 11.995H23.35C23.35 15.4168 21.487 18.0491 17.7614 21.4643L19.7886 23.6757ZM26.35 11.995C26.35 5.35606 21.1246 0.369998 13.735 0.369998V3.37C19.6654 3.37 23.35 7.20394 23.35 11.995H26.35ZM13.735 0.369998C8.37903 0.369998 3.60884 3.00809 1.00332 8.31936L3.69668 9.64064C5.77116 5.4119 9.46097 3.37 13.735 3.37V0.369998ZM1.59241 10.2746L7.66741 13.8296L9.1826 11.2404L3.10759 7.68537L1.59241 10.2746ZM9.72428 13.2846C10.3499 12.2002 10.9348 11.487 11.5378 11.0418C12.1049 10.6231 12.7567 10.39 13.645 10.39V7.39C12.1483 7.39 10.8651 7.80944 9.75597 8.62823C8.68274 9.42055 7.85013 10.5298 7.12572 11.7854L9.72428 13.2846ZM13.645 10.39C14.7717 10.39 15.3467 10.7514 15.6522 11.0868C15.9883 11.4559 16.15 11.9629 16.15 12.445H19.15C19.15 11.3521 18.7942 10.0816 17.8703 9.06697C16.9158 8.01864 15.4883 7.39 13.645 7.39V10.39ZM16.15 12.445C16.15 13.0275 15.9141 13.6794 15.336 14.4821C14.7518 15.2931 13.9056 16.1394 12.8575 17.0983L14.8825 19.3117C15.9494 18.3356 16.9932 17.3144 17.7703 16.2354C18.5534 15.1481 19.15 13.8875 19.15 12.445H16.15ZM12.8556 17.1L1.33563 27.675L3.36437 29.885L14.8844 19.31L12.8556 17.1ZM0.85 28.78V34H3.85V28.78H0.85Z" fill="url(#paint0_linear_12211_28)" fill-opacity="0.5" mask="url(#path-1-outside-1_12211_28)"/>
<defs>
<linearGradient id="paint0_linear_12211_28" x1="1" y1="18.5" x2="32.7961" y2="18.5" gradientUnits="userSpaceOnUse">
<stop stop-color="white"/>
<stop offset="1" stop-color="white" stop-opacity="0"/>
</linearGradient>
</defs>
</svg>
