<svg width="28" height="36" viewBox="0 0 28 36" fill="none" xmlns="http://www.w3.org/2000/svg">
<mask id="path-1-outside-1_12211_2478" maskUnits="userSpaceOnUse" x="0" y="0" width="28" height="36" fill="black">
<rect fill="white" width="28" height="36"/>
<path d="M18.955 13.785L24.49 7.35V1.5H2.89V8.25H15.4L9.595 14.955L12.43 19.14H13.825C17.245 19.14 18.775 20.715 18.775 22.875C18.775 25.035 17.245 26.61 13.825 26.61C10.855 26.61 9.055 25.125 8.11 22.605L1.9 26.205C4.06 31.29 8.38 33.63 14.275 33.63C20.8 33.63 25.975 29.805 25.975 22.875C25.975 18.195 23.05 15.135 18.955 13.785Z"/>
</mask>
<path d="M18.955 13.785L17.8178 12.8068L16.3552 14.5073L18.4854 15.2096L18.955 13.785ZM24.49 7.35L25.6272 8.32815L25.99 7.90636V7.35H24.49ZM24.49 1.5H25.99V-2.14577e-06H24.49V1.5ZM2.89 1.5V-2.14577e-06H1.39V1.5H2.89ZM2.89 8.25H1.39V9.75H2.89V8.25ZM15.4 8.25L16.534 9.23182L18.6827 6.75H15.4V8.25ZM9.595 14.955L8.46096 13.9732L7.7076 14.8434L8.35312 15.7963L9.595 14.955ZM12.43 19.14L11.1881 19.9813L11.6344 20.64H12.43V19.14ZM8.11 22.605L9.51449 22.0783L8.89185 20.4179L7.3577 21.3073L8.11 22.605ZM1.9 26.205L1.1477 24.9073L0.00133376 25.5719L0.519394 26.7915L1.9 26.205ZM20.0922 14.7631L25.6272 8.32815L23.3528 6.37185L17.8178 12.8068L20.0922 14.7631ZM25.99 7.35V1.5H22.99V7.35H25.99ZM24.49 -2.14577e-06H2.89V3H24.49V-2.14577e-06ZM1.39 1.5V8.25H4.39V1.5H1.39ZM2.89 9.75H15.4V6.75H2.89V9.75ZM14.266 7.26818L8.46096 13.9732L10.729 15.9368L16.534 9.23182L14.266 7.26818ZM8.35312 15.7963L11.1881 19.9813L13.6719 18.2987L10.8369 14.1137L8.35312 15.7963ZM12.43 20.64H13.825V17.64H12.43V20.64ZM13.825 20.64C15.3276 20.64 16.1808 20.9882 16.6318 21.3577C17.0429 21.6947 17.275 22.1739 17.275 22.875H20.275C20.275 21.4161 19.7421 20.0278 18.5332 19.0373C17.3642 18.0793 15.7424 17.64 13.825 17.64V20.64ZM17.275 22.875C17.275 23.5761 17.0429 24.0553 16.6318 24.3923C16.1808 24.7618 15.3276 25.11 13.825 25.11V28.11C15.7424 28.11 17.3642 27.6707 18.5332 26.7127C19.7421 25.7222 20.275 24.3339 20.275 22.875H17.275ZM13.825 25.11C12.5997 25.11 11.732 24.8081 11.093 24.3413C10.4456 23.8684 9.91153 23.1371 9.51449 22.0783L6.70551 23.1317C7.25347 24.5929 8.09186 25.8641 9.32328 26.7637C10.563 27.6694 12.0803 28.11 13.825 28.11V25.11ZM7.3577 21.3073L1.1477 24.9073L2.6523 27.5027L8.8623 23.9027L7.3577 21.3073ZM0.519394 26.7915C1.71459 29.6051 3.54086 31.722 5.92955 33.1192C8.30181 34.5067 11.1342 35.13 14.275 35.13V32.13C11.5208 32.13 9.24569 31.5833 7.4442 30.5296C5.65914 29.4855 4.24541 27.8899 3.28061 25.6185L0.519394 26.7915ZM14.275 35.13C17.8195 35.13 21.1169 34.0907 23.5525 31.9863C26.0151 29.8586 27.475 26.7439 27.475 22.875H24.475C24.475 25.9361 23.3474 28.1989 21.5912 29.7162C19.8081 31.2568 17.2555 32.13 14.275 32.13V35.13ZM27.475 22.875C27.475 17.4062 23.9888 13.8651 19.4246 12.3604L18.4854 15.2096C22.1112 16.4049 24.475 18.9838 24.475 22.875H27.475Z" fill="url(#paint0_linear_12211_2478)" fill-opacity="0.5" mask="url(#path-1-outside-1_12211_2478)"/>
<defs>
<linearGradient id="paint0_linear_12211_2478" x1="1" y1="17.5" x2="32.7961" y2="17.5" gradientUnits="userSpaceOnUse">
<stop stop-color="white"/>
<stop offset="1" stop-color="white" stop-opacity="0"/>
</linearGradient>
</defs>
</svg>
