<svg width="28" height="36" viewBox="0 0 28 36" fill="none" xmlns="http://www.w3.org/2000/svg">
<mask id="path-1-outside-1_12211_2496" maskUnits="userSpaceOnUse" x="0" y="0" width="28" height="36" fill="black">
<rect fill="white" width="28" height="36"/>
<path d="M14.5 12.57H11.26L11.575 8.25H24.4V1.5H5.005L3.7 19.59H14.05C17.47 19.59 18.775 21.165 18.775 23.1C18.775 25.035 17.47 26.61 14.05 26.61C10.855 26.61 9.055 25.125 8.11 22.605L1.9 26.205C4.06 31.29 8.38 33.63 14.275 33.63C20.575 33.63 25.975 30.03 25.975 23.1C25.975 16.17 21.025 12.57 14.5 12.57Z"/>
</mask>
<path d="M11.26 12.57L9.76397 12.4609L9.64664 14.07H11.26V12.57ZM11.575 8.25V6.75H10.1804L10.079 8.14091L11.575 8.25ZM24.4 8.25V9.75H25.9V8.25H24.4ZM24.4 1.5H25.9V-2.14577e-06H24.4V1.5ZM5.005 1.5V-2.14577e-06H3.60931L3.50889 1.39207L5.005 1.5ZM3.7 19.59L2.20389 19.4821L2.08789 21.09H3.7V19.59ZM8.11 22.605L9.51449 22.0783L8.89185 20.4179L7.3577 21.3073L8.11 22.605ZM1.9 26.205L1.1477 24.9073L0.00133376 25.5719L0.519394 26.7915L1.9 26.205ZM14.5 11.07H11.26V14.07H14.5V11.07ZM12.756 12.6791L13.071 8.35908L10.079 8.14091L9.76397 12.4609L12.756 12.6791ZM11.575 9.75H24.4V6.75H11.575V9.75ZM25.9 8.25V1.5H22.9V8.25H25.9ZM24.4 -2.14577e-06H5.005V3H24.4V-2.14577e-06ZM3.50889 1.39207L2.20389 19.4821L5.19611 19.6979L6.50111 1.60793L3.50889 1.39207ZM3.7 21.09H14.05V18.09H3.7V21.09ZM14.05 21.09C15.5531 21.09 16.3392 21.4382 16.728 21.7661C17.0815 22.0642 17.275 22.4861 17.275 23.1H20.275C20.275 21.7789 19.816 20.4458 18.662 19.4727C17.5433 18.5293 15.9669 18.09 14.05 18.09V21.09ZM17.275 23.1C17.275 23.7139 17.0815 24.1358 16.728 24.4339C16.3392 24.7618 15.5531 25.11 14.05 25.11V28.11C15.9669 28.11 17.5433 27.6707 18.662 26.7273C19.816 25.7542 20.275 24.4211 20.275 23.1H17.275ZM14.05 25.11C12.6897 25.11 11.7638 24.7969 11.1041 24.329C10.441 23.8587 9.91089 23.1354 9.51449 22.0783L6.70551 23.1317C7.25411 24.5946 8.09651 25.8738 9.36844 26.776C10.6437 27.6806 12.2153 28.11 14.05 28.11V25.11ZM7.3577 21.3073L1.1477 24.9073L2.6523 27.5027L8.8623 23.9027L7.3577 21.3073ZM0.519394 26.7915C1.71459 29.6051 3.54086 31.722 5.92955 33.1192C8.30181 34.5067 11.1342 35.13 14.275 35.13V32.13C11.5208 32.13 9.24569 31.5833 7.4442 30.5296C5.65914 29.4855 4.24541 27.8899 3.28061 25.6185L0.519394 26.7915ZM14.275 35.13C17.6948 35.13 20.9815 34.154 23.443 32.1201C25.9393 30.0574 27.475 26.994 27.475 23.1H24.475C24.475 26.136 23.3107 28.3376 21.532 29.8074C19.7185 31.306 17.1552 32.13 14.275 32.13V35.13ZM27.475 23.1C27.475 19.2497 26.0842 16.1824 23.6626 14.0991C21.2717 12.0423 18.0242 11.07 14.5 11.07V14.07C17.5008 14.07 19.9908 14.8977 21.7061 16.3734C23.3908 17.8226 24.475 20.0203 24.475 23.1H27.475Z" fill="url(#paint0_linear_12211_2496)" fill-opacity="0.5" mask="url(#path-1-outside-1_12211_2496)"/>
<defs>
<linearGradient id="paint0_linear_12211_2496" x1="1" y1="17.5" x2="32.7961" y2="17.5" gradientUnits="userSpaceOnUse">
<stop stop-color="white"/>
<stop offset="1" stop-color="white" stop-opacity="0"/>
</linearGradient>
</defs>
</svg>
