<svg width="29" height="35" viewBox="0 0 29 35" fill="none" xmlns="http://www.w3.org/2000/svg">
<mask id="path-1-outside-1_12211_4574" maskUnits="userSpaceOnUse" x="0" y="0" width="29" height="35" fill="black">
<rect fill="white" width="29" height="35"/>
<path d="M27.425 21.3H24.275V14.55H16.985V21.3H9.965L20 1.5H12.26L2.225 21.3V27.96H16.985V33H24.275V27.96H27.425V21.3Z"/>
</mask>
<path d="M27.425 21.3H28.925V19.8H27.425V21.3ZM24.275 21.3H22.775V22.8H24.275V21.3ZM24.275 14.55H25.775V13.05H24.275V14.55ZM16.985 14.55V13.05H15.485V14.55H16.985ZM16.985 21.3V22.8H18.485V21.3H16.985ZM9.965 21.3L8.62703 20.6219L7.52312 22.8H9.965V21.3ZM20 1.5L21.338 2.17811L22.4419 -2.14577e-06H20V1.5ZM12.26 1.5V-2.14577e-06H11.3386L10.922 0.821889L12.26 1.5ZM2.225 21.3L0.887028 20.6219L0.725 20.9416V21.3H2.225ZM2.225 27.96H0.725V29.46H2.225V27.96ZM16.985 27.96H18.485V26.46H16.985V27.96ZM16.985 33H15.485V34.5H16.985V33ZM24.275 33V34.5H25.775V33H24.275ZM24.275 27.96V26.46H22.775V27.96H24.275ZM27.425 27.96V29.46H28.925V27.96H27.425ZM27.425 19.8H24.275V22.8H27.425V19.8ZM25.775 21.3V14.55H22.775V21.3H25.775ZM24.275 13.05H16.985V16.05H24.275V13.05ZM15.485 14.55V21.3H18.485V14.55H15.485ZM16.985 19.8H9.965V22.8H16.985V19.8ZM11.303 21.9781L21.338 2.17811L18.662 0.821889L8.62703 20.6219L11.303 21.9781ZM20 -2.14577e-06H12.26V3H20V-2.14577e-06ZM10.922 0.821889L0.887028 20.6219L3.56297 21.9781L13.598 2.17811L10.922 0.821889ZM0.725 21.3V27.96H3.725V21.3H0.725ZM2.225 29.46H16.985V26.46H2.225V29.46ZM15.485 27.96V33H18.485V27.96H15.485ZM16.985 34.5H24.275V31.5H16.985V34.5ZM25.775 33V27.96H22.775V33H25.775ZM24.275 29.46H27.425V26.46H24.275V29.46ZM28.925 27.96V21.3H25.925V27.96H28.925Z" fill="url(#paint0_linear_12211_4574)" fill-opacity="0.5" mask="url(#path-1-outside-1_12211_4574)"/>
<defs>
<linearGradient id="paint0_linear_12211_4574" x1="2" y1="17.5" x2="33.7961" y2="17.5" gradientUnits="userSpaceOnUse">
<stop stop-color="white"/>
<stop offset="1" stop-color="white" stop-opacity="0"/>
</linearGradient>
</defs>
</svg>
