<svg width="229" height="51" viewBox="0 0 229 51" fill="none" xmlns="http://www.w3.org/2000/svg">
<g clip-path="url(#clip0_1054_2421)">
<path d="M191.789 5.4862L186.848 24.8893L186.972 24.9459C187.441 24.3281 187.865 23.6973 188.373 23.1013C190.625 20.3605 193.337 18.2723 196.972 17.6153C202.516 16.6104 208.511 18.703 210.014 25.9465C211.642 33.7774 207.592 43.1788 200.71 47.5119C197.311 49.6523 193.609 50.4745 189.635 49.5218C186.138 48.6865 184.167 46.3024 183.32 42.9961C183.012 41.7997 182.923 40.5467 182.726 39.2938C182.637 39.3939 182.508 39.5113 182.401 39.6505C180.171 42.6132 177.918 45.5541 175.746 48.5516C175.233 49.2564 174.698 49.574 173.846 49.4478C173.637 49.4174 173.4 49.4478 173.119 49.413C173.489 47.9382 173.846 46.5112 174.207 45.0625C177.478 32.1416 180.749 19.2192 184.02 6.29539C184.176 5.67327 184.386 5.42529 185.108 5.42529C187.298 5.52535 189.492 5.4862 191.789 5.4862ZM202.605 28.1087C202.534 27.33 202.503 26.5773 202.387 25.8334C201.682 21.2697 197.552 19.0684 193.221 20.9478C191.308 21.7744 189.885 23.1709 188.676 24.7893C186.475 27.8438 185.023 31.3505 184.43 35.039C184.011 37.3448 183.815 39.6679 184.43 41.9737C185.594 46.3242 189.742 48.0644 193.752 45.7717C194.734 45.2162 195.622 44.5179 196.388 43.7008C200.465 39.2851 202.186 33.9384 202.605 28.1261V28.1087Z" fill="white"/>
<path d="M95.3252 50.9989L97.6093 41.9759L104.676 14.1598C105.28 11.7991 105.87 9.4295 106.491 7.08644C106.549 6.86982 106.804 6.54267 106.974 6.53825C109.343 6.50288 111.716 6.51172 114.184 6.51172C112.498 13.143 110.831 19.6859 109.119 26.4056C109.919 25.3358 110.558 24.3853 111.292 23.51C114.867 19.2085 120.41 17.5374 125.537 19.1643C128.965 20.2518 131.062 22.8955 131.424 26.5162C131.67 28.9742 131.111 31.3172 130.503 33.6603C129.034 39.2836 127.578 44.9055 126.136 50.5259C126.1 50.663 126.046 50.7956 125.988 50.968H118.542C118.81 49.8893 119.069 48.8416 119.333 47.7938C120.768 42.1351 122.216 36.4852 123.619 30.8221C124.077 29.1489 124.091 27.3872 123.66 25.7071C123.404 24.6353 122.797 23.677 121.934 22.9814C121.07 22.2859 119.999 21.892 118.886 21.861C115.542 21.6134 113.075 23.1475 111.055 25.601C108.887 28.2536 107.832 31.3924 107.032 34.6461C105.721 39.9158 104.38 45.1781 103.009 50.4331C102.955 50.6497 102.696 50.9768 102.526 50.9768C100.166 51.0078 97.797 50.9989 95.3252 50.9989Z" fill="white"/>
<path d="M163.214 50.4864C162.493 47.2262 161.78 44.0324 161.023 40.6216C160.821 41.0158 160.695 41.2462 160.574 41.4809C158.647 45.3436 155.994 48.5108 151.789 50.0611C148.437 51.297 145.021 51.39 141.723 49.8751C138.424 48.3602 137.146 45.6182 136.976 42.2207C136.859 39.935 137.491 37.76 138.047 35.5762C139.443 30.0983 140.838 24.6173 142.233 19.1334C142.319 18.7879 142.35 18.4513 142.883 18.4601C145.124 18.4867 147.366 18.4601 149.607 18.4601C149.732 18.4732 149.856 18.4954 149.979 18.5266C149.683 19.6827 149.396 20.8078 149.105 21.933C147.693 27.4346 146.245 32.9273 144.896 38.4422C144.608 39.7028 144.497 40.9967 144.569 42.2871C144.712 45.7777 147.303 47.9349 150.844 47.6559C153.632 47.4388 155.711 46.0036 157.41 43.9438C159.566 41.3392 160.664 38.265 161.444 35.0403C162.753 29.6893 164.133 24.3515 165.478 19.0094C165.563 18.6728 165.635 18.4424 166.065 18.4468C168.306 18.4468 170.547 18.4468 172.788 18.4468C172.901 18.4615 173.012 18.4867 173.12 18.5221C172.761 19.9839 172.416 21.4191 172.058 22.8543C169.861 31.6929 167.662 40.53 165.46 49.3657C165.124 50.6946 165.388 50.4199 164.066 50.4554L163.214 50.4864Z" fill="white"/>
<path d="M39.4451 7.96226C35.7204 7.96226 33.8595 8.90547 33.8625 10.7919V43.6069C33.8625 45.4933 35.7234 46.4351 39.4451 46.4322V49.9148H18.627V46.4322C22.3902 46.4322 24.2719 45.4904 24.2719 43.6069V10.7919C24.2719 8.90837 22.3902 7.96516 18.627 7.96226V4.34033H39.4451V7.96226Z" fill="white"/>
<path d="M71.4639 4.34136C73.9824 4.32432 76.4976 4.51951 78.9802 4.92468C81.047 5.23965 83.0259 5.95036 84.7985 7.01421C86.4097 8.0204 87.6998 9.43171 88.527 11.0931C89.4041 12.8141 89.8442 15.0023 89.8473 17.6577C89.8503 20.3132 89.4102 22.5623 88.527 24.4052C87.7074 26.1394 86.4187 27.6331 84.7939 28.7322C83.0414 29.8745 81.0603 30.6571 78.9757 31.0307C76.4981 31.5025 73.9764 31.73 71.4503 31.7098H61.5484V43.5983C61.5484 45.4876 63.9233 46.4323 68.6732 46.4323V49.9148H46.0195V46.4323C49.8255 46.4323 51.73 45.4905 51.733 43.607V10.7928C51.733 8.9093 49.8285 7.96611 46.0195 7.9632V4.34136H71.4639ZM61.5484 9.49988V26.6775H70.3394C73.8055 26.6775 76.2866 25.9186 77.7829 24.4008C79.2792 22.883 80.0273 20.6455 80.0273 17.6882C80.0273 15.1024 79.2792 13.0898 77.7829 11.6503C76.2866 10.2109 73.8055 9.49407 70.3394 9.49988H61.5484Z" fill="white"/>
<path d="M217.709 9.7637C218.057 10.0773 218.459 10.3294 218.897 10.5088C219.642 10.7854 220.448 10.8659 221.235 10.742C221.643 10.6949 222.045 10.6014 222.43 10.4635C221.548 13.5022 219.847 16.258 217.501 18.4468C219.918 18.2978 222.24 17.4745 224.186 16.0758C226.858 14.1192 229.4 10.5053 228.947 6.59893C228.872 5.9618 228.448 2.89799 226.175 1.25816C224.703 0.19279 222.938 -0.195989 220.879 0.0918234C219.185 0.328572 217.878 0.990076 216.951 2.06241C216.025 3.13474 215.684 4.49953 215.928 6.13936C216.163 7.70608 216.756 8.91419 217.709 9.7637Z" fill="#DA4533"/>
<path d="M11.2911 9.7637C10.9427 10.0773 10.5405 10.3294 10.1027 10.5088C9.35845 10.7854 8.55192 10.8659 7.7652 10.742C7.35678 10.6949 6.95548 10.6014 6.56955 10.4635C7.45173 13.5022 9.15344 16.258 11.4994 18.4468C9.08174 18.2978 6.76004 17.4745 4.81376 16.0758C2.14239 14.1192 -0.39973 10.5053 0.05268 6.59893C0.128081 5.9618 0.55178 2.89799 2.8246 1.25816C4.29673 0.19279 6.06209 -0.195989 8.12067 0.0918234C9.81542 0.328572 11.1224 0.990076 12.0487 2.06241C12.9751 3.13474 13.3162 4.49953 13.072 6.13936C12.8375 7.70608 12.2438 8.91419 11.2911 9.7637Z" fill="#DA4533"/>
</g>
<defs>
<clipPath id="clip0_1054_2421">
<rect width="229" height="51" fill="white"/>
</clipPath>
</defs>
</svg>
