<svg width="167" height="176" viewBox="0 0 167 176" fill="none" xmlns="http://www.w3.org/2000/svg">
<path d="M84.7828 163.268C84.7642 163.268 84.7643 163.268 84.7457 163.268L4.51152 159.22C4.2703 159.201 4.02903 159.084 3.88058 158.868C3.73214 158.653 3.67644 158.38 3.73211 158.125L30.8233 33.5565C30.8604 33.3805 30.9532 33.224 31.0645 33.1067L52.4034 11.9671C52.6632 11.7129 53.0714 11.6542 53.4054 11.8498L151.546 70.0863C151.768 70.2231 151.917 70.4383 151.954 70.712L164.33 143.107C164.405 143.576 164.126 144.026 163.681 144.124L84.987 163.229C84.8942 163.268 84.8384 163.268 84.7828 163.268ZM5.58766 157.5L84.7086 161.489L162.512 142.598L150.358 71.4356L53.1085 13.7271L32.419 34.2214L5.58766 157.5Z" fill="white"/>
<path d="M84.7828 163.268C84.6714 163.268 84.5601 163.249 84.4488 163.19C84.022 162.995 83.8179 162.467 84.0035 162.017L117.793 79.8249L31.2501 34.5734C30.8233 34.3583 30.6562 33.8302 30.8603 33.3805C31.0645 32.9307 31.5841 32.7547 31.9923 32.9698L119.259 78.6125C119.667 78.8276 119.834 79.336 119.667 79.7662L85.5622 162.74C85.4138 163.073 85.0982 163.268 84.7828 163.268Z" fill="white"/>
<path d="M118.888 80.3138C118.517 80.3138 118.164 80.04 118.071 79.6489C117.96 79.1796 118.238 78.6907 118.684 78.5734L150.896 70.0276C151.342 69.9102 151.806 70.2036 151.917 70.6729C152.028 71.1422 151.75 71.6311 151.304 71.7485L119.092 80.2942C119.036 80.2942 118.962 80.3138 118.888 80.3138Z" fill="white"/>
<path d="M4.53 158.79C4.40011 158.79 4.25166 158.712 4.17744 158.595C4.04755 158.399 4.10321 158.106 4.28877 157.969L95.2853 94.12L52.5889 12.8471C52.4776 12.632 52.5519 12.3583 52.756 12.2409C52.9601 12.1236 53.2199 12.2018 53.3312 12.4169L96.2131 94.0418C96.3244 94.2374 96.2687 94.4916 96.0832 94.6285L4.77123 158.712C4.69701 158.751 4.62278 158.79 4.53 158.79Z" fill="white"/>
<path d="M163.477 143.713C163.403 143.713 163.31 143.693 163.236 143.635L95.6007 94.6285C95.4151 94.4916 95.3595 94.2178 95.4894 94.0027C95.6193 93.8071 95.879 93.7485 96.0832 93.8854L163.718 142.892C163.904 143.028 163.959 143.302 163.83 143.517C163.737 143.654 163.607 143.713 163.477 143.713Z" fill="white"/>
<path d="M86.4342 101.297C86.2672 101.297 86.1003 101.199 86.0446 101.023L52.5703 12.808C52.4775 12.5734 52.5889 12.3191 52.8116 12.2214C53.0342 12.1236 53.2754 12.2409 53.3682 12.4756L86.8425 100.691C86.9353 100.925 86.8239 101.18 86.6013 101.277C86.5456 101.297 86.4899 101.297 86.4342 101.297Z" fill="white"/>
<path d="M71.1816 112.013C70.9775 112.013 70.8105 111.857 70.7734 111.661L52.5704 12.7298C52.5333 12.4952 52.6817 12.2605 52.9044 12.2018C53.1456 12.1627 53.3497 12.3191 53.4054 12.5538L71.6084 111.485C71.6455 111.72 71.4971 111.955 71.2744 112.013C71.2187 112.013 71.2002 112.013 71.1816 112.013Z" fill="white"/>
<path d="M22.0836 146.47C22.0464 146.47 22.0094 146.47 21.9908 146.451C21.7681 146.392 21.6197 146.157 21.6754 145.923L52.5517 12.5343C52.6074 12.2996 52.8115 12.1627 53.0342 12.2018C53.2569 12.2409 53.4053 12.456 53.3868 12.6712L43.8678 131.06C43.8492 131.295 43.6822 131.491 43.4039 131.471C43.1626 131.452 42.9957 131.236 43.0143 130.982L52.0693 18.3031L22.4733 146.118C22.4361 146.333 22.2691 146.47 22.0836 146.47Z" fill="white"/>
<path d="M16.7768 102.509C16.7211 102.509 16.6654 102.49 16.6097 102.47C16.3871 102.372 16.2943 102.118 16.3871 101.884L50.5849 17.384L27.2236 55.9476C27.0937 56.1627 26.8339 56.2214 26.6483 56.0845C26.4442 55.9476 26.3885 55.6738 26.5184 55.4783L52.6261 12.3974C52.7374 12.2018 52.9786 12.1431 53.1828 12.2409C53.3683 12.3583 53.461 12.5929 53.3683 12.808L17.1849 102.236C17.0922 102.412 16.9438 102.509 16.7768 102.509Z" fill="white"/>
</svg>
