<svg width="167" height="176" viewBox="0 0 167 176" fill="none" xmlns="http://www.w3.org/2000/svg">
<path d="M100.98 163.604C100.905 163.604 100.831 163.604 100.776 163.585L48.9313 149.583L6.19787 137.771C5.95664 137.693 5.75256 137.517 5.64122 137.282C5.52989 137.028 5.54841 136.754 5.65974 136.52L30.9139 84.9516L11.9872 39.7001C11.8944 39.4654 11.8944 39.1916 12.0058 38.9569C12.1171 38.7223 12.3212 38.5463 12.5624 38.4876L50.7498 28.3774L103.652 13.7694C103.744 13.7499 103.837 13.7303 103.93 13.7498L160.469 18.6974C160.914 18.7365 161.267 19.1472 161.248 19.6361L156.127 130.594C156.108 130.907 155.96 131.181 155.7 131.318L101.406 163.526C101.277 163.565 101.128 163.604 100.98 163.604ZM7.66377 136.324L49.3581 147.842L100.868 161.746L154.457 129.949L159.522 20.3401L103.949 15.4707L51.1765 30.0396L13.9541 39.8956L32.6395 84.5801C32.7509 84.8343 32.7323 85.1081 32.621 85.3427L7.66377 136.324Z" fill="white"/>
<path d="M100.98 163.604C100.534 163.604 100.163 163.233 100.145 162.763L97.751 120.934L103.039 14.5321C103.058 14.0432 103.485 13.6521 103.93 13.6912C104.394 13.7107 104.746 14.141 104.728 14.6299L99.4395 120.934L101.833 162.646C101.87 163.135 101.499 163.565 101.035 163.585C101.017 163.604 100.998 163.604 100.98 163.604Z" fill="white"/>
<path d="M49.1539 149.602C49.1168 149.602 49.0983 149.602 49.0612 149.602C48.5973 149.544 48.2633 149.113 48.3004 148.625L52.3084 108.145L50.1189 29.2378C50.1003 28.7489 50.4714 28.3383 50.9353 28.3187H50.9538C51.4177 28.3187 51.7888 28.7098 51.8074 29.1792L53.997 108.203L49.989 148.801C49.9333 149.25 49.5622 149.602 49.1539 149.602Z" fill="white"/>
<path d="M98.586 121.775C98.5117 121.775 98.4375 121.775 98.3633 121.755L52.9207 109.103C52.7723 109.064 52.6424 108.985 52.5311 108.849L31.2478 85.5774C30.9324 85.2254 30.9324 84.6583 31.2664 84.3258C31.6004 83.9934 32.1385 83.9934 32.4539 84.3454L53.5702 107.44L98.79 120.015C99.2354 120.132 99.5137 120.621 99.3838 121.11C99.3096 121.521 98.9571 121.775 98.586 121.775Z" fill="white"/>
<path d="M34.6992 145.163C34.5136 145.163 34.3281 145.026 34.291 144.831C34.2353 144.596 34.3838 144.342 34.6064 144.283L49.4323 140.509L42.808 97.4672C42.7709 97.2325 42.9193 96.9978 43.1606 96.9587C43.3832 96.9196 43.6059 97.0761 43.643 97.3303L50.323 140.783C50.3601 141.017 50.2116 141.233 50.0075 141.291L34.792 145.163C34.7734 145.163 34.7363 145.163 34.6992 145.163Z" fill="white"/>
<path d="M49.9148 141.291C49.7663 141.291 49.6178 141.213 49.5436 141.057L26.4234 95.4921C26.3121 95.277 26.3863 95.0032 26.5904 94.8859C26.7945 94.7685 27.0543 94.8467 27.1656 95.0618L48.2633 136.637L34.291 88.1783C34.2167 87.9436 34.3467 87.6894 34.5693 87.6307C34.8106 87.5525 35.0332 87.6894 35.0889 87.9241L50.3044 140.705C50.3601 140.92 50.2673 141.154 50.0632 141.252C50.0261 141.291 49.9704 141.291 49.9148 141.291Z" fill="white"/>
<path d="M49.9148 141.291C49.8405 141.291 49.7477 141.272 49.6735 141.213L16.1993 116.808C16.0137 116.671 15.9581 116.397 16.0879 116.182C16.2178 115.986 16.4776 115.928 16.6817 116.065L47.5953 138.593L21.4876 105.739C21.3392 105.544 21.3577 105.27 21.5433 105.113C21.7288 104.957 21.9886 104.977 22.1371 105.172L50.2302 140.548C50.3601 140.724 50.3601 140.978 50.2116 141.135C50.156 141.252 50.0446 141.291 49.9148 141.291Z" fill="white"/>
<path d="M49.9148 141.291L16.422 140.118C16.1808 140.118 16.0138 139.903 16.0138 139.649C16.0138 139.394 16.2179 139.199 16.4591 139.218L47.0758 140.294L11.1151 127.446C10.8924 127.368 10.7811 127.113 10.8553 126.879C10.9296 126.644 11.1707 126.527 11.3934 126.605L50.0632 140.411C50.2673 140.489 50.3787 140.704 50.3416 140.92C50.3045 141.154 50.1189 141.291 49.9148 141.291Z" fill="white"/>
</svg>
