<svg width="167" height="176" viewBox="0 0 167 176" fill="none" xmlns="http://www.w3.org/2000/svg">
<path d="M90.0105 114.788C89.8806 114.788 89.7692 114.768 89.6579 114.709C89.3239 114.553 89.1384 114.181 89.1755 113.79L93.703 76.7911L62.7152 57.8613C62.3998 57.6657 62.2328 57.2747 62.307 56.9031C62.3812 56.5315 62.6781 56.2382 63.0492 56.1991L96.6348 52.7768L100.865 18.1831C100.921 17.792 101.199 17.4791 101.571 17.4204C101.923 17.3422 102.294 17.5573 102.461 17.9093L117.732 50.6453L147.718 47.5946C148.052 47.5555 148.405 47.7511 148.553 48.0835C148.702 48.416 148.646 48.8071 148.405 49.0809L127.845 72.3715L143.098 105.088C143.265 105.44 143.191 105.87 142.912 106.124C142.634 106.398 142.226 106.437 141.91 106.242L113.335 88.7786L90.6228 114.494C90.4558 114.69 90.2331 114.788 90.0105 114.788ZM95.2617 77.7493L91.1609 111.268L111.813 87.8595L95.2617 77.7493ZM114.504 87.4489L140.333 103.23L126.583 73.76L114.504 87.4489ZM95.5029 75.8329L113.019 86.5298L125.804 72.0391L116.712 52.5226L98.1378 54.4195L95.5029 75.8329ZM65.814 57.6853L93.9071 74.8551L96.375 54.576L65.814 57.6853ZM118.493 52.3271L127.029 70.6311L145.621 49.5698L118.493 52.3271ZM102.164 21.3315L98.3419 52.6009L115.895 50.8213L102.164 21.3315Z" fill="white"/>
<path d="M33.8428 109.566C33.4903 109.566 33.1563 109.332 33.0449 108.96L24.6207 82.2862L4.98892 94.6063C4.65492 94.8214 4.22813 94.7627 3.96835 94.4693C3.69002 94.176 3.63436 93.7458 3.83847 93.3938L19.2952 65.3511L11.6132 41.0045C11.5205 40.6916 11.5947 40.3396 11.8174 40.1049C12.04 39.8703 12.374 39.7724 12.6709 39.8702L30.2245 45.5414L46.4049 16.1689C46.609 15.7973 47.0358 15.6409 47.4069 15.7778C47.7966 15.9147 48.0192 16.3254 47.9636 16.7556L43.2134 49.7458L63.3833 56.2578C63.6987 56.3556 63.9399 56.6489 63.977 57.0009C64.0141 57.3529 63.8657 57.6854 63.5688 57.8809L39.8919 72.7432L34.6778 108.862C34.6221 109.273 34.3067 109.586 33.917 109.605C33.8799 109.566 33.8614 109.566 33.8428 109.566ZM26.1051 81.3476L33.5274 104.892L37.9993 73.8969L26.1051 81.3476ZM20.0004 67.6L6.93725 91.3209L24.0826 80.5458L20.0004 67.6ZM21.1137 65.5467L25.5485 79.6071L38.3147 71.5893L41.2836 50.9582L30.9667 47.6338L21.1137 65.5467ZM42.935 51.4862L40.2074 70.416L61.0452 57.3334L42.935 51.4862ZM13.71 42.0605L20.4086 63.2782L29.3338 47.0862L13.71 42.0605ZM31.8574 46.0498L41.5619 49.1787L45.607 21.0969L31.8574 46.0498Z" fill="white"/>
<path d="M101.682 19.1805C101.645 19.1805 101.608 19.1805 101.571 19.1805L78.5246 15.7192L47.1657 17.4987C46.6647 17.5378 46.3307 17.1858 46.275 16.7164C46.2194 16.2471 46.5162 15.8169 46.943 15.7387L92.2186 5.88271C92.5155 5.82405 92.8309 5.92181 93.035 6.17603L102.313 17.7334C102.535 18.0072 102.573 18.4178 102.406 18.7307C102.276 19.0044 101.979 19.1805 101.682 19.1805ZM78.5988 13.9396L99.6037 17.0685L92.0887 7.70136L58.2619 15.0738L78.5988 13.9396Z" fill="white"/>
<path d="M42.2485 51.232C41.8031 51.232 41.432 50.88 41.4135 50.3911C41.3764 49.9022 41.7289 49.472 42.1928 49.4525L73.6445 47.3013L77.8009 14.7218C77.8566 14.2915 78.1906 13.9786 78.5802 13.9591L107.304 12.1209L48.2234 10.2827L33.8428 36.8782C33.7129 37.0933 33.5088 37.2693 33.2676 37.3084L12.541 41.6107C12.0957 41.7084 11.6318 41.3955 11.5576 40.9066C11.4648 40.4177 11.7617 39.9484 12.2256 39.8702L32.5625 35.6462L47.0173 8.93334C47.1657 8.64001 47.4811 8.48354 47.778 8.48354L126.027 10.928C126.472 10.9475 126.843 11.3387 126.843 11.808C126.843 12.2773 126.509 12.688 126.045 12.7076L79.3781 15.6995L75.2217 48.2791C75.166 48.6898 74.832 49.0222 74.4424 49.0417L42.2856 51.2515C42.2856 51.232 42.267 51.232 42.2485 51.232Z" fill="white"/>
<path d="M97.377 54.4782C97.3214 54.4782 97.2471 54.4782 97.1915 54.4587L74.2197 49.0026C73.7558 48.8853 73.4775 48.416 73.5888 47.9466C73.7001 47.4577 74.164 47.184 74.5908 47.2817L97.5626 52.7378C98.0265 52.8551 98.3048 53.3244 98.1935 53.7938C98.1007 54.2044 97.7481 54.4782 97.377 54.4782Z" fill="white"/>
<path d="M78.6359 15.7191C78.5802 15.7191 78.5431 15.7191 78.4875 15.6996L47.611 10.224C47.1471 10.1458 46.8317 9.67645 46.9245 9.20711C46.9987 8.71822 47.444 8.40535 47.8894 8.48357L78.7658 13.9591C79.2297 14.0373 79.5451 14.5067 79.4523 14.976C79.3967 15.4062 79.0441 15.7191 78.6359 15.7191Z" fill="white"/>
<path d="M162.488 90.3431C162.173 90.3431 161.876 90.1671 161.728 89.8542L147.44 59.9538C147.384 59.8364 147.347 59.7191 147.347 59.5822L146.939 48.8853L139.108 41.7671C139.016 41.6888 138.96 41.5911 138.904 41.4933L125.247 12.1795C125.043 11.7298 125.21 11.2017 125.637 10.9866C126.045 10.7715 126.565 10.9475 126.769 11.3973L140.352 40.5546L148.331 47.8098C148.516 47.9662 148.609 48.2009 148.627 48.4551L149.054 59.328L163.268 89.0524C163.472 89.4827 163.305 90.0302 162.897 90.2453C162.748 90.304 162.618 90.3431 162.488 90.3431Z" fill="white"/>
<path d="M68.5046 91.008C68.3561 91.008 68.2077 90.9689 68.0778 90.8907L38.6858 72.9191C38.2776 72.6649 38.1477 72.1368 38.3704 71.7066C38.6116 71.2764 39.1311 71.1396 39.5208 71.3938L68.5231 89.1306L94.204 75.52C94.6123 75.3049 95.1318 75.4809 95.3359 75.9111C95.54 76.3413 95.373 76.8889 94.9648 77.104L68.8757 90.9298C68.7644 90.9884 68.6345 91.008 68.5046 91.008Z" fill="white"/>
<path d="M72.2342 168.468C71.9559 168.468 71.6961 168.331 71.5291 168.076L57.965 147.269L26.7917 143.378C26.4206 143.339 26.1051 143.026 26.0495 142.615C25.9938 142.224 26.1979 141.833 26.5505 141.676L47.9821 131.957L33.1191 109.156C32.8965 108.823 32.9336 108.354 33.1934 108.06C33.4531 107.748 33.8799 107.669 34.2139 107.865L63.8471 124.78L89.6765 113.067C89.9919 112.93 90.3445 112.988 90.5857 113.223C90.8269 113.458 90.9197 113.829 90.8084 114.162L83.5717 136.025L112.017 152.256C112.37 152.452 112.537 152.901 112.426 153.312C112.296 153.723 111.943 153.957 111.516 153.918L78.9885 149.851L73.0507 167.822C72.9394 168.135 72.6796 168.37 72.3641 168.409C72.3085 168.468 72.2714 168.468 72.2342 168.468ZM60.2103 147.563L71.993 165.632L77.2628 149.694L60.2103 147.563ZM79.5451 148.188L107.323 151.65L82.9965 137.765L79.5451 148.188ZM58.9485 145.607L77.838 147.973L81.4935 136.905L63.7544 126.775L50.5614 132.759L58.9485 145.607ZM30.1317 142.009L56.7218 145.333L48.9841 133.463L30.1317 142.009ZM65.7398 125.876L82.0687 135.204L88.5817 115.531L65.7398 125.876ZM36.5148 111.209L49.5779 131.253L61.8617 125.68L36.5148 111.209Z" fill="white"/>
<path d="M26.903 143.397C26.5134 143.397 26.1794 143.124 26.0866 142.713L19.8334 115.804L3.89413 94.3716C3.59724 93.9805 3.67147 93.4329 4.04258 93.12C4.41369 92.8071 4.93324 92.8853 5.23013 93.2765L21.2807 114.866C21.3549 114.964 21.4106 115.081 21.4291 115.198L27.7195 142.283C27.8308 142.752 27.5525 143.241 27.1071 143.358C27.0329 143.397 26.9772 143.397 26.903 143.397Z" fill="white"/>
<path d="M20.6127 116.313C20.2972 116.313 20.0004 116.137 19.8519 115.804C19.6478 115.355 19.8334 114.827 20.2416 114.612L33.4717 107.865C33.8799 107.65 34.3995 107.845 34.6036 108.276C34.8077 108.725 34.6221 109.253 34.2139 109.468L20.9838 116.215C20.8539 116.274 20.7426 116.313 20.6127 116.313Z" fill="white"/>
<path d="M63.81 126.677C63.7729 126.677 63.7358 126.677 63.6987 126.677C63.2348 126.599 62.9194 126.169 62.975 125.68L67.6881 90.0303C67.7624 89.5414 68.1891 89.2089 68.6345 89.2676C69.0984 89.3458 69.4138 89.776 69.3581 90.2649L64.645 125.915C64.5708 126.345 64.2182 126.677 63.81 126.677Z" fill="white"/>
<path d="M11.0566 82.9315C10.6855 82.9315 10.3515 82.6773 10.2401 82.2862L8.81135 77.104C8.73713 76.8693 8.77425 76.6151 8.90414 76.4L18.0891 60.5796C18.3304 60.1493 18.8499 60.032 19.2581 60.2862C19.6478 60.5404 19.7777 61.088 19.5365 61.5182L10.537 77.0062L11.873 81.8169C12.0029 82.2862 11.7431 82.7751 11.2978 82.912C11.2236 82.912 11.1308 82.9315 11.0566 82.9315Z" fill="white"/>
<path d="M61.1751 151.474C61.138 151.474 61.1009 151.474 61.0638 151.474L43.2319 149.01C43.0092 148.971 42.8051 148.853 42.6567 148.658L39.8919 144.747C39.6136 144.356 39.6878 143.788 40.0589 143.495C40.43 143.202 40.9681 143.28 41.2465 143.671L43.7886 147.289L61.2679 149.694C61.7318 149.753 62.0472 150.203 61.9916 150.692C61.9545 151.161 61.5834 151.474 61.1751 151.474Z" fill="white"/>
<path d="M72.2342 168.468C71.993 168.468 71.7518 168.35 71.5848 168.135C71.2879 167.764 71.3436 167.196 71.6961 166.884L88.1178 152.608C88.3034 152.452 88.526 152.373 88.7672 152.412L117.565 156.578C118.029 156.636 118.345 157.086 118.289 157.575C118.233 158.064 117.788 158.396 117.343 158.338L88.9157 154.231L72.7723 168.252C72.6239 168.409 72.4384 168.468 72.2342 168.468Z" fill="white"/>
<path d="M111.609 153.957C111.386 153.957 111.182 153.879 111.015 153.703C110.7 153.371 110.681 152.862 110.96 152.51L130.796 127.205L141.576 105.049C141.743 104.716 142.04 104.521 142.411 104.58C142.764 104.619 143.042 104.873 143.135 105.225L147.291 121.691C147.384 122.023 147.273 122.375 147.013 122.59L112.129 153.723C111.999 153.899 111.795 153.957 111.609 153.957ZM142.077 107.924L132.206 128.183L118.289 145.94L145.529 121.612L142.077 107.924Z" fill="white"/>
<path d="M117.473 158.357C117.324 158.357 117.176 158.318 117.046 158.24C116.675 158.005 116.526 157.497 116.73 157.086L130.703 127.401C130.74 127.342 130.777 127.284 130.814 127.225L161.858 88.896C162.154 88.544 162.655 88.4853 163.008 88.7787C163.361 89.072 163.435 89.6 163.175 89.9911L118.159 158.005C117.992 158.22 117.732 158.357 117.473 158.357ZM132.15 128.281L123.262 147.152L151.875 103.934L132.15 128.281Z" fill="white"/>
<path d="M82.6996 137.452C82.4955 137.452 82.2914 137.374 82.1429 137.218C81.7904 136.885 81.7718 136.318 82.0687 135.966L103.834 110.427C104.094 110.114 104.539 110.036 104.892 110.251L131.872 127.01C132.28 127.264 132.41 127.812 132.169 128.222C131.927 128.652 131.408 128.77 131.018 128.535L104.632 112.148L83.3305 137.14C83.1635 137.355 82.9222 137.452 82.6996 137.452Z" fill="white"/>
<path d="M104.465 111.913C104.354 111.913 104.261 111.893 104.15 111.854C103.723 111.678 103.5 111.15 103.667 110.7L112.388 87.312C112.555 86.8427 113.056 86.6275 113.483 86.8035C113.91 86.9795 114.133 87.5076 113.966 87.9574L105.245 111.346C105.115 111.698 104.799 111.913 104.465 111.913Z" fill="white"/>
<path d="M130.74 81.4844C130.536 81.4844 130.35 81.4062 130.183 81.2693C129.831 80.9369 129.794 80.3893 130.109 80.0177L147.57 58.9564C147.867 58.5849 148.405 58.5457 148.757 58.8782C149.11 59.2106 149.147 59.7582 148.832 60.1298L131.371 81.1911C131.204 81.3866 130.963 81.4844 130.74 81.4844Z" fill="white"/>
<path d="M113.372 44.2702C112.945 44.2702 112.574 43.9182 112.537 43.4489C112.5 42.96 112.852 42.5298 113.316 42.4907L139.591 40.2223C140.018 40.144 140.463 40.5351 140.5 41.0436C140.537 41.5324 140.185 41.9627 139.721 42.0018L113.446 44.2702C113.428 44.2702 113.409 44.2702 113.372 44.2702Z" fill="white"/>
</svg>
