<svg width="167" height="176" viewBox="0 0 167 176" fill="none" xmlns="http://www.w3.org/2000/svg">
<path d="M35.5337 167.082C35.3481 167.082 35.1625 167.024 35.0141 166.887C34.9955 166.867 34.9584 166.848 34.9399 166.808C34.8657 166.73 34.8099 166.652 34.7728 166.554L5.65927 104.524C5.60361 104.407 5.56641 104.27 5.56641 104.133V69.7347C5.56641 69.6369 5.585 69.5587 5.60355 69.4609C5.62211 69.4218 5.64072 69.3632 5.65927 69.324L35.7378 10.3053C35.8862 10.012 36.1646 9.83601 36.48 9.83601H84.3162C84.6873 9.83601 85.0027 10.0902 85.1141 10.4618C85.2254 10.8334 85.0955 11.2245 84.7987 11.4592L8.07147 69.5782L84.6687 105.932C84.91 106.049 85.0955 106.284 85.1512 106.558C85.2069 106.832 85.1327 107.125 84.9657 107.34L37.3707 165.342H84.3348C84.7987 165.342 85.1884 165.733 85.1884 166.241C85.1884 166.75 84.8172 167.141 84.3348 167.141H35.5337C35.5337 167.082 35.5337 167.082 35.5337 167.082ZM7.25503 103.918L35.7192 164.579L82.9431 107.027L7.23645 71.1036V103.918H7.25503ZM36.9995 11.596L8.88792 66.7623L81.7185 11.596H36.9995Z" fill="white"/>
<path d="M133.136 167.082H84.3348C83.8709 167.082 83.4812 166.691 83.4812 166.183C83.4812 165.674 83.8523 165.283 84.3348 165.283H131.299L83.7039 107.281C83.5369 107.066 83.4626 106.773 83.5183 106.499C83.574 106.225 83.7596 105.991 84.0008 105.873L160.598 69.5195L83.8709 11.4004C83.574 11.1658 83.4441 10.7747 83.5555 10.4031C83.6668 10.0316 84.0008 9.77734 84.3533 9.77734H132.189C132.505 9.77734 132.783 9.95332 132.932 10.2467L163.01 69.2654C163.085 69.4023 163.122 69.5392 163.122 69.6956V104.094C163.122 104.231 163.085 104.368 163.029 104.485L133.915 166.515C133.878 166.613 133.804 166.711 133.73 166.789C133.711 166.808 133.711 166.808 133.693 166.828C133.526 167.004 133.34 167.082 133.136 167.082ZM85.7264 107.047L132.95 164.599L161.414 103.937V71.1231L85.7264 107.047ZM86.9696 11.596L159.8 66.7623L131.689 11.596H86.9696Z" fill="white"/>
<path d="M84.3348 71.3969C87.0439 71.3969 87.0625 66.9383 84.3348 66.9383C81.6257 66.9383 81.6257 71.3969 84.3348 71.3969Z" fill="white"/>
<path d="M113.782 35.356C116.492 35.356 116.51 30.8973 113.782 30.8973C111.055 30.9169 111.055 35.356 113.782 35.356Z" fill="white"/>
<path d="M54.6645 35.1996C57.3736 35.1996 57.3922 30.7409 54.6645 30.7409C51.9368 30.7409 51.9368 35.1996 54.6645 35.1996Z" fill="white"/>
<path d="M113.857 144.926C116.566 144.926 116.584 140.467 113.857 140.467C111.148 140.467 111.148 144.926 113.857 144.926Z" fill="white"/>
<path d="M54.85 144.867C57.5591 144.867 57.5777 140.408 54.85 140.408C52.1223 140.408 52.1223 144.867 54.85 144.867Z" fill="white"/>
<path d="M162.268 104.583C162.101 104.583 161.934 104.465 161.86 104.289L132.023 11.596L84.6688 69.5782C84.5018 69.7738 84.1864 69.7738 84.0194 69.5782L36.6656 11.596L6.82819 104.289C6.75397 104.524 6.51279 104.641 6.29012 104.563C6.06745 104.485 5.95609 104.231 6.03031 103.996L36.1089 10.5791C36.1646 10.4227 36.2759 10.3249 36.4243 10.2858C36.5728 10.2663 36.7213 10.3053 36.8326 10.4422L84.3534 68.62L131.874 10.4422C131.967 10.3249 132.134 10.2663 132.282 10.2858C132.431 10.3249 132.561 10.4227 132.598 10.5791L162.676 103.996C162.751 104.231 162.639 104.485 162.417 104.563C162.361 104.563 162.305 104.583 162.268 104.583Z" fill="white"/>
<path d="M84.3347 166.632C84.242 166.632 84.1492 166.593 84.0749 166.535L6.16017 104.485C6.03028 104.387 5.97468 104.231 5.99323 104.074C6.01179 103.918 6.10448 103.781 6.25292 103.722L83.9266 68.9916V10.716C83.9266 10.4618 84.1121 10.2662 84.3533 10.2662C84.5945 10.2662 84.78 10.4618 84.78 10.716V68.9916L162.454 103.722C162.602 103.781 162.695 103.918 162.713 104.074C162.732 104.231 162.676 104.387 162.546 104.485L84.6317 166.535L84.6131 166.554C84.5018 166.613 84.4275 166.632 84.3347 166.632ZM84.7615 69.9498V165.283L161.433 104.231L84.7615 69.9498ZM7.255 104.231L83.9266 165.283V69.9498L7.255 104.231Z" fill="white"/>
<path d="M35.5337 166.632C35.3481 166.632 35.1811 166.515 35.1254 166.32L6.01173 69.8716C5.93751 69.6369 6.06744 69.3827 6.29011 69.3045C6.51278 69.2263 6.75396 69.3631 6.82818 69.5978L35.9419 166.046C36.0161 166.28 35.8863 166.535 35.6636 166.613C35.6265 166.633 35.5708 166.632 35.5337 166.632Z" fill="white"/>
<path d="M133.136 166.632C133.099 166.632 133.043 166.633 133.006 166.613C132.783 166.535 132.653 166.28 132.728 166.046L161.841 69.5978C161.916 69.3631 162.138 69.2263 162.379 69.3045C162.602 69.3827 162.732 69.6369 162.658 69.8716L133.544 166.32C133.488 166.515 133.321 166.632 133.136 166.632Z" fill="white"/>
</svg>
