<svg width="39" height="49" viewBox="0 0 39 49" fill="none" xmlns="http://www.w3.org/2000/svg">
<mask id="path-1-outside-1_757_1684" maskUnits="userSpaceOnUse" x="0" y="0" width="39" height="49" fill="black">
<rect fill="white" width="39" height="49"/>
<path d="M24.7 36.99V1.5H15.6L3.705 5.79L6.24 14.695L14.3 12.485V36.99H1.625V47H36.725V36.99H24.7Z"/>
</mask>
<path d="M24.7 36.99H23.2V38.49H24.7V36.99ZM24.7 1.5H26.2V-2.86102e-06H24.7V1.5ZM15.6 1.5V-2.86102e-06H15.3378L15.0911 0.0889606L15.6 1.5ZM3.705 5.79L3.1961 4.37896L1.87895 4.854L2.26232 6.20069L3.705 5.79ZM6.24 14.695L4.79732 15.1057L5.20404 16.5344L6.63665 16.1416L6.24 14.695ZM14.3 12.485H15.8V10.5183L13.9034 11.0384L14.3 12.485ZM14.3 36.99V38.49H15.8V36.99H14.3ZM1.625 36.99V35.49H0.125V36.99H1.625ZM1.625 47H0.125V48.5H1.625V47ZM36.725 47V48.5H38.225V47H36.725ZM36.725 36.99H38.225V35.49H36.725V36.99ZM26.2 36.99V1.5H23.2V36.99H26.2ZM24.7 -2.86102e-06H15.6V3H24.7V-2.86102e-06ZM15.0911 0.0889606L3.1961 4.37896L4.2139 7.20104L16.1089 2.91103L15.0911 0.0889606ZM2.26232 6.20069L4.79732 15.1057L7.68268 14.2843L5.14768 5.37931L2.26232 6.20069ZM6.63665 16.1416L14.6967 13.9316L13.9034 11.0384L5.84335 13.2484L6.63665 16.1416ZM12.8 12.485V36.99H15.8V12.485H12.8ZM14.3 35.49H1.625V38.49H14.3V35.49ZM0.125 36.99V47H3.125V36.99H0.125ZM1.625 48.5H36.725V45.5H1.625V48.5ZM38.225 47V36.99H35.225V47H38.225ZM36.725 35.49H24.7V38.49H36.725V35.49Z" fill="url(#paint0_linear_757_1684)" mask="url(#path-1-outside-1_757_1684)"/>
<defs>
<linearGradient id="paint0_linear_757_1684" x1="-4.24683e-07" y1="25" x2="38" y2="25" gradientUnits="userSpaceOnUse">
<stop stop-color="#DA4533"/>
<stop offset="1" stop-color="#DA4533" stop-opacity="0"/>
</linearGradient>
</defs>
</svg>
