<svg width="38" height="50" viewBox="0 0 38 50" fill="none" xmlns="http://www.w3.org/2000/svg">
<mask id="path-1-outside-1_10076_811" maskUnits="userSpaceOnUse" x="0" y="0" width="38" height="50" fill="black">
<rect fill="white" width="38" height="50"/>
<path d="M2.95 48H36.1V37.99H19.59L26.675 31.49C32.135 26.485 35.45 22.13 35.45 16.215C35.45 7.96 29.015 1.59 19.395 1.59C12.44 1.59 6.33 4.97 2.95 11.86L11.725 16.995C13.675 13.615 15.82 11.73 19.265 11.73C23.555 11.73 25.05 14.59 25.05 16.865C25.05 19.79 22.645 22.39 19.59 25.185L2.95 40.46V48Z"/>
</mask>
<path d="M2.95 48H1.45V49.5H2.95V48ZM36.1 48V49.5H37.6V48H36.1ZM36.1 37.99H37.6V36.49H36.1V37.99ZM19.59 37.99L18.576 36.8847L15.7362 39.49H19.59V37.99ZM26.675 31.49L25.6614 30.3843L25.661 30.3847L26.675 31.49ZM2.95 11.86L1.60332 11.1994L0.989463 12.4507L2.19241 13.1546L2.95 11.86ZM11.725 16.995L10.9674 18.2896L12.2701 19.0519L13.0243 17.7446L11.725 16.995ZM19.59 25.185L18.5775 24.0783L18.5756 24.08L19.59 25.185ZM2.95 40.46L1.93563 39.355L1.45 39.8008V40.46H2.95ZM2.95 49.5H36.1V46.5H2.95V49.5ZM37.6 48V37.99H34.6V48H37.6ZM36.1 36.49H19.59V39.49H36.1V36.49ZM20.604 39.0953L27.689 32.5953L25.661 30.3847L18.576 36.8847L20.604 39.0953ZM27.6886 32.5957C33.203 27.5409 36.95 22.8032 36.95 16.215H33.95C33.95 21.4568 31.067 25.4291 25.6614 30.3843L27.6886 32.5957ZM36.95 16.215C36.95 7.03606 29.7446 0.089997 19.395 0.089997V3.09C28.2854 3.09 33.95 8.88394 33.95 16.215H36.95ZM19.395 0.089997C11.899 0.089997 5.24884 3.76809 1.60332 11.1994L4.29668 12.5206C7.41116 6.1719 12.981 3.09 19.395 3.09V0.089997ZM2.19241 13.1546L10.9674 18.2896L12.4826 15.7004L3.70759 10.5654L2.19241 13.1546ZM13.0243 17.7446C13.9499 16.1402 14.8498 15.022 15.8253 14.3018C16.7649 13.6081 17.8467 13.23 19.265 13.23V10.23C17.2383 10.23 15.5251 10.7944 14.0435 11.8882C12.5977 12.9555 11.4501 14.4698 10.4257 16.2454L13.0243 17.7446ZM19.265 13.23C21.0517 13.23 22.0717 13.8114 22.6572 14.4543C23.2733 15.1309 23.55 16.0329 23.55 16.865H26.55C26.55 15.4221 26.0792 13.7566 24.8753 12.4345C23.6408 11.0786 21.7683 10.23 19.265 10.23V13.23ZM23.55 16.865C23.55 17.8975 23.1291 18.9744 22.2485 20.1971C21.3618 21.4281 20.0956 22.6894 18.5775 24.0783L20.6025 26.2917C22.1394 24.8856 23.6032 23.4494 24.6828 21.9504C25.7684 20.4431 26.55 18.7575 26.55 16.865H23.55ZM18.5756 24.08L1.93563 39.355L3.96437 41.565L20.6044 26.29L18.5756 24.08ZM1.45 40.46V48H4.45V40.46H1.45Z" fill="url(#paint0_linear_10076_811)" mask="url(#path-1-outside-1_10076_811)"/>
<defs>
<linearGradient id="paint0_linear_10076_811" x1="1" y1="26" x2="39" y2="26" gradientUnits="userSpaceOnUse">
<stop stop-color="#DA4533"/>
<stop offset="1" stop-color="#DA4533" stop-opacity="0"/>
</linearGradient>
</defs>
</svg>
