<svg width="39" height="50" viewBox="0 0 39 50" fill="none" xmlns="http://www.w3.org/2000/svg">
<mask id="path-1-outside-1_10076_967" maskUnits="userSpaceOnUse" x="0" y="0" width="39" height="50" fill="black">
<rect fill="white" width="39" height="50"/>
<path d="M26.935 19.245L34.93 9.95V1.5H3.73V11.25H21.8L13.415 20.935L17.51 26.98H19.525C24.465 26.98 26.675 29.255 26.675 32.375C26.675 35.495 24.465 37.77 19.525 37.77C15.235 37.77 12.635 35.625 11.27 31.985L2.3 37.185C5.42 44.53 11.66 47.91 20.175 47.91C29.6 47.91 37.075 42.385 37.075 32.375C37.075 25.615 32.85 21.195 26.935 19.245Z"/>
</mask>
<path d="M26.935 19.245L25.7978 18.2668L24.3352 19.9673L26.4654 20.6696L26.935 19.245ZM34.93 9.95L36.0672 10.9281L36.43 10.5064V9.95H34.93ZM34.93 1.5H36.43V-3.09944e-06H34.93V1.5ZM3.73 1.5V-3.09944e-06H2.23V1.5H3.73ZM3.73 11.25H2.23V12.75H3.73V11.25ZM21.8 11.25L22.934 12.2318L25.0827 9.75H21.8V11.25ZM13.415 20.935L12.281 19.9532L11.5276 20.8234L12.1731 21.7763L13.415 20.935ZM17.51 26.98L16.2681 27.8213L16.7144 28.48H17.51V26.98ZM11.27 31.985L12.6745 31.4583L12.0519 29.7979L10.5177 30.6873L11.27 31.985ZM2.3 37.185L1.5477 35.8873L0.401334 36.5519L0.919394 37.7715L2.3 37.185ZM28.0722 20.2231L36.0672 10.9281L33.7928 8.97185L25.7978 18.2668L28.0722 20.2231ZM36.43 9.95V1.5H33.43V9.95H36.43ZM34.93 -3.09944e-06H3.73V3H34.93V-3.09944e-06ZM2.23 1.5V11.25H5.23V1.5H2.23ZM3.73 12.75H21.8V9.75H3.73V12.75ZM20.666 10.2682L12.281 19.9532L14.549 21.9168L22.934 12.2318L20.666 10.2682ZM12.1731 21.7763L16.2681 27.8213L18.7519 26.1387L14.6569 20.0937L12.1731 21.7763ZM17.51 28.48H19.525V25.48H17.51V28.48ZM19.525 28.48C21.7876 28.48 23.1908 29.0032 24.0018 29.6677C24.773 30.2997 25.175 31.1939 25.175 32.375H28.175C28.175 30.4361 27.4721 28.6328 25.9032 27.3473C24.3742 26.0943 22.2024 25.48 19.525 25.48V28.48ZM25.175 32.375C25.175 33.5561 24.773 34.4503 24.0018 35.0823C23.1908 35.7468 21.7876 36.27 19.525 36.27V39.27C22.2024 39.27 24.3742 38.6557 25.9032 37.4027C27.4721 36.1172 28.175 34.3139 28.175 32.375H25.175ZM19.525 36.27C17.6397 36.27 16.242 35.8031 15.1855 35.0313C14.1206 34.2534 13.2815 33.0771 12.6745 31.4583L9.86551 32.5117C10.6235 34.5329 11.7669 36.2491 13.4158 37.4537C15.073 38.6644 17.1203 39.27 19.525 39.27V36.27ZM10.5177 30.6873L1.5477 35.8873L3.0523 38.4827L12.0223 33.2827L10.5177 30.6873ZM0.919394 37.7715C2.59459 41.7151 5.14086 44.657 8.45705 46.5967C11.7568 48.5267 15.7242 49.41 20.175 49.41V46.41C16.1108 46.41 12.7007 45.6033 9.9717 44.0071C7.25914 42.4205 5.12541 39.9999 3.68061 36.5985L0.919394 37.7715ZM20.175 49.41C25.1695 49.41 29.7669 47.9457 33.14 45.0313C36.5401 42.0936 38.575 37.7839 38.575 32.375H35.575C35.575 36.9761 33.8724 40.4339 31.1787 42.7612C28.4581 45.1118 24.6055 46.41 20.175 46.41V49.41ZM38.575 32.375C38.575 24.8262 33.7888 19.9251 27.4046 17.8204L26.4654 20.6696C31.9112 22.4649 35.575 26.4038 35.575 32.375H38.575Z" fill="url(#paint0_linear_10076_967)" mask="url(#path-1-outside-1_10076_967)"/>
<defs>
<linearGradient id="paint0_linear_10076_967" x1="1" y1="25" x2="39" y2="25" gradientUnits="userSpaceOnUse">
<stop stop-color="#DA4533"/>
<stop offset="1" stop-color="#DA4533" stop-opacity="0"/>
</linearGradient>
</defs>
</svg>
