<svg width="392" height="119" viewBox="0 0 392 119" fill="none" xmlns="http://www.w3.org/2000/svg">
<rect width="392" height="119" rx="8" fill="white" fill-opacity="0.05"/>
<g opacity="0.6">
<path fill-rule="evenodd" clip-rule="evenodd" d="M265.732 21.7411C265.565 21.806 263.3 24.0035 260.7 26.6247C256.802 30.5546 255.973 31.49 255.973 31.9586C255.973 32.3862 256.288 32.8358 257.244 33.7759C257.943 34.463 258.729 35.0893 258.99 35.1679C259.409 35.2937 260.05 34.7199 264.353 30.3735C268.207 26.4789 269.24 25.3246 269.24 24.9079C269.24 24.5224 268.854 24.0023 267.815 22.9852C266.38 21.5812 266.288 21.526 265.732 21.7411ZM266.342 41.6577C266.286 41.7143 265.6 41.8137 264.817 41.8786C262.601 42.062 261.677 42.2145 260.141 42.6495C256.208 43.7637 253.9 45.1067 251.076 47.925C247.448 51.5459 245.957 54.6204 245.082 60.2851C244.714 62.6709 244.719 64.4412 245.102 67.0324C245.753 71.4341 247.016 74.5029 249.396 77.4678C252.943 81.8841 257.389 84.3895 262.988 85.1256C266.71 85.6151 275.74 85.525 276.27 84.9933C276.345 84.9181 276.438 84.0352 276.478 83.0312C276.532 81.6249 276.476 81.0932 276.23 80.7167L275.911 80.2281L270.364 80.1252C264.616 80.0188 262.718 79.8854 262.388 79.5646C262.281 79.4615 261.997 79.377 261.755 79.377C260.495 79.377 256.865 77.3841 255.085 75.715C254.008 74.7053 252.401 72.4163 251.851 71.1072C251.375 69.9729 250.687 67.3513 250.687 66.6701C250.687 66.1184 250.715 66.1043 251.856 66.0992C252.499 66.0962 257.965 66.0378 264.002 65.9692C273.763 65.8583 275.008 65.8081 275.239 65.515C275.568 65.0987 275.468 61.5072 275.118 61.1558C274.943 60.9793 271.74 60.9146 262.835 60.9075L250.789 60.8977L250.829 60.008C250.885 58.7929 251.619 56.435 252.362 55.0853C254.08 51.9655 256.315 49.9718 259.633 48.5994C262.93 47.236 265.088 46.9105 270.833 46.9105C273.674 46.9105 275.673 46.8272 275.912 46.6992C276.261 46.5111 276.305 46.2549 276.305 44.3759C276.305 42.7183 276.237 42.2076 275.99 42.0018C275.762 41.8115 274.406 41.7139 271.059 41.6469C268.521 41.5962 266.398 41.6009 266.342 41.6577ZM180.34 42.1927C177.754 42.7295 175.946 43.3329 174.152 44.2583C166.612 48.1479 162.071 55.7647 162.212 64.2862C162.339 71.9767 166.163 78.5559 172.919 82.7063C174.489 83.6709 177.059 84.7436 178.612 85.0821C179.283 85.2285 180.152 85.4284 180.543 85.5264C181.716 85.8201 186.393 85.7376 188.03 85.3945C193.533 84.2417 198.043 81.3607 201.447 76.8246C202.516 75.4012 204.052 72.4576 204.539 70.903C204.679 70.4538 204.867 69.9025 204.955 69.6779C205.284 68.8462 205.393 67.7573 205.486 64.3834C205.569 61.3548 205.527 60.6973 205.148 59.0744C203.47 51.9044 198.914 46.3956 192.336 43.583C188.65 42.0073 183.891 41.4556 180.34 42.1927ZM123.114 42.366C121.406 43.0762 120.794 44.206 120.378 47.421C120.247 48.4318 120.058 49.856 119.957 50.586C119.857 51.316 119.674 52.6943 119.55 53.6489C119.427 54.6035 119.245 55.9358 119.146 56.6096C119.047 57.2835 118.865 58.6618 118.741 59.6725C118.618 60.6833 118.433 62.0615 118.331 62.7354C118.229 63.4092 118.046 64.7416 117.926 65.6962C117.805 66.6508 117.617 68.0979 117.509 68.9122C117.401 69.7265 117.218 71.1048 117.102 71.975C116.887 73.5961 116.434 76.8105 116.087 79.1728C115.98 79.9028 115.851 80.9135 115.802 81.4189C115.752 81.9243 115.648 82.8644 115.569 83.508C115.365 85.1836 115.51 85.2985 117.832 85.2985C118.873 85.2985 119.937 85.2175 120.196 85.1187C120.783 84.8945 121.026 84.0334 121.471 80.6021C121.653 79.1983 121.843 77.7741 121.892 77.4372C122.037 76.4591 122.98 69.6305 123.218 67.8402C123.337 66.9417 123.518 65.6094 123.619 64.8794C124.002 62.1246 124.618 57.3553 124.834 55.4866C125.206 52.2542 125.522 50.2566 125.592 50.6881C125.629 50.9127 125.747 51.4181 125.855 51.8111C127.802 58.9025 128.885 62.7117 129.836 65.8029C130.216 67.041 130.528 68.2071 130.528 68.3943C130.528 68.5818 130.619 68.7917 130.731 68.8611C130.843 68.9305 130.934 69.2072 130.934 69.4762C130.934 69.7451 131.021 70.1761 131.126 70.434C131.232 70.6919 131.516 71.5922 131.757 72.4345C131.999 73.2768 132.267 74.1956 132.354 74.4764C132.441 74.7572 132.719 75.676 132.973 76.5183C134.021 80.0016 135.226 83.5094 135.54 83.9899C136.108 84.8616 136.834 85.0944 138.982 85.0944C142.228 85.0944 142.584 84.6654 144.143 78.8665C144.234 78.5296 144.639 77.1513 145.044 75.8036C145.449 74.456 145.965 72.7101 146.191 71.924C146.7 70.1496 147.593 67.1945 147.825 66.5129C147.92 66.2322 148.733 63.3837 149.63 60.183C150.527 56.9823 151.345 54.0879 151.448 53.7509C151.551 53.414 151.751 52.633 151.894 52.0153C152.26 50.4296 152.432 50.3595 152.576 51.7368C152.646 52.3953 152.791 53.6464 152.899 54.5167C153.418 58.6942 153.517 59.4822 153.717 61.0508C153.836 61.9772 154.02 63.3326 154.127 64.0626C154.622 67.4461 155.178 71.3694 155.559 74.1701C155.788 75.8547 156.014 77.4168 156.061 77.6414C156.181 78.2158 156.478 80.1072 156.638 81.3168C156.905 83.3303 157.221 84.6852 157.472 84.8949C157.627 85.0235 158.644 85.0852 160.037 85.0503L162.347 84.9923L162.416 84.2776C162.454 83.8845 162.382 82.8738 162.256 82.0315C161.961 80.0578 161.71 78.2523 161.446 76.212C161.039 73.0575 160.792 71.2947 160.504 69.4737C160.343 68.463 159.799 64.5578 159.294 60.7956C158.789 57.0333 158.284 53.3119 158.172 52.5258C158.06 51.7397 157.878 50.4304 157.768 49.6161C157.091 44.5997 156.943 44.0672 155.94 43.0605C154.988 42.1041 153.633 41.8319 151.372 42.1431C150.645 42.2431 150.214 42.4585 149.637 43.0109C148.982 43.6386 148.761 44.1021 148.124 46.1959C146.908 50.187 146.752 50.6709 146.565 51.0426C146.467 51.2376 146.387 51.5132 146.387 51.6551C146.388 51.797 146.107 52.8321 145.763 53.9551C145.418 55.0782 145.04 56.3646 144.921 56.8138C144.565 58.1601 144.381 58.7945 143.977 60.0809C143.486 61.6405 141.874 67.0383 141.507 68.3506C141.397 68.7437 141.132 69.6626 140.92 70.3926C140.706 71.1225 140.332 72.5008 140.086 73.4554C139.841 74.41 139.557 75.4022 139.455 75.6601C139.354 75.918 139.269 76.3315 139.267 76.579C139.265 76.8264 139.183 77.1574 139.084 77.3147C138.881 77.6369 138.931 77.7919 136.913 70.6988C136.178 68.1158 135.497 65.7268 135.402 65.3899C134.927 63.7269 134.76 63.1013 134.666 62.6333C134.61 62.3525 134.488 61.939 134.396 61.7144C134.149 61.1131 133.873 60.2555 133.41 58.6515C133.184 57.8654 132.707 56.2574 132.352 55.0782C131.996 53.899 131.539 52.3829 131.337 51.709C129.492 45.5651 128.822 43.7272 128.202 43.1042C127.122 42.0197 124.769 41.6781 123.114 42.366ZM210.622 42.6119C209.236 43.0344 208.582 43.6686 208.101 45.0581C207.827 45.8475 207.787 48.3909 207.787 65.1032C207.787 75.6307 207.843 84.3895 207.911 84.5671C208.014 84.8367 208.434 84.8902 210.445 84.8902C212.618 84.8902 212.877 84.8514 213.066 84.4965C213.208 84.2296 213.238 78.5514 213.157 66.885C213.042 50.1174 213.049 49.6837 213.412 50.2989C214.281 51.7693 215.31 53.3991 216.886 55.8018C217.808 57.2079 218.563 58.3951 218.563 58.4402C218.563 58.4853 219.204 59.4928 219.986 60.6792C220.769 61.8655 221.41 62.9208 221.41 63.0241C221.41 63.1274 221.485 63.2424 221.578 63.28C221.671 63.3173 222.241 64.129 222.845 65.0836C223.449 66.0382 224.01 66.9111 224.092 67.0234C224.174 67.1357 226.585 70.7652 229.45 75.089C232.314 79.4127 234.994 83.2572 235.404 83.6323C236.629 84.7527 237.174 84.9518 238.713 84.8412C240.976 84.6786 242.104 83.7012 242.557 81.5075C242.721 80.7144 242.768 75.0155 242.722 61.604C242.664 45.1702 242.618 42.7875 242.351 42.6182C241.894 42.3279 237.808 42.366 237.512 42.6633C237.326 42.85 237.267 46.9994 237.264 60.0707L237.259 77.233L236.35 75.8036C234.42 72.7728 230.728 67.0996 227.56 62.3002C225.743 59.5471 224.256 57.2093 224.256 57.1052C224.256 57.0011 224.171 56.9159 224.066 56.9159C223.962 56.9159 223.819 56.7328 223.748 56.5088C223.677 56.2848 223.492 55.9738 223.337 55.8178C223.181 55.6616 222.89 55.2542 222.689 54.9126C222.359 54.3498 218.776 48.931 218.411 48.442C218.327 48.3297 217.807 47.5486 217.256 46.7063C215.721 44.3604 214.786 43.3206 213.787 42.849C212.863 42.4126 211.589 42.3172 210.622 42.6119ZM187.189 47.5021C188.063 47.715 189.051 47.9966 189.384 48.1277C195.013 50.3395 198.916 55.1756 199.859 61.1082C201.045 68.5622 197.386 75.7044 190.72 78.9472C190.003 79.2959 189.256 79.5812 189.058 79.5812C188.861 79.5812 188.65 79.6629 188.588 79.7629C188.527 79.8628 188.132 80.0131 187.712 80.0968C186.686 80.3016 181.253 80.3095 180.255 80.108C179.068 79.8681 176.488 78.7258 175.239 77.887C173.341 76.6126 171.12 74.3188 170.255 72.7408C168.458 69.4596 167.941 67.753 167.788 64.6015C167.557 59.8497 169.312 55.3349 172.722 51.9022C176.575 48.0234 182.249 46.2978 187.189 47.5021Z" fill="white"/>
</g>
</svg>
