<svg width="392" height="119" viewBox="0 0 392 119" fill="none" xmlns="http://www.w3.org/2000/svg">
<rect width="392" height="119" rx="8" fill="white" fill-opacity="0.05"/>
<g opacity="0.6">
<path fill-rule="evenodd" clip-rule="evenodd" d="M203.906 42.6135C200.705 43.0497 197.1 44.9366 194.65 47.4587C191.382 50.8228 189.71 55.1319 189.699 60.2194C189.692 63.4265 190.15 65.6439 191.336 68.1361C193.029 71.6973 195.772 74.1306 199.81 75.6561C202.316 76.6024 206.979 76.845 209.759 76.1737C214.588 75.0078 218.5 71.4351 220.318 66.5294L220.85 65.0952H216.138H211.426L210.747 65.8509C208.918 67.8863 205.158 68.5763 202.714 67.3253C200.262 66.0697 199.157 63.5192 199.34 59.536C199.473 56.6522 200.163 54.8063 201.705 53.2071C204.274 50.5432 208.985 50.4602 211.572 53.0334L212.729 54.1847H217.351C222.507 54.1847 222.236 54.3251 221.557 52.0118C220.675 49.0077 217.878 45.7853 214.845 44.2774C211.772 42.7502 207.58 42.1125 203.906 42.6135ZM89.3491 43.346C89.2852 43.5435 89.0432 44.9323 88.811 46.4325C88.5785 47.9327 88.1665 50.5452 87.895 52.2378L87.4012 55.3157L84.3248 55.3961L81.2481 55.4768L80.7644 58.4915C80.0008 63.2502 79.7473 62.7983 83.18 62.7983C86.5956 62.7983 86.3735 62.4747 85.7125 66.4898C85.4875 67.8547 85.1035 70.2634 84.859 71.8425C84.6142 73.4217 84.3545 75.0043 84.282 75.3598L84.1497 76.0058L96.1296 76.0023C105.238 75.9997 108.445 75.907 109.51 75.615C114.418 74.269 117.058 70.9292 117.031 66.1002C117.017 63.5712 116.016 61.2137 114.384 59.8694L113.281 58.9609L114.129 58.5957C115.761 57.8923 116.923 56.7157 117.809 54.8715C118.601 53.2214 118.675 52.8465 118.553 51.0996C118.246 46.746 115.613 44.048 110.91 43.2687C108.278 42.8329 89.493 42.9001 89.3491 43.346ZM125.784 43.4895C125.702 43.766 125.37 45.7362 125.047 47.8681C124.724 50 124.287 52.8424 124.076 54.1847C123.865 55.527 123.435 58.3049 123.121 60.3578C122.806 62.4107 122.225 66.1576 121.83 68.6842C121.434 71.2109 121.035 73.8917 120.943 74.642L120.776 76.0058H135.375H149.975L150.122 75.3598C150.204 75.0043 150.498 73.2279 150.775 71.4119L151.28 68.11L141.259 68.0348C133.449 67.9759 131.263 67.8809 131.35 67.6041C131.412 67.4086 131.607 66.3121 131.786 65.167L132.109 63.0854H137.389C140.899 63.0854 142.733 62.9803 142.858 62.7725C143.013 62.5163 144.089 56.0053 144.1 55.2614C144.102 55.1431 141.692 55.0461 138.745 55.0461H133.387L133.579 53.5387C133.684 52.7098 133.84 51.7408 133.925 51.3853L134.08 50.7393H143.121H152.163L152.475 48.9448C152.828 46.9134 153.341 43.5268 153.344 43.2024C153.346 43.0841 147.179 42.9871 139.64 42.9871C126.83 42.9871 125.924 43.0198 125.784 43.4895ZM156.858 43.346C156.746 43.7029 155.587 50.8119 155.587 51.1412C155.587 51.236 158.181 51.3135 161.352 51.3135H167.116L166.953 52.1031C166.864 52.5372 166.351 55.7998 165.813 59.3529C165.275 62.906 164.71 66.5237 164.558 67.3922C164.406 68.2607 164.087 70.328 163.849 71.9861C163.611 73.6442 163.348 75.2268 163.264 75.5033C163.124 75.9682 163.466 76.0058 167.837 76.0058H172.561L173.206 71.7708C173.561 69.4414 174.085 66.0499 174.372 64.2339C175.064 59.8407 176.012 53.7273 176.207 52.3902L176.364 51.3135H182.063C187.246 51.3135 187.775 51.2682 187.913 50.8111C187.996 50.5346 188.259 49.0166 188.498 47.4374C188.737 45.8583 189.003 44.2111 189.088 43.7766L189.245 42.9871H173.107C160.444 42.9871 156.946 43.0643 156.858 43.346ZM228.296 43.6331C228.225 43.9883 227.904 46.0234 227.582 48.1552C227.261 50.2871 226.183 57.2641 225.187 63.6596C224.191 70.0552 223.375 75.4496 223.374 75.6469C223.373 75.9196 224.482 76.0058 227.989 76.0058C232.552 76.0058 232.607 75.9983 232.734 75.3598C233.09 73.5727 237.658 43.946 237.658 43.4278C237.658 43.0494 237.006 42.9871 233.042 42.9871C228.48 42.9871 228.424 42.9945 228.296 43.6331ZM242.016 43.346C241.957 43.5435 241.707 45.1261 241.459 46.8632C241.211 48.6002 240.933 50.3121 240.841 50.6675L240.674 51.3135H246.449C249.625 51.3135 252.224 51.4266 252.224 51.5648C252.224 51.7029 251.978 53.3501 251.678 55.2255C250.492 62.6252 248.878 73.0697 248.699 74.4984L248.51 76.0058H253.133H257.756L257.897 75.2162C257.975 74.7821 258.84 69.2286 259.819 62.8758L261.599 51.3247L267.345 51.2475L273.092 51.17L273.701 47.581C274.036 45.607 274.319 43.766 274.331 43.4895C274.351 43.0166 273.406 42.9871 258.237 42.9871C245.589 42.9871 242.099 43.0643 242.016 43.346ZM275.23 43.6331C275.7 44.5332 282.765 56.3416 284.772 59.5817C285.764 61.1815 286.368 62.4469 286.281 62.74C286.142 63.2077 285.249 68.9136 284.7 72.8475C284.557 73.8739 284.373 75.0043 284.292 75.3598L284.145 76.0058H289.192C291.968 76.0058 294.24 75.8958 294.24 75.7614C294.24 75.6271 294.689 72.5612 295.239 68.9484C296.233 62.4147 296.244 62.3731 297.27 61.0856C298.286 59.8108 303.876 52.9952 308.898 46.9085C310.31 45.1967 311.567 43.6138 311.69 43.3913C311.88 43.0497 311.05 42.9871 306.322 42.9871H300.73L298.408 45.7865C297.131 47.326 295.575 49.1673 294.95 49.8779C294.325 50.5885 293.426 51.6578 292.953 52.2538L292.093 53.3374L289.069 48.1624L286.046 42.9871H280.469H274.893L275.23 43.6331ZM106.94 50.7206C108.927 51.1935 109.434 53.0144 107.991 54.4939L107.172 55.3332H101.861H96.55L96.936 53.2516C97.1481 52.1065 97.3817 51.0086 97.4548 50.8111C97.6139 50.3818 105.212 50.3098 106.94 50.7206ZM105.452 63.113C106.668 63.3803 106.951 63.5724 107.331 64.3898C107.905 65.6227 107.57 66.9561 106.477 67.7936C105.749 68.3515 105.264 68.4043 100.081 68.4907C94.7596 68.5797 94.4806 68.5576 94.6237 68.06C94.7067 67.7718 94.9218 66.4697 95.1019 65.167L95.429 62.7983H99.7247C102.087 62.7983 104.665 62.9398 105.452 63.113Z" fill="white"/>
</g>
</svg>
