<svg width="392" height="119" viewBox="0 0 392 119" fill="none" xmlns="http://www.w3.org/2000/svg">
<rect width="392" height="119" rx="8" fill="white" fill-opacity="0.05"/>
<g opacity="0.6">
<path fill-rule="evenodd" clip-rule="evenodd" d="M115.846 13.5297C115.117 13.8278 114.467 14.6487 113.243 16.8136C109.488 23.457 103.027 29.8219 96.26 33.5453C95.1071 34.1795 93.9149 34.991 93.6105 35.3483C91.896 37.361 93.3205 40.4278 95.9684 40.4255C97.4103 40.4243 98.2993 39.7538 99.4338 37.8117C104.134 29.7646 109.878 24.0976 117.866 19.6258C119.478 18.7232 120.184 17.9096 120.377 16.7296C120.547 15.6923 119.884 14.3186 118.937 13.7476C118.184 13.2934 116.682 13.1875 115.846 13.5297ZM127.408 14.4488C126.373 15.0735 125.47 16.237 124.153 18.6428C122.032 22.516 118.75 26.4525 112.421 32.7132C106.049 39.0164 102.074 42.2526 98.1693 44.3179C95.4971 45.7312 94.1232 46.9777 93.7611 48.3169C93.0256 51.0382 95.3023 53.4318 98.1863 52.9688C99.7708 52.7145 100.545 51.8305 103.272 47.1615C104.941 44.3046 108.22 40.3862 112.892 35.6658C119.517 28.9716 123.904 25.3193 128.373 22.7785C129.673 22.0393 131.021 21.2346 131.369 20.9902C133.051 19.8103 133.546 17.1935 132.382 15.6332C131.215 14.0684 128.938 13.5262 127.408 14.4488ZM106.714 15.1525C106.4 15.3961 105.562 16.5758 104.85 17.774C103.163 20.6129 100.451 23.3527 97.9199 24.7734C95.1088 26.3518 94.4562 26.9669 94.4562 28.039C94.4562 28.7523 94.6056 29.0535 95.2083 29.5552C96.4531 30.5913 97.7847 30.0667 98.7689 28.1524C100.69 24.416 103.785 21.3183 107.655 19.2583C109.914 18.0555 110.436 16.6866 109.128 15.3928C108.328 14.6012 107.525 14.5213 106.714 15.1525ZM138.286 18.1897C137.015 18.7608 135.953 20.0319 134.422 22.8154C128.609 33.3786 113.015 48.7854 102.375 54.4761C98.5309 56.5321 97.0024 58.4945 97.4456 60.8043C98.032 63.86 101.421 65.5503 104.156 64.1513C105.199 63.618 106.361 62.1421 107.862 59.4453C111.794 52.3792 119.796 43.3458 129.082 35.4902C133.396 31.8402 135.828 30.1249 139.796 27.9336C142.7 26.33 143.778 25.4423 144.358 24.1801C146.099 20.3894 142.122 16.4662 138.286 18.1897ZM142.758 29.8869C141.826 30.4494 141.144 31.3554 139.694 33.9565C137.406 38.0637 133.366 42.8413 126.806 49.1964C120.932 54.8866 117.315 57.7415 113.067 60.042C112.059 60.5879 110.874 61.3701 110.434 61.7802C108.395 63.6823 108.894 66.961 111.388 68.0523C113.719 69.0721 115.796 67.927 117.513 64.6762C119.727 60.4836 123.548 55.808 129.781 49.6612C135.941 43.5875 140.319 40.0542 144.428 37.8405C147.586 36.1394 148.581 34.9772 148.581 32.9872C148.581 31.9078 147.851 30.7314 146.708 29.9699C145.68 29.2847 143.822 29.2456 142.758 29.8869ZM144.895 42.2713C143.891 42.7251 143.729 42.9357 141.449 46.7388C137.888 52.6773 131.487 58.8368 125.536 62.0514C122.646 63.6126 121.877 64.4484 121.875 66.0265C121.874 68.3738 124.297 69.889 126.363 68.8323C127.192 68.4082 127.823 67.5845 129.317 64.9745C132.544 59.3366 139.641 52.2934 145.035 49.376C148.446 47.5311 149.287 46.6722 149.289 45.0321C149.291 42.7117 147.044 41.2994 144.895 42.2713ZM144.625 52.7068C144.342 52.9032 143.506 54.0866 142.768 55.3369C141.043 58.2579 138.161 61.1263 135.451 62.619C134.418 63.1881 133.339 63.8588 133.053 64.1097C132.341 64.7341 132.161 65.7193 132.603 66.5657C133.013 67.35 133.396 67.5462 134.516 67.5462C135.441 67.5462 136.029 66.9472 137.307 64.7C139.098 61.5522 141.836 58.884 145.087 57.1168C147.161 55.989 147.683 55.4246 147.683 54.305C147.683 52.7355 145.917 51.8123 144.625 52.7068ZM292.364 69.1923C290.548 69.5477 288.998 70.3734 287.92 71.5594C286.564 73.0505 286.042 74.587 286.191 76.6451C286.386 79.3416 287.601 81.1065 290.1 82.3229C291.6 83.0528 291.82 83.0933 294.287 83.0933C296.246 83.0933 297.169 82.9871 298.014 82.6647L299.137 82.2364V80.1515C299.137 79.005 299.1 78.0668 299.055 78.0668C299.011 78.0668 298.346 78.2811 297.578 78.543C295.366 79.2977 293.75 79.3828 292.448 78.813C289.838 77.6709 289.737 74.6434 292.27 73.5132C293.574 72.9315 296 73.1139 297.8 73.9287L299.137 74.5339V72.3578V70.1815L298.132 69.8079C295.914 68.983 294.309 68.8117 292.364 69.1923ZM151.931 70.4101C151.788 71.0851 151.136 74.0572 150.481 77.0147C149.827 79.9721 149.291 82.5235 149.291 82.6841C149.29 82.8962 149.868 82.9764 151.397 82.9764H153.505L153.741 81.8659C153.872 81.255 154.323 78.9668 154.745 76.7809C155.324 73.7772 155.557 72.9493 155.696 73.3909C155.798 73.7124 156.156 75.8691 156.492 78.1837C156.828 80.4982 157.15 82.5235 157.207 82.6841C157.285 82.9025 158.33 82.9764 161.344 82.9764C164.366 82.9764 165.398 82.9032 165.463 82.6841C165.511 82.5235 165.835 80.4982 166.185 78.1837C166.534 75.8691 166.898 73.7164 166.994 73.3996C167.121 72.9778 167.373 73.8854 167.935 76.7896C168.356 78.9708 168.81 81.255 168.942 81.8659L169.182 82.9764H171.408C172.632 82.9764 173.633 82.8976 173.633 82.801C173.632 82.7045 173.256 80.8898 172.797 78.7681C171.827 74.28 170.798 69.3894 170.798 69.2673C170.798 69.2208 169.169 69.1827 167.18 69.1827H163.562L162.663 73.917C162.168 76.5207 161.688 78.9103 161.596 79.2271C161.418 79.8396 161.363 79.6072 160.028 72.5142L159.401 69.1827H155.796H152.191L151.931 70.4101ZM175.997 76.0756V82.9764H181.906H187.815V81.2229V79.4695H183.915H180.015V78.6512V77.833H183.797H187.579V76.0795V74.3261H183.797H180.015V73.6306V72.935L183.856 72.8708L187.697 72.8065V71.053V69.2996L181.847 69.2372L175.997 69.1745V76.0756ZM188.997 71.1699V73.1571H191.237H193.478L193.542 78.0083L193.606 82.8595L195.674 82.927L197.742 82.9946V78.0759V73.1571H199.987H202.232V71.1699V69.1827H195.615H188.997V71.1699ZM206.252 69.7087C205.64 71.143 201.287 82.5983 201.287 82.7739C201.287 82.8852 202.223 82.9764 203.367 82.9764H205.448L205.873 81.8074L206.298 80.6385H209.328H212.358L212.75 81.8074L213.143 82.9764H215.369C216.593 82.9764 217.595 82.9058 217.595 82.8193C217.595 82.733 217.342 82.023 217.033 81.2412C216.724 80.4596 215.538 77.4266 214.397 74.5014L212.323 69.1827H209.4C206.592 69.1827 206.468 69.2035 206.252 69.7087ZM226.104 70.001V70.8192L224.154 70.8216C222.611 70.8232 221.957 70.9375 221.022 71.3684C217.916 72.7992 217.156 77.2712 219.573 79.9013C220.532 80.9457 221.825 81.4165 224.036 81.5271L226.104 81.6309V82.3035V82.9764H228.231H230.358V82.3035V81.6309L232.426 81.5271C236.317 81.3323 238.231 79.5357 238.231 76.0795C238.231 74.4633 237.801 73.3208 236.837 72.3756C235.708 71.2688 234.876 70.9649 232.604 70.8293L230.476 70.7023L230.402 69.9425L230.328 69.1827H228.216H226.104V70.001ZM240.285 76.0618V82.9764H242.294H244.303V81.3398V79.7033H246.182C249.731 79.7033 251.539 78.907 252.582 76.8845C253.55 75.009 253.071 71.9987 251.594 70.6713C250.196 69.4151 249.68 69.3045 244.835 69.2234L240.285 69.1469V76.0618ZM258.589 69.9975C258.399 70.4456 257.489 72.7866 256.566 75.1993C255.642 77.6123 254.633 80.2464 254.322 81.053C254.011 81.8595 253.757 82.6222 253.757 82.7479C253.757 82.8793 254.641 82.9764 255.837 82.9764H257.918L258.343 81.8074L258.768 80.6385H261.761H264.755L265.174 81.8074L265.594 82.9764H267.83C269.059 82.9764 270.065 82.9399 270.065 82.8952C270.065 82.8188 269.148 80.4215 266.966 74.7937C266.443 73.4435 265.743 71.6286 265.413 70.7608L264.811 69.1827H261.872H258.933L258.589 69.9975ZM271.72 76.0795V82.9946L273.788 82.927L275.856 82.8595L275.919 80.6385C276.033 76.6483 275.775 76.7082 278.532 80.0339L280.972 82.9764H283.555C284.975 82.9764 286.137 82.913 286.137 82.8354C286.137 82.7578 284.872 81.1469 283.325 79.2558L280.513 75.8175L281.361 74.7797C281.826 74.2087 282.985 72.824 283.936 71.7023C284.887 70.5805 285.665 69.5549 285.665 69.4228C285.665 69.2748 284.774 69.1827 283.344 69.1827H281.023L278.56 72.2054C277.206 73.8676 276.063 75.1935 276.021 75.1516C275.979 75.1098 275.924 73.776 275.9 72.1876L275.856 69.2996L273.788 69.232L271.72 69.1645V76.0795ZM210.255 74.8334C210.652 75.9481 210.977 76.9214 210.977 76.996C210.977 77.0706 210.233 77.1316 209.323 77.1316C208.413 77.1316 207.668 77.0528 207.667 76.9562C207.663 76.4632 209.225 72.499 209.367 72.6409C209.458 72.7319 209.858 73.7185 210.255 74.8334ZM262.62 74.6768C262.987 75.7055 263.334 76.6787 263.392 76.8394C263.471 77.0556 263.061 77.1316 261.818 77.1316C260.894 77.1316 260.137 77.0528 260.135 76.9562C260.127 76.4961 261.677 72.4848 261.806 72.6349C261.887 72.7293 262.253 73.6481 262.62 74.6768ZM248.321 73.3909C248.581 73.6481 248.794 74.1215 248.794 74.443C248.794 75.5477 248.051 75.9626 246.076 75.9626H244.303V74.443V72.9234H246.076C247.533 72.9234 247.932 73.0066 248.321 73.3909ZM226.104 76.0795V77.833H224.942C223.435 77.833 223.089 77.6861 222.658 76.8627C221.966 75.5374 223.123 74.3364 225.099 74.3296L226.104 74.3261V76.0795ZM233.427 74.9073C234.078 75.4904 234.058 76.7377 233.386 77.3563C233 77.7119 232.55 77.833 231.614 77.833H230.358V76.0505V74.2681L231.655 74.3745C232.453 74.44 233.134 74.6448 233.427 74.9073ZM150.108 91.9177C150.043 92.0823 150.02 95.2141 150.054 98.8772L150.117 105.537H152.126H154.135L154.199 100.569L154.263 95.6011H157.931H161.599L161.53 93.6723L161.462 91.7435L155.843 91.6809C151.447 91.6318 150.198 91.6832 150.108 91.9177ZM162.998 98.6242V105.672L165.066 105.605L167.134 105.537V103.901V102.264L169.734 102.147C172.891 102.005 174.045 101.496 175.124 99.7693C176.37 97.7739 175.986 94.6516 174.304 93.099C173.082 91.9719 172.144 91.7772 167.43 91.6736L162.998 91.5761V98.6242ZM176.235 91.9104C176.236 92.0757 176.794 93.0527 177.476 94.0814C180.121 98.0718 181.67 100.549 181.67 100.786C181.67 101.058 180.185 103.572 179.501 104.458C178.663 105.543 178.869 105.678 181.253 105.605L183.435 105.537L186.686 100.394C188.474 97.5649 190.41 94.5198 190.989 93.6267C191.567 92.7336 191.987 91.9182 191.923 91.8148C191.776 91.5796 188.022 91.5714 187.688 91.8055C187.553 91.8999 186.756 93.0558 185.916 94.3737C185.076 95.6915 184.335 96.7681 184.27 96.7658C184.205 96.7635 183.407 95.6326 182.497 94.2526L180.843 91.7435L178.538 91.6766C176.782 91.6257 176.234 91.6813 176.235 91.9104ZM192.887 91.9182C192.823 92.0825 192.799 95.2141 192.834 98.8772L192.897 105.537H194.906H196.915L196.978 100.569L197.042 95.6011H199.633H202.223L202.287 100.569L202.351 105.537H204.36H206.369L206.321 98.6403L206.273 91.7435L199.638 91.6813C194.423 91.6327 192.978 91.6832 192.887 91.9182ZM209.575 91.9588C209.363 92.2109 209.31 94.0031 209.366 98.9176L209.441 105.537H211.45H213.459L213.523 100.569L213.587 95.6011H216.177H218.768L218.831 100.569L218.895 105.537H220.904H222.913V98.6403V91.7435L216.386 91.6813C210.915 91.6294 209.814 91.6743 209.575 91.9588ZM170.81 95.724C171.734 96.1968 171.836 97.218 171.039 98.0264C170.473 98.602 167.55 98.8713 167.221 98.3783C167.016 98.0697 166.989 95.9078 167.186 95.5426C167.359 95.2214 170.095 95.3582 170.81 95.724Z" fill="white"/>
</g>
</svg>
