<svg width="392" height="119" viewBox="0 0 392 119" fill="none" xmlns="http://www.w3.org/2000/svg">
<rect width="392" height="119" rx="8" fill="white" fill-opacity="0.05"/>
<g opacity="0.4">
<path fill-rule="evenodd" clip-rule="evenodd" d="M85.7575 43.3218V50.0218L84.4303 48.7705C82.1581 46.6284 79.8754 45.8195 76.1595 45.8396C73.5302 45.8538 71.8404 46.2502 69.5216 47.3968C64.2563 50.0002 61 55.5789 61 61.9958C61 68.4126 64.2563 73.9913 69.5216 76.5948C71.8404 77.7413 73.5302 78.1377 76.1595 78.152C79.8754 78.1721 82.1581 77.3631 84.4303 75.221L85.7575 73.9698V75.684V77.3982H89.7043H93.6512V57.01V36.6218H89.7043H85.7575V43.3218ZM203.983 41.6076V46.5933H201.382H198.781V49.4423V52.2914H201.375H203.969L204.021 61.9513C204.073 71.5423 204.076 71.6183 204.483 72.6178C205.28 74.5745 206.843 76.1235 208.8 76.8954C209.73 77.2623 210.167 77.301 214.075 77.361L218.336 77.4265V74.0291V70.6318L215.958 70.6311C213.251 70.6304 212.707 70.4434 212.175 69.3313C211.904 68.7645 211.878 67.8747 211.92 60.5406L211.967 52.3804L214.882 52.3314L217.797 52.2824V49.4379V46.5933H214.837H211.877V41.6076V36.6218H207.93H203.983V41.6076ZM110.784 45.8943C103.871 46.8054 98.192 52.0232 96.805 58.7387C96.4421 60.4961 96.4421 63.4954 96.805 65.2529C98.0878 71.463 102.947 76.3327 109.396 77.8708C111.331 78.3323 114.673 78.252 116.842 77.6917C118.808 77.184 121.068 76.1311 122.507 75.0528C124.631 73.4611 126.671 70.9717 127.648 68.7796L128.092 67.7828H123.878C121.358 67.7828 119.664 67.8503 119.664 67.9507C119.664 68.0431 119.224 68.591 118.685 69.1683C116.97 71.0077 114.859 71.8218 112.24 71.6543C108.484 71.4141 106.019 69.2333 104.695 64.9783L104.57 64.5777H116.513H128.455L128.454 62.7525C128.451 54.1062 123.763 47.6261 116.438 46.142C114.799 45.8097 112.266 45.6988 110.784 45.8943ZM146.934 45.8672C144.308 46.2347 142.264 47.1831 140.545 48.8314L139.399 49.9308V48.2621V46.5933H135.452H131.505V66.9815V87.3697H135.452H139.399V80.7152V74.0608L140.545 75.1601C142.716 77.2421 145.247 78.1722 148.728 78.1674C154.873 78.1589 159.912 74.942 162.527 69.3576C163.692 66.871 164.059 65.108 164.059 61.9958C164.059 59.7768 163.988 59.0536 163.641 57.7223C162.366 52.8296 159.132 48.8809 154.867 47.0091C152.757 46.0828 149.126 45.5602 146.934 45.8672ZM180.841 45.8781C179.072 46.0989 177.497 46.5504 175.876 47.3022C174 48.1717 172.977 48.8693 171.447 50.3218C168.147 53.4536 166.432 57.4461 166.432 61.9958C166.432 66.5455 168.147 70.538 171.447 73.6698C172.979 75.1242 173.998 75.8181 175.898 76.7018C180.158 78.6833 185.29 78.6833 189.55 76.7018C193.822 74.715 196.881 71.2497 198.297 66.7926C200.431 60.0773 197.795 52.5957 191.87 48.5495C188.907 46.5262 184.398 45.4342 180.841 45.8781ZM323.42 46.5973C321.258 47.1393 319.403 48.8595 318.778 50.9019C318.024 53.3636 318.708 56.1706 320.44 57.7235C322.649 59.7039 326.189 59.9785 328.46 58.3455C329.832 57.3587 331 55.0287 331 53.2764V52.4694H327.591H324.183V53.5378V54.6062H326.246C327.381 54.6062 328.309 54.6592 328.309 54.724C328.309 54.7889 328.104 55.1897 327.853 55.6147C327.259 56.6211 326.328 57.099 324.964 57.099C322.482 57.099 320.748 55.0711 321.034 52.5008C321.407 49.1402 324.826 47.6161 327.446 49.6425C328.033 50.0962 328.253 50.1546 329.375 50.1546C330.071 50.1546 330.641 50.0866 330.641 50.0032C330.641 49.7306 329.641 48.4758 328.932 47.8587C328.55 47.5262 327.884 47.0989 327.451 46.9089C326.544 46.5105 324.42 46.3464 323.42 46.5973ZM233.047 53.0168V59.262L236.679 59.2045C240.076 59.1505 240.368 59.1194 241.176 58.7246C242.243 58.203 242.887 57.2864 243.03 56.0834C243.157 55.0237 242.894 54.1176 242.266 53.4448L241.815 52.9612L242.176 52.5793C243.765 50.9012 243.176 48.091 241.03 47.1079C240.408 46.823 239.827 46.7787 236.679 46.7753L233.047 46.7714V53.0168ZM245.425 53.0036V59.2358H246.681H247.937V56.832V54.4281H248.899H249.86L251.704 56.832L253.548 59.2358H255.048C255.873 59.2358 256.547 59.1756 256.546 59.1023C256.545 59.0289 255.744 57.9327 254.768 56.6667L252.992 54.3647L253.835 53.9767C255.869 53.0417 256.592 50.7675 255.51 48.7121C255.106 47.9438 254.829 47.6685 254.055 47.2671L253.099 46.7714H249.262H245.425V53.0036ZM262.323 47.0754C262.01 47.676 257.086 59.0132 257.086 59.1323C257.086 59.1979 257.662 59.2278 258.366 59.1991L259.646 59.1468L260.238 57.8113L260.83 56.4758L263.636 56.4267L266.441 56.3775L267.095 57.8067L267.749 59.2358H269.068C270.25 59.2358 270.376 59.203 270.285 58.9194C270.229 58.7452 269.025 55.9609 267.608 52.7317L265.033 46.8604L263.761 46.8083C262.687 46.7643 262.463 46.8058 262.323 47.0754ZM271.797 53.0036V59.2358H273.05H274.303L274.351 54.9424L274.399 50.6491L277.449 54.9395L280.498 59.2299L281.889 59.2328L283.279 59.2358V53.0036V46.7714H282.023H280.767V50.9664C280.767 53.5025 280.702 55.1209 280.601 55.0592C280.509 55.0031 279.123 53.1152 277.521 50.8642L274.607 46.7714H273.202H271.797V53.0036ZM286.15 53.0097V59.2762L289.244 59.1961C293.062 59.0973 293.911 58.8391 295.488 57.2969C296.891 55.9253 297.334 54.7436 297.236 52.6331C297.117 50.0752 296 48.3975 293.706 47.3296C292.752 46.8855 292.522 46.8572 289.424 46.8019L286.15 46.7431V53.0097ZM299.425 53.0036V59.2358H300.681H301.937V53.0036V46.7714H300.681H299.425V53.0036ZM304.807 53.0036V59.2358H306.06H307.312L307.361 54.9196L307.409 50.6031L310.463 54.875L313.517 59.1468L314.903 59.1988L316.289 59.2508V53.0111V46.7714H315.033H313.777V51.0679V55.3644L310.714 51.0679L307.651 46.7714H306.229H304.807V53.0036ZM240.168 49.5194C240.516 49.921 240.59 50.156 240.505 50.5843C240.309 51.5634 239.845 51.7488 237.576 51.7532L235.558 51.7572V50.4514C235.558 49.7331 235.619 49.0844 235.693 49.0098C235.767 48.935 236.703 48.9034 237.774 48.9391C239.664 49.0022 239.735 49.0193 240.168 49.5194ZM252.731 49.2641C253.619 49.8378 253.667 51.1035 252.826 51.76C252.43 52.0691 252.096 52.1133 250.155 52.1133H247.937V50.4924V48.8715L250.135 48.9391C251.649 48.9856 252.456 49.0868 252.731 49.2641ZM292.443 49.3911C293.99 50.0702 294.868 51.5547 294.724 53.2461C294.516 55.6662 292.948 56.8969 290.051 56.9132L288.661 56.921V52.8895V48.8579L290.156 48.9505C291.064 49.0068 291.962 49.1795 292.443 49.3911ZM264.637 52.2545L265.474 54.161L263.768 54.2123C262.831 54.2404 262.027 54.2276 261.983 54.1836C261.939 54.1398 262.292 53.223 262.769 52.1462C263.245 51.0695 263.672 50.2244 263.717 50.2682C263.762 50.3122 264.176 51.2061 264.637 52.2545ZM79.3887 52.5333C82.142 53.2634 84.1744 55.288 85.1798 58.302C85.5774 59.4942 85.6401 59.9945 85.6434 61.9958C85.6466 64.0656 85.5946 64.4614 85.1518 65.7351C84.5501 67.4664 83.8684 68.5576 82.7258 69.6185C79.6512 72.4728 74.643 72.4053 71.6807 69.4694C67.3576 65.1849 68.203 56.2196 73.2042 53.3106C74.8387 52.3599 77.4815 52.0278 79.3887 52.5333ZM114.91 52.5333C117.508 53.2223 119.507 55.1161 120.535 57.8626C120.747 58.4294 120.92 58.9301 120.92 58.9755C120.92 59.0207 117.279 59.0577 112.828 59.0577H104.735L104.85 58.5681C104.913 58.2987 105.257 57.4813 105.615 56.7515C106.655 54.6268 108.4 53.1421 110.519 52.5768C111.763 52.2452 113.749 52.2255 114.91 52.5333ZM149.921 52.5398C152.648 53.2605 154.67 55.2719 155.668 58.2565C156.085 59.5043 156.144 59.968 156.144 61.9958C156.145 64.0036 156.084 64.4935 155.685 65.6895C154.421 69.478 151.513 71.7007 147.831 71.6938C144.595 71.6876 142.001 70.0862 140.578 67.2157C138.075 62.1674 139.748 55.2734 143.981 53.1893C145.801 52.2937 148.056 52.0471 149.921 52.5398ZM184.884 52.5659C187.76 53.3047 189.947 55.6719 190.793 58.9616C191.204 60.5567 191.156 63.6421 190.695 65.293C189.574 69.3077 186.598 71.7002 182.724 71.7002C177.763 71.7002 174.33 67.731 174.33 61.9958C174.33 59.9411 174.663 58.4368 175.494 56.7429C176.141 55.4222 177.69 53.7776 178.831 53.2002C180.595 52.3067 182.924 52.0625 184.884 52.5659ZM239.679 54.2997C240.39 54.6571 240.691 55.3382 240.422 55.9831C240.102 56.749 239.554 56.921 237.433 56.921H235.558V55.4965V54.072L237.397 54.0747C238.507 54.0763 239.412 54.1655 239.679 54.2997ZM250.256 64.8097C248.397 65.3334 247.005 66.5225 246.161 68.3088C245.756 69.1667 245.694 69.5307 245.694 71.0807C245.694 72.7351 245.737 72.9509 246.279 74.044C247.322 76.1464 249.219 77.3849 251.631 77.5385C253.595 77.6635 254.742 77.2433 256.123 75.8922C257.375 74.6662 257.932 73.4559 258.109 71.5743L258.215 70.4457L254.825 70.4942L251.435 70.5428L251.382 71.6557L251.328 72.7686H253.383C255.739 72.7686 255.796 72.8327 254.644 74.169C253.898 75.0339 253.08 75.3257 251.684 75.2255C247.768 74.9443 246.761 69.1062 250.325 67.3435C251.479 66.7727 252.722 66.7465 253.813 67.2704C254.245 67.4782 254.694 67.7987 254.809 67.9826C254.986 68.2632 255.244 68.317 256.416 68.317H257.811L257.464 67.6413C257.007 66.7533 255.65 65.5264 254.628 65.0777C253.601 64.6267 251.388 64.491 250.256 64.8097ZM289.608 64.9383C288.784 65.2052 288.215 65.5536 287.437 66.2686C283.2 70.1626 285.583 77.1756 291.267 77.5376C293.575 77.6847 295.674 76.739 296.857 75.0195C297.184 74.5435 297.452 74.0829 297.452 73.9956C297.452 73.9084 296.859 73.837 296.134 73.837C295.013 73.837 294.765 73.8939 294.475 74.2182C293.573 75.2237 291.409 75.57 290.117 74.9158C288.703 74.1997 287.876 72.7834 287.876 71.077C287.876 67.486 291.652 65.5971 294.338 67.8448C294.833 68.2588 295.059 68.317 296.177 68.317C296.878 68.317 297.451 68.2568 297.451 68.1835C297.45 67.9094 296.744 66.9142 296.093 66.2679C294.557 64.7435 291.894 64.1975 289.608 64.9383ZM237.079 64.94C236.706 65.539 231.674 77.223 231.755 77.3029C231.956 77.5029 234.082 77.3945 234.251 77.1756C234.346 77.0533 234.657 76.4103 234.943 75.7469L235.462 74.5408L238.303 74.5894L241.143 74.6382L241.724 75.9737L242.304 77.3092L243.596 77.3615C244.56 77.4005 244.887 77.3555 244.886 77.1835C244.886 77.0567 243.69 74.2287 242.229 70.8989L239.573 64.8448L238.388 64.7924C237.652 64.76 237.157 64.8158 237.079 64.94ZM260.316 71.077V77.4044L264.756 77.3567L269.196 77.3092L269.249 76.1963L269.303 75.0834H266.065H262.827V73.6589V72.2344H265.967H269.106V71.077V69.9196H265.967H262.827V68.4951V67.0706H266.065H269.303L269.249 65.9577L269.196 64.8448L264.756 64.7972L260.316 64.7495V71.077ZM271.7 64.9796C271.652 65.1026 271.634 67.927 271.66 71.2563L271.708 77.3092H272.963H274.219L274.309 73.1284L274.399 68.9477L277.378 73.1284L280.357 77.3092L281.729 77.3612L283.1 77.4132V71.0845V64.7558H281.847H280.594L280.546 69.0492L280.498 73.3425L277.449 69.0521L274.399 64.7616L273.092 64.7588C272.207 64.7566 271.758 64.8279 271.7 64.9796ZM298.169 64.8626C298.169 64.9297 299.259 66.7661 300.591 68.9434L303.013 72.9023V75.1503V77.3982H304.269H305.525L305.526 75.2169L305.526 73.0357L307.947 69.0293C309.278 66.8257 310.368 64.9627 310.368 64.8893C310.368 64.8159 309.775 64.7558 309.05 64.7558H307.73L306.056 67.518C305.135 69.0373 304.315 70.2144 304.234 70.1338C304.152 70.0531 303.375 68.8302 302.506 67.416L300.926 64.8448L299.548 64.7928C298.79 64.7641 298.169 64.7956 298.169 64.8626ZM238.966 69.7415C239.284 70.476 239.657 71.3375 239.796 71.6557L240.048 72.2344H238.262H236.476L237.109 70.8544C237.458 70.0955 237.858 69.2016 237.999 68.8683C238.139 68.5351 238.284 68.2947 238.321 68.3341C238.358 68.3736 238.648 69.007 238.966 69.7415Z" fill="white"/>
</g>
</svg>
