<svg width="392" height="119" viewBox="0 0 392 119" fill="none" xmlns="http://www.w3.org/2000/svg">
<rect width="392" height="119" rx="8" fill="white" fill-opacity="0.05"/>
<g opacity="0.6">
<path fill-rule="evenodd" clip-rule="evenodd" d="M196.307 28.5527C185.348 29.5705 176.119 31.5379 167.485 34.6967C155.87 38.946 146.534 44.6133 138.682 52.1813L136.186 54.5874L135.735 53.9624C134.727 52.5649 131.783 49.8016 130.196 48.7639C126.958 46.6465 123.021 45.044 119.368 44.3564C116.724 43.8587 113.136 43.8985 110.815 44.4517C109.082 44.8646 107.436 45.5198 107.205 45.8892C107.007 46.2046 108.497 48.9839 109.758 50.6521C111.005 52.3034 113.028 54.1953 114.914 55.4752C116.052 56.2475 119.844 58.1467 120.643 58.3444C121.368 58.524 121.38 58.7734 120.671 58.9488C119.65 59.2016 116.22 60.9181 114.599 61.9879C112.711 63.2334 110.468 65.3362 109.196 67.0521C108.141 68.4763 106.977 70.8286 107.132 71.2262C107.272 71.5851 108.769 72.276 110.357 72.7137C112.275 73.2427 116.666 73.3539 119.106 72.9354C125.933 71.7643 133.318 67.4652 135.858 63.1832C136.113 62.7542 136.409 62.4027 136.516 62.4019C136.623 62.4008 137.906 63.5525 139.367 64.9607C142.493 67.9735 144.694 69.8128 148.109 72.2668C156.993 78.6498 168.381 83.9054 179.727 86.8582C197.227 91.4127 217.146 91.9367 235.066 88.3139C247.646 85.7706 259.557 80.929 269.488 74.3217C273.263 71.8101 275.456 70.0984 279.375 66.6031C280.951 65.197 284.707 61.1827 284.877 60.7227C285.031 60.3066 281.693 56.2979 278.899 53.542C268.878 43.6593 255.634 36.4178 239.713 32.1172C234.539 30.7197 227.973 29.5555 220.598 28.7284C216.408 28.2584 200.7 28.1448 196.307 28.5527ZM176.341 37.896C176.757 38.0279 177.19 38.3537 177.341 38.6494C177.62 39.1938 177.705 41.5251 177.476 42.3676C177.35 42.8324 177.284 42.8491 176.159 42.7014C172.849 42.267 172.148 42.9181 172.065 46.5042L172.017 48.5455L175.185 48.6497L178.354 48.7539V50.3521C178.354 51.7675 178.293 52.0148 177.826 52.5144C176.994 53.403 176.146 53.6499 173.925 53.6499H171.911V62.7127C171.911 73.5827 172.212 72.6089 168.859 72.6089C167.633 72.6089 166.412 72.5014 166.113 72.367L165.575 72.1254V62.8875V53.6499L164.466 53.6253C163.856 53.6116 163.276 53.6149 163.177 53.6324C163.078 53.6499 162.819 53.6089 162.603 53.5409C161.59 53.2241 161.485 49.2243 162.473 48.6051C162.611 48.5185 163.365 48.4464 164.149 48.4445L165.575 48.4414L165.576 47.2434C165.579 45.3123 166.119 42.3112 166.659 41.2278C167.3 39.9415 168.536 38.7164 169.708 38.205C171.459 37.4408 174.464 37.3008 176.341 37.896ZM186.218 37.825C186.85 38.2204 187.333 39.4771 187.319 40.6848C187.29 43.0701 186.401 43.8579 183.74 43.8579C180.926 43.8579 180.002 42.9012 180.208 40.2007C180.384 37.9135 181.162 37.3431 183.951 37.4564C185.017 37.4999 185.938 37.6495 186.218 37.825ZM252.1 47.7251C254.294 48.172 255.786 48.9191 257.232 50.2954C259.237 52.2036 260.135 54.5833 260.348 58.5551C260.669 64.5397 258.406 69.1442 254.204 71.0547C252.024 72.0458 250.542 72.2708 247.038 72.1435L244.043 72.0345L243.635 72.8946C243.398 73.3923 242.215 74.7355 240.828 76.0818C239.51 77.3616 238.505 78.4452 238.597 78.4896C238.688 78.5341 240.046 78.596 241.614 78.6273C243.183 78.6583 244.544 78.7587 244.641 78.8504C244.946 79.1404 245.051 80.6561 244.799 81.1209C244.561 81.5594 244.46 81.5676 239.22 81.5676C235.351 81.5676 233.814 81.4988 233.63 81.3176C233.49 81.1796 233.377 80.5167 233.377 79.8392V78.6108L235.991 75.9745C237.428 74.5244 238.774 73.01 238.981 72.6089C239.498 71.6078 239.504 70.2697 238.994 69.714C238.413 69.0811 236.784 69.1211 235.295 69.8051C233.897 70.4468 233.693 70.3095 233.693 68.7261C233.693 67.7267 233.771 67.5071 234.273 67.0808C234.592 66.8104 235.376 66.4264 236.016 66.2274C236.655 66.0287 237.178 65.7658 237.176 65.6435C237.175 65.5212 237.038 64.9174 236.871 64.3017C236.398 62.5475 236.268 60.1783 236.528 58.069C236.948 54.6674 237.921 52.4536 239.796 50.6329C240.999 49.4645 241.711 49.0193 243.817 48.1172C245.53 47.3832 249.5 47.1953 252.1 47.7251ZM203.286 48.5545C205.227 49.0499 206.319 49.6398 206.487 50.2833C206.771 51.3713 206.66 53.6326 206.304 53.9828C206.003 54.2803 205.91 54.2814 205.344 53.9928C203.046 52.8207 200.014 52.2973 198.458 52.8042C196.264 53.5182 196.284 56.0683 198.493 57.1729C198.917 57.3852 200.263 57.9578 201.482 58.4453C205.231 59.943 207.009 61.4689 207.629 63.7217C207.977 64.9822 207.757 67.7556 207.23 68.7646C205.711 71.6716 202.564 73.2285 198.208 73.2273C195.093 73.2264 191.502 72.2202 190.944 71.1922C190.57 70.5022 190.437 68.609 190.696 67.6608C190.889 66.9539 191.033 66.7754 191.41 66.7754C191.671 66.7754 192.074 66.9068 192.306 67.0675C193.13 67.6371 195.481 68.4596 196.821 68.6475C200.187 69.1196 202.477 67.4004 201.413 65.1999C200.988 64.3209 200.553 64.0447 197.859 62.9436C194.808 61.6967 193.975 61.2468 192.889 60.2593C191.206 58.7286 190.557 56.6846 190.958 54.1708C191.389 51.465 193.162 49.6627 196.413 48.626C197.924 48.1441 201.532 48.1066 203.286 48.5545ZM186.208 49.1027L186.697 49.5558V60.7549C186.697 73.3252 186.812 72.4727 185.08 72.7287C183.85 72.9108 181.025 72.6856 180.646 72.3752C180.412 72.1839 180.363 70.2711 180.378 61.906C180.388 56.2765 180.465 51.1194 180.551 50.4456C180.761 48.7837 180.989 48.6497 183.608 48.6497C185.485 48.6497 185.773 48.6999 186.208 49.1027ZM216.131 49.4658C216.695 49.557 217.247 49.7625 217.358 49.9221C217.475 50.0906 217.533 51.9161 217.495 54.2749L217.429 58.3376L220.921 58.3944L224.412 58.4513L224.472 54.2276C224.506 51.82 224.621 49.9143 224.74 49.7956C225.046 49.4889 229.093 49.3997 230.038 49.6789L230.842 49.9164V61.2627C230.842 72.3312 230.832 72.6191 230.42 73.0256C230.048 73.3917 229.716 73.4423 227.684 73.4423C226.388 73.4423 225.135 73.3367 224.836 73.2023L224.302 72.9623L224.245 68.4052L224.189 63.8482L220.809 63.8236L217.429 63.799L217.373 68.3975L217.316 72.9958L216.558 73.2425C215.558 73.5681 211.794 73.4267 211.329 73.0458C211.022 72.7945 210.988 71.6235 210.99 61.4894C210.992 55.2868 211.075 50.0858 211.174 49.931C211.542 49.3593 214.032 49.1256 216.131 49.4658ZM247.297 52.1919C245.388 52.5147 244.526 53.2568 243.423 55.525C243 56.3956 242.837 57.1213 242.744 58.5459C242.5 62.3344 243.439 65.4678 245.175 66.6477C247.243 68.054 250.565 67.7542 252.205 66.0133C253.629 64.5013 254.173 62.4325 254.025 59.0909C253.908 56.4492 253.522 55.105 252.505 53.7891C251.492 52.4792 249.397 51.8369 247.297 52.1919Z" fill="white"/>
</g>
</svg>
