<svg width="392" height="119" viewBox="0 0 392 119" fill="none" xmlns="http://www.w3.org/2000/svg">
<rect width="392" height="119" rx="8" fill="white" fill-opacity="0.05"/>
<g opacity="0.6">
<path fill-rule="evenodd" clip-rule="evenodd" d="M218.972 25.1322C208.436 26.469 199.763 33.6282 196.939 43.3187C196.672 44.2323 196.381 45.4998 196.29 46.1353C195.963 48.4399 195.968 48.4286 195.758 47.2444C195.348 44.9282 194.192 42.2946 192.756 40.4018C191.71 39.0245 189.48 37.0049 188.014 36.1065C186.532 35.199 184.862 34.5058 182.843 33.9606L181.418 33.5759L170.969 33.53L160.519 33.484L160.622 34.6098C160.852 37.1433 161.565 39.4519 162.75 41.495C165.424 46.1053 169.985 49.1022 175.635 49.9607C176.241 50.0527 185.367 50.1057 200.773 50.1063C227.234 50.1076 226.493 50.1291 229.974 49.258C239.266 46.9324 246.531 39.8286 248.825 30.8246C249.151 29.5425 249.571 26.6128 249.571 25.6173V24.9747L234.747 24.9931C226.594 25.0032 219.495 25.0657 218.972 25.1322ZM240.494 32.1429C240.494 32.3847 239.202 34.4977 238.449 35.4873C236.153 38.5037 233.004 40.7322 229.316 41.9489C226.37 42.9208 226.409 42.9181 215.202 42.9846C209.132 43.0208 205.063 42.992 205.063 42.913C205.063 42.7066 206.106 40.8882 206.812 39.8627C207.734 38.524 209.9 36.4487 211.475 35.3943C213.799 33.8385 216.763 32.6825 219.265 32.3561C219.949 32.2668 220.674 32.1708 220.875 32.1428C221.539 32.0502 240.494 32.0503 240.494 32.1429ZM144.555 44.3376C144.25 44.4114 143.813 44.5676 143.584 44.6849C142.97 44.9976 142.038 46.106 141.84 46.7574C141.728 47.1271 141.668 48.5939 141.668 50.9717C141.668 54.3787 141.651 54.6137 141.412 54.5406C141.271 54.4976 140.679 54.2929 140.095 54.0858C135.187 52.3428 129.466 53.7043 125.767 57.4958C124.288 59.011 123.25 60.7724 122.603 62.8609C122.293 63.8646 122.28 64.1688 122.227 71.4125C122.187 76.8516 122.221 79.2 122.349 79.9264C123.229 84.9208 126.894 88.8179 132.094 90.2898C133.076 90.5677 133.603 90.6174 135.592 90.62C137.59 90.6227 138.117 90.5741 139.17 90.2904C143.41 89.1471 146.771 86.2398 148.262 82.4251C149.167 80.1116 149.144 80.6429 149.101 62.8902C149.064 47.7404 149.046 46.6835 148.803 46.2461C147.996 44.789 146.138 43.9544 144.555 44.3376ZM245.984 44.2784C245.061 44.4998 244.624 44.7181 244.035 45.2516C242.742 46.4229 242.843 44.9059 242.84 63.0583C242.837 76.321 242.872 79.3007 243.044 80.1841C243.82 84.185 246.67 87.733 250.505 89.4704C252.559 90.4013 253.628 90.6156 256.233 90.6195C258.986 90.6237 260.212 90.3665 262.382 89.329C265.753 87.7173 268.029 85.1187 269.283 81.4512L269.702 80.2234V72.1347C269.702 64.1078 269.7 64.0372 269.363 62.8905C269.177 62.255 268.683 61.085 268.265 60.2906C267.617 59.056 267.283 58.6253 265.969 57.326C264.71 56.0813 264.18 55.6721 263.041 55.0661C260.709 53.8258 258.876 53.3718 256.233 53.3798C254.368 53.3854 252.672 53.6955 251.279 54.2854C250.89 54.4502 250.511 54.5851 250.438 54.5851C250.36 54.5851 250.303 53.06 250.303 50.9548C250.303 48.5679 250.244 47.1281 250.129 46.7512C249.904 46.0097 248.849 44.856 248.139 44.5761C247.504 44.3253 246.416 44.175 245.984 44.2784ZM265.692 44.397C264.776 44.6867 263.958 45.5275 263.682 46.4621C263.312 47.7177 263.778 48.93 264.916 49.6739C267.451 51.3303 270.702 48.8198 269.549 46.0966C268.945 44.6694 267.225 43.912 265.692 44.397ZM267.731 45.2326C268.906 45.8179 269.341 47.0879 268.755 48.2218C267.996 49.689 266.294 49.9645 265.052 48.8212C264.527 48.3385 264.452 48.1855 264.393 47.4822C264.296 46.325 264.848 45.4432 265.896 45.0818C266.583 44.845 267.026 44.8814 267.731 45.2326ZM265.481 45.5817C265.427 45.6346 265.383 46.4145 265.383 47.315C265.383 48.8556 265.401 48.9519 265.676 48.9519C265.93 48.9519 265.969 48.8556 265.969 48.2297C265.969 47.2604 266.315 47.2613 266.958 48.2323C267.266 48.6973 267.539 48.9519 267.727 48.9519C268.107 48.9519 268.095 48.8412 267.642 48.1837L267.266 47.6374L267.642 47.3453C268.026 47.0478 268.153 46.3507 267.896 45.9522C267.666 45.5947 265.764 45.3028 265.481 45.5817ZM267.209 46.2588C267.677 46.5964 267.391 46.9298 266.632 46.9298C265.993 46.9298 265.969 46.9142 265.969 46.4964C265.969 46.1023 266.013 46.0631 266.453 46.0631C266.72 46.0631 267.06 46.1512 267.209 46.2588ZM164.197 53.4277C158.764 54.094 154.317 57.7604 152.774 62.8441C152.486 63.7948 152.447 64.3027 152.396 67.8737L152.339 71.8458L152.75 72.6393C153.208 73.5224 154.096 74.275 154.959 74.5113C155.31 74.6078 159.164 74.6608 165.826 74.6608C172.487 74.6608 176.341 74.6078 176.693 74.5113C177.554 74.2753 178.444 73.5222 178.893 72.6495L179.295 71.8662V68.3473C179.295 64.3674 179.151 63.327 178.346 61.4722C177.619 59.7999 177.004 58.8646 175.788 57.5826C174.595 56.3244 173.054 55.2213 171.553 54.5495C169.489 53.6266 166.408 53.1566 164.197 53.4277ZM193.863 53.5036C190.847 53.9809 188.558 55.1301 186.385 57.2573C184.846 58.7638 184.172 59.7558 183.375 61.6859C182.516 63.7697 182.516 63.7639 182.518 76.3535L182.519 87.8788L182.865 88.601C183.51 89.9473 184.713 90.689 186.25 90.689C187.706 90.689 188.915 89.9863 189.594 88.7454C189.908 88.1706 189.91 88.1097 189.983 76.5402L190.056 64.9127L190.52 63.9478C191.168 62.5968 192.001 61.76 193.338 61.1149C194.404 60.6008 194.51 60.5794 195.986 60.5794C197.408 60.5794 197.596 60.6137 198.501 61.0366C199.862 61.6726 200.71 62.4915 201.369 63.806L201.915 64.8972L201.989 76.5325C202.069 89.3359 202 88.4108 202.966 89.5432C203.917 90.6591 205.882 91.0225 207.341 90.3525C208.233 89.9426 209.066 89.0257 209.298 88.1977C209.424 87.7515 209.457 84.4399 209.422 75.7457C209.376 63.9885 209.373 63.8939 209.051 62.8609C207.631 58.3104 204.071 54.9496 199.445 53.7917C197.641 53.3403 195.569 53.2335 193.863 53.5036ZM224.517 53.4277C218.695 54.1417 214.081 58.25 212.895 63.7761C212.742 64.4882 212.681 65.7702 212.679 68.3173L212.676 71.8662L213.079 72.6495C213.528 73.5222 214.417 74.2753 215.279 74.5113C215.631 74.6078 219.485 74.6608 226.146 74.6608C232.807 74.6608 236.661 74.6078 237.013 74.5113C237.876 74.275 238.764 73.5224 239.222 72.6393L239.633 71.8458L239.576 67.8737C239.524 64.2777 239.488 63.799 239.191 62.8183C238.145 59.3614 235.496 56.2887 232.203 54.7134C230.002 53.6604 226.879 53.138 224.517 53.4277ZM138.33 61.1318C139.649 61.7575 140.482 62.5948 141.132 63.9478L141.595 64.9127L141.643 71.557C141.676 76.274 141.64 78.4316 141.518 78.9957C141.02 81.2888 139.098 83.0578 136.647 83.4787C133.553 84.0104 130.462 81.9826 129.813 78.9957C129.691 78.4316 129.655 76.274 129.688 71.557L129.736 64.9127L130.199 63.9478C130.788 62.7227 131.625 61.8258 132.718 61.2514C133.884 60.6382 134.494 60.5097 135.976 60.5656C137.067 60.6067 137.385 60.6831 138.33 61.1318ZM168.369 61.0763C168.911 61.3314 169.593 61.7465 169.884 61.9987C171.126 63.0729 171.881 64.8911 171.799 66.6046L171.755 67.5126H165.826H159.896L159.852 66.6046C159.739 64.2559 160.976 62.1842 163.106 61.1565C164.265 60.5971 164.7 60.512 166.129 60.5654C167.181 60.6049 167.544 60.6878 168.369 61.0763ZM228.811 61.1318C230.828 62.089 232.002 63.8556 232.122 66.1137C232.172 67.0427 232.14 67.3573 231.985 67.4541C231.874 67.5236 229.246 67.5803 226.146 67.5803C223.046 67.5803 220.418 67.5236 220.307 67.4541C220.152 67.3573 220.12 67.0427 220.169 66.1137C220.221 65.1413 220.325 64.707 220.693 63.9325C221.443 62.3513 222.992 61.0668 224.645 60.6548C224.947 60.5796 225.762 60.5394 226.456 60.5656C227.548 60.6067 227.865 60.6831 228.811 61.1318ZM258.99 61.1312C260.261 61.7509 261.195 62.678 261.826 63.9461L262.236 64.7682V71.9903V79.2123L261.784 80.1516C260.954 81.8794 259.288 83.1232 257.334 83.4728C254.404 83.9969 251.445 82.2202 250.583 79.419C250.304 78.5141 250.292 78.1253 250.333 71.6894L250.377 64.9127L250.844 63.939C251.608 62.3471 253.157 61.0633 254.805 60.656C255.107 60.5812 255.925 60.5368 256.622 60.5575C257.749 60.5908 258.013 60.6547 258.99 61.1312ZM155.649 78.0997C154.132 78.6174 153.245 79.7145 153.121 81.2267C153.044 82.1661 153.444 83.2338 154.434 84.7295C159.068 91.7332 169.472 92.7607 175.504 86.8104C176.629 85.7 177.826 83.9611 178.276 82.781C178.875 81.2101 178.384 79.5223 177.069 78.6276C175.005 77.2245 172.627 77.8461 171.323 80.1292C170.204 82.0881 168.785 83.1391 166.797 83.4806C164.175 83.9311 161.644 82.5921 160.257 80.0206C159.688 78.9648 158.977 78.3799 157.869 78.0554C156.937 77.7822 156.558 77.7897 155.649 78.0997ZM216.263 77.9674C215.517 78.1598 214.955 78.5135 214.327 79.1862C212.993 80.6134 213.115 82.2519 214.735 84.7008C216.674 87.6314 219.803 89.7122 223.363 90.4391C225.168 90.8078 227.975 90.735 229.733 90.2739C231.233 89.8803 233.264 88.8928 234.545 87.9334C236.6 86.3942 238.688 83.4121 238.846 81.7881C238.945 80.7646 238.665 79.9353 237.966 79.187C237.082 78.241 236.389 77.9308 235.146 77.9251C233.804 77.919 232.735 78.4612 232.075 79.4826C230.752 81.5326 230.409 81.9661 229.767 82.4027C228.597 83.1979 227.56 83.5171 226.146 83.5171C224.731 83.5171 223.694 83.1979 222.525 82.4027C221.88 81.9644 221.462 81.4341 220.216 79.4709C219.482 78.3136 217.639 77.6125 216.263 77.9674Z" fill="white"/>
</g>
</svg>
