<svg width="114" height="42" viewBox="0 0 114 42" fill="none" xmlns="http://www.w3.org/2000/svg">
<path fill-rule="evenodd" clip-rule="evenodd" d="M57.1958 0.99369C50.2142 1.65163 44.335 2.92346 38.8348 4.96555C31.4356 7.71259 25.4885 11.3763 20.4866 16.2687L18.8962 17.8242L18.609 17.4201C17.9667 16.5167 16.091 14.7303 15.0801 14.0595C13.0174 12.6907 10.5097 11.6547 8.18282 11.2102C6.49805 10.8885 4.21223 10.9142 2.73374 11.2718C1.62971 11.5387 0.581659 11.9623 0.434186 12.2011C0.308377 12.405 1.25726 14.2017 2.06029 15.2801C2.85524 16.3476 4.14387 17.5707 5.34518 18.3981C6.0703 18.8974 8.48584 20.1252 8.995 20.253C9.45679 20.3691 9.46405 20.5303 9.01262 20.6437C8.36232 20.8071 6.17741 21.9167 5.14443 22.6083C3.94191 23.4135 2.5128 24.7729 1.70277 25.8821C1.0304 26.8028 0.28927 28.3236 0.387764 28.5805C0.476706 28.8126 1.43084 29.2592 2.44202 29.5422C3.66432 29.8842 6.46145 29.9561 8.01584 29.6855C12.3647 28.9284 17.0691 26.1492 18.6874 23.381C18.8496 23.1037 19.0381 22.8765 19.1063 22.876C19.1746 22.8753 19.9921 23.6198 20.9228 24.5302C22.9139 26.4778 24.3159 27.6668 26.4916 29.2533C32.1507 33.3796 39.4056 36.7772 46.6332 38.6861C57.7814 41.6304 70.4706 41.9692 81.8867 39.6271C89.9004 37.983 97.4881 34.8531 103.815 30.5817C106.219 28.9581 107.616 27.8515 110.113 25.5919C111.117 24.6829 113.51 22.0878 113.618 21.7904C113.716 21.5214 111.59 18.93 109.81 17.1483C103.426 10.7596 94.9887 6.07818 84.8469 3.29802C81.551 2.39455 77.3682 1.64193 72.6696 1.10723C70.0003 0.80338 59.9939 0.729977 57.1958 0.99369ZM44.4765 7.03377C44.7417 7.11903 45.0173 7.32968 45.1137 7.52079C45.2914 7.87273 45.3451 9.37985 45.1994 9.92452C45.119 10.225 45.0772 10.2358 44.3603 10.1403C42.2521 9.85946 41.8056 10.2804 41.7523 12.5987L41.7219 13.9183L43.7403 13.9857L45.7586 14.053V15.0862C45.7586 16.0012 45.7201 16.1611 45.4222 16.4841C44.8923 17.0585 44.3521 17.2181 42.9372 17.2181H41.6546V23.0769C41.6546 30.104 41.846 29.4744 39.7099 29.4744C38.9291 29.4744 38.151 29.4049 37.9607 29.3181L37.618 29.1618V23.1899V17.2181L36.9116 17.2022C36.5231 17.1933 36.1535 17.1955 36.0903 17.2068C36.0271 17.2181 35.8625 17.1916 35.7245 17.1477C35.0797 16.9428 35.0126 14.3571 35.6418 13.9569C35.7296 13.9008 36.2103 13.8542 36.7097 13.853L37.618 13.851L37.6189 13.0766C37.6204 11.8282 37.9645 9.88802 38.3085 9.18766C38.7169 8.35611 39.5042 7.56416 40.2508 7.23351C41.3667 6.73949 43.2809 6.64898 44.4765 7.03377ZM50.7686 6.98785C51.1708 7.24348 51.4789 8.0559 51.4696 8.83667C51.4512 10.3787 50.8853 10.8879 49.1897 10.8879C47.3969 10.8879 46.8085 10.2694 46.9401 8.52366C47.0517 7.04509 47.5474 6.67632 49.3243 6.74959C50.0033 6.77774 50.5902 6.87444 50.7686 6.98785ZM92.7379 13.3879C94.1355 13.6768 95.0857 14.1598 96.007 15.0496C97.2842 16.2831 97.8561 17.8215 97.9919 20.3891C98.1965 24.258 96.7546 27.2346 94.0778 28.4697C92.6892 29.1104 91.7454 29.2559 89.513 29.1736L87.6053 29.1031L87.3449 29.6591C87.1942 29.9809 86.4408 30.8492 85.5572 31.7195C84.7172 32.5469 84.0775 33.2474 84.1356 33.2761C84.1938 33.3049 85.0588 33.3449 86.0579 33.3651C87.057 33.3852 87.9246 33.4501 87.9859 33.5093C88.1801 33.6968 88.2472 34.6767 88.0866 34.9771C87.9349 35.2606 87.8706 35.2659 84.5327 35.2659C82.068 35.2659 81.0888 35.2215 80.9717 35.1043C80.8826 35.0151 80.8102 34.5866 80.8102 34.1486V33.3545L82.4755 31.6501C83.3914 30.7127 84.2487 29.7337 84.3805 29.4744C84.7096 28.8273 84.7134 27.9622 84.3887 27.603C84.0188 27.1938 82.9811 27.2197 82.0323 27.6619C81.1419 28.0767 81.0121 27.9879 81.0121 26.9643C81.0121 26.3182 81.0614 26.1763 81.3813 25.9007C81.5845 25.7259 82.0839 25.4777 82.4914 25.349C82.8988 25.2206 83.2315 25.0506 83.2306 24.9715C83.2298 24.8925 83.1425 24.5021 83.0366 24.1042C82.735 22.9701 82.6519 21.4385 82.8177 20.0749C83.0852 17.8759 83.7051 16.4448 84.8996 15.2677C85.6662 14.5124 86.1195 14.2246 87.4609 13.6414C88.5521 13.1669 91.0816 13.0454 92.7379 13.3879ZM61.6415 13.9241C62.8778 14.2444 63.5733 14.6257 63.6804 15.0417C63.8615 15.7451 63.7905 17.2069 63.5643 17.4333C63.3721 17.6257 63.3128 17.6263 62.9523 17.4398C61.4885 16.6821 59.5572 16.3437 58.5656 16.6714C57.1681 17.133 57.1811 18.7815 58.5878 19.4956C58.8582 19.6329 59.7153 20.003 60.4924 20.3182C62.8806 21.2864 64.013 22.2728 64.4082 23.7292C64.6294 24.544 64.4895 26.337 64.1538 26.9892C63.1864 28.8685 61.1814 29.875 58.4068 29.8742C56.4224 29.8737 54.1344 29.2231 53.779 28.5586C53.5406 28.1125 53.4558 26.8886 53.6208 26.2757C53.7439 25.8187 53.8357 25.7033 54.0763 25.7033C54.2419 25.7033 54.4988 25.7883 54.6469 25.8921C55.1719 26.2603 56.6694 26.7921 57.523 26.9135C59.6672 27.2187 61.1259 26.1073 60.4482 24.6848C60.1775 24.1165 59.9005 23.938 58.1841 23.2261C56.2406 22.4201 55.7102 22.1293 55.0181 21.4909C53.9457 20.5013 53.5326 19.1799 53.7878 17.5548C54.0624 15.8057 55.1921 14.6405 57.2631 13.9703C58.2258 13.6588 60.5237 13.6345 61.6415 13.9241ZM50.7622 14.2785L51.0735 14.5714V21.8113C51.0735 29.9375 51.1468 29.3864 50.0438 29.5519C49.2598 29.6696 47.4604 29.524 47.2189 29.3233C47.0701 29.1997 47.0389 27.9631 47.0482 22.5554C47.0545 18.9161 47.1039 15.5822 47.1581 15.1467C47.2918 14.0723 47.4372 13.9857 49.1059 13.9857C50.3014 13.9857 50.4852 14.0181 50.7622 14.2785ZM69.8242 14.5132C70.1833 14.5722 70.535 14.705 70.6058 14.8082C70.6805 14.9172 70.717 16.0973 70.6929 17.6222L70.6513 20.2485L72.8755 20.2853L75.0997 20.3221L75.1378 17.5916C75.1594 16.0352 75.2328 14.8032 75.3084 14.7264C75.5035 14.5282 78.0817 14.4705 78.6836 14.651L79.1956 14.8046V22.1395C79.1956 29.2949 79.189 29.481 78.9265 29.7438C78.69 29.9805 78.478 30.0132 77.1836 30.0132C76.3581 30.0132 75.5601 29.9449 75.3696 29.858L75.0293 29.7029L74.9933 26.7569L74.9571 23.8109L72.8042 23.7951L70.6513 23.7792L70.6151 26.7519L70.5789 29.7246L70.0964 29.884C69.4591 30.0945 67.0612 30.0031 66.7649 29.7569C66.5694 29.5945 66.5476 28.8374 66.5494 22.286C66.5506 18.2763 66.6033 14.9141 66.6666 14.814C66.9006 14.4444 68.4871 14.2933 69.8242 14.5132ZM89.6778 16.2756C88.4621 16.4842 87.9127 16.964 87.2101 18.4303C86.9404 18.9931 86.8366 19.4622 86.7779 20.3832C86.6219 22.8323 87.2206 24.858 88.3259 25.6207C89.6435 26.5298 91.7599 26.336 92.8045 25.2106C93.7115 24.2332 94.0581 22.8958 93.9638 20.7355C93.8893 19.0277 93.6438 18.1588 92.9957 17.3081C92.3504 16.4613 91.0157 16.0461 89.6778 16.2756Z" fill="white"/>
</svg>
