<svg width="148" height="24" viewBox="0 0 148 24" fill="none" xmlns="http://www.w3.org/2000/svg">
<path fill-rule="evenodd" clip-rule="evenodd" d="M79.0363 1.08339C76.9971 1.36534 74.7006 2.58518 73.14 4.2156C71.0582 6.39042 69.9933 9.1761 69.9861 12.465C69.9817 14.5383 70.2738 15.9717 71.0287 17.5829C72.1077 19.885 73.8546 21.4581 76.4275 22.4442C78.0235 23.056 80.9939 23.2128 82.7651 22.7789C85.8414 22.0251 88.3333 19.7155 89.4917 16.5442L89.8303 15.617H86.8287H83.8272L83.3945 16.1056C82.2294 17.4214 79.8344 17.8674 78.2774 17.0587C76.7152 16.247 76.0114 14.5982 76.1281 12.0232C76.2127 10.1589 76.6522 8.96561 77.6345 7.93175C79.2711 6.20964 82.2723 6.156 83.9201 7.81946L84.6574 8.56376H87.6015C90.8863 8.56376 90.7134 8.65453 90.2807 7.15905C89.7188 5.21698 87.9373 3.13386 86.0048 2.15902C84.0475 1.17175 81.377 0.759501 79.0363 1.08339ZM6.05956 1.55689C6.01888 1.68459 5.86471 2.5824 5.71678 3.55223C5.56868 4.52205 5.3062 6.21094 5.13329 7.30512L4.8187 9.29489L2.85892 9.34686L0.898964 9.39902L0.590801 11.3479C0.10438 14.4243 -0.0571057 14.1321 2.12965 14.1321C4.30552 14.1321 4.16402 13.9229 3.7429 16.5186C3.59962 17.401 3.35498 18.9581 3.1992 19.9789C3.04325 20.9998 2.87784 22.0229 2.83162 22.2527L2.7474 22.6703L10.379 22.6681C16.1816 22.6664 18.2244 22.6065 18.9028 22.4177C22.0292 21.5475 23.7112 19.3885 23.6942 16.2667C23.6853 14.6318 23.0472 13.1077 22.0076 12.2387L21.3049 11.6514L21.845 11.4153C22.8846 10.9606 23.6253 10.1999 24.1895 9.00775C24.6943 7.94103 24.7415 7.69862 24.6633 6.56936C24.4683 3.75491 22.7909 2.01071 19.795 1.50696C18.1182 1.2252 6.15128 1.26864 6.05956 1.55689ZM29.2702 1.6497C29.2177 1.82844 29.0065 3.10212 28.8007 4.48029C28.5948 5.85846 28.3164 7.69602 28.1819 8.56376C28.0474 9.4315 27.7735 11.2273 27.5733 12.5544C27.3731 13.8816 27.003 16.3038 26.7508 17.9372C26.4987 19.5706 26.2446 21.3036 26.1861 21.7886L26.0797 22.6703H35.3801H44.6803L44.7745 22.2527C44.8262 22.0229 45.0134 20.8745 45.1904 19.7005L45.5121 17.566L39.1283 17.5173C34.153 17.4793 32.7603 17.4178 32.8159 17.2389C32.855 17.1125 32.9797 16.4037 33.0932 15.6634L33.2993 14.3177H36.6629C38.8987 14.3177 40.0669 14.2498 40.1469 14.1154C40.2452 13.9499 40.9307 9.74073 40.9379 9.25981C40.939 9.18333 39.4039 9.1206 37.5265 9.1206H34.1132L34.2354 8.14613C34.3027 7.61027 34.4019 6.98383 34.4561 6.75404L34.5548 6.33641H40.3144H46.0742L46.273 5.17633C46.4982 3.86313 46.8249 1.67383 46.8269 1.46409C46.8278 1.38761 42.8991 1.32488 38.0968 1.32488C29.9365 1.32488 29.3592 1.34604 29.2702 1.6497ZM49.0652 1.55689C48.9938 1.78761 48.2558 6.38337 48.2558 6.59627C48.2558 6.65752 49.9083 6.70764 51.9279 6.70764H55.6001L55.4964 7.21807C55.4395 7.49872 55.1124 9.60783 54.7698 11.9048C54.4271 14.2017 54.0673 16.5405 53.9704 17.1019C53.8734 17.6634 53.6701 18.9998 53.5185 20.0717C53.367 21.1436 53.1994 22.1667 53.1462 22.3455C53.0568 22.646 53.2751 22.6703 56.0592 22.6703H59.0688L59.4795 19.9325C59.7054 18.4266 60.0395 16.2342 60.222 15.0602C60.6631 12.2201 61.2668 8.26808 61.3913 7.40368L61.4916 6.70764H65.1219C68.4235 6.70764 68.7608 6.67831 68.8484 6.38281C68.9014 6.20407 69.0691 5.22274 69.2211 4.20187C69.3732 3.181 69.5425 2.11614 69.5971 1.83531L69.6967 1.32488H59.4167C51.3499 1.32488 49.1214 1.37481 49.0652 1.55689ZM94.5739 1.7425C94.5286 1.97211 94.3239 3.28773 94.1193 4.6659C93.9144 6.04407 93.2278 10.5545 92.5933 14.689C91.9586 18.8235 91.439 22.3108 91.4386 22.4383C91.4379 22.6146 92.1443 22.6703 94.3785 22.6703C97.2851 22.6703 97.3203 22.6655 97.4013 22.2527C97.6277 21.0974 100.538 1.94482 100.538 1.60979C100.538 1.36516 100.122 1.32488 97.5972 1.32488C94.6908 1.32488 94.6555 1.3297 94.5739 1.7425ZM103.314 1.55689C103.277 1.68459 103.117 2.70769 102.959 3.83064C102.801 4.9536 102.624 6.06022 102.566 6.29001L102.459 6.70764H106.138C108.161 6.70764 109.817 6.78077 109.817 6.87005C109.817 6.95933 109.66 8.02419 109.469 9.23661C108.714 14.0202 107.686 20.7722 107.572 21.6958L107.451 22.6703H110.396H113.341L113.431 22.1599C113.48 21.8792 114.031 18.2891 114.655 14.1822L115.789 6.71488L119.45 6.66495L123.11 6.61483L123.499 4.29467C123.712 3.01859 123.892 1.82844 123.9 1.6497C123.913 1.34399 123.311 1.32488 113.648 1.32488C105.59 1.32488 103.367 1.37481 103.314 1.55689ZM124.473 1.7425C124.772 2.3244 129.273 9.95808 130.551 12.0527C131.183 13.0869 131.568 13.9049 131.512 14.0945C131.424 14.3968 130.855 18.0855 130.505 20.6286C130.414 21.2921 130.297 22.0229 130.246 22.2527L130.152 22.6703H133.367C135.136 22.6703 136.582 22.5992 136.582 22.5123C136.582 22.4255 136.869 20.4435 137.219 18.1079C137.852 13.8842 137.859 13.8572 138.513 13.025C139.16 12.2008 142.721 7.79477 145.92 3.85997C146.82 2.75335 147.621 1.73007 147.699 1.58622C147.82 1.36534 147.292 1.32488 144.28 1.32488H140.717L139.238 3.1346C138.425 4.12985 137.433 5.32018 137.035 5.77957C136.637 6.23896 136.064 6.93018 135.763 7.31552L135.215 8.01602L133.289 4.67054L131.363 1.32488H127.81H124.258L124.473 1.7425ZM17.2656 6.32435C18.5316 6.63005 18.8546 7.8072 17.9351 8.76366L17.4136 9.30621H14.0302H10.6468L10.8927 7.96052C11.0278 7.2203 11.1766 6.51052 11.2232 6.38281C11.3245 6.10532 16.1647 6.05873 17.2656 6.32435ZM16.3178 14.3356C17.0925 14.5084 17.2726 14.6325 17.5149 15.161C17.8803 15.958 17.6671 16.82 16.9705 17.3614C16.5067 17.7221 16.198 17.7562 12.8962 17.8121C9.50626 17.8696 9.32854 17.8553 9.41972 17.5337C9.47254 17.3473 9.60958 16.5056 9.72431 15.6634L9.93273 14.1321H12.6692C14.1742 14.1321 15.8162 14.2236 16.3178 14.3356Z" fill="white"/>
</svg>
