<svg width="104" height="42" viewBox="0 0 104 42" fill="none" xmlns="http://www.w3.org/2000/svg">
<path fill-rule="evenodd" clip-rule="evenodd" d="M96.4224 0.590166C96.3155 0.632143 94.8731 2.05276 93.2168 3.74727C90.7336 6.2878 90.2055 6.8925 90.2055 7.19545C90.2055 7.47186 90.4057 7.76253 91.015 8.37027C91.4603 8.81446 91.9608 9.21931 92.1274 9.27013C92.3941 9.35144 92.8028 8.98052 95.5435 6.17071C97.9992 3.65302 98.6566 2.90681 98.6566 2.63739C98.6566 2.38817 98.4112 2.05196 97.7491 1.39446C96.8353 0.486808 96.7765 0.451168 96.4224 0.590166ZM96.811 13.4656C96.7753 13.5021 96.3382 13.5664 95.8396 13.6084C94.4277 13.7269 93.8387 13.8255 92.8606 14.1067C90.3551 14.827 88.8849 15.6952 87.0859 17.5171C84.7745 19.8579 83.8246 21.8455 83.2674 25.5075C83.0327 27.0498 83.0359 28.1943 83.2801 29.8694C83.6945 32.715 84.4991 34.6989 86.0158 36.6155C88.2748 39.4705 91.1076 41.0902 94.6739 41.566C97.045 41.8824 102.797 41.8242 103.135 41.4805C103.183 41.4319 103.243 40.8611 103.267 40.2121C103.302 39.303 103.266 38.9592 103.11 38.7158L102.907 38.3999L99.3731 38.3334C95.7112 38.2646 94.502 38.1784 94.2918 37.9711C94.2241 37.9044 94.0427 37.8498 93.8887 37.8498C93.0861 37.8498 90.7735 36.5614 89.6393 35.4824C88.9533 34.8297 87.9301 33.3499 87.5797 32.5036C87.2763 31.7704 86.838 30.0756 86.838 29.6352C86.838 29.2786 86.8561 29.2695 87.5827 29.2662C87.9924 29.2642 91.4741 29.2264 95.3202 29.1821C101.539 29.1104 102.331 29.0779 102.478 28.8885C102.688 28.6193 102.624 26.2975 102.402 26.0704C102.29 25.9563 100.249 25.9145 94.5765 25.9099L86.9027 25.9035L86.9286 25.3284C86.964 24.5428 87.4317 23.0186 87.9049 22.1461C88.9991 20.1292 90.4229 18.8403 92.5368 17.9531C94.6374 17.0717 96.0118 16.8613 99.6715 16.8613C101.481 16.8613 102.755 16.8075 102.907 16.7247C103.13 16.6031 103.157 16.4375 103.157 15.2228C103.157 14.1512 103.114 13.8211 102.957 13.688C102.811 13.565 101.948 13.5019 99.8159 13.4586C98.1989 13.4258 96.8466 13.4289 96.811 13.4656ZM42.0243 13.8114C40.3768 14.1585 39.2255 14.5485 38.0826 15.1468C33.2791 17.6613 30.3863 22.5852 30.4759 28.0941C30.5569 33.0657 32.9931 37.319 37.2968 40.0021C38.2971 40.6256 39.9342 41.319 40.9233 41.5379C41.3508 41.6326 41.9045 41.7618 42.1538 41.8251C42.9006 42.015 45.8803 41.9616 46.9233 41.7399C50.4286 40.9946 53.302 39.1322 55.4706 36.1997C56.1512 35.2795 57.13 33.3766 57.4398 32.3716C57.5293 32.0812 57.6487 31.7248 57.7052 31.5796C57.9145 31.042 57.984 30.338 58.0432 28.1569C58.0963 26.1991 58.0696 25.774 57.8277 24.7249C56.7589 20.0897 53.8565 16.5284 49.6659 14.7102C47.3181 13.6916 44.2862 13.3349 42.0243 13.8114ZM5.56935 13.9235C4.48087 14.3826 4.09127 15.113 3.82615 17.1913C3.74287 17.8448 3.62241 18.7655 3.55843 19.2374C3.49445 19.7093 3.37775 20.6003 3.29913 21.2174C3.22038 21.8345 3.10433 22.6959 3.04139 23.1315C2.97831 23.5671 2.86239 24.4581 2.78364 25.1115C2.7049 25.7649 2.58729 26.6559 2.52215 27.0915C2.45713 27.5271 2.34082 28.3885 2.26401 29.0056C2.18708 29.6227 2.06766 30.5582 1.99863 31.0846C1.92972 31.611 1.81303 32.5021 1.73946 33.0647C1.60243 34.1126 1.3136 36.1906 1.09264 37.7178C1.02438 38.1897 0.942656 38.8431 0.911183 39.1698C0.87958 39.4965 0.812878 40.1042 0.762883 40.5203C0.632587 41.6035 0.725064 41.6778 2.20443 41.6778C2.86783 41.6778 3.54561 41.6254 3.71048 41.5615C4.08415 41.4166 4.23892 40.8599 4.52244 38.6418C4.63849 37.7343 4.75933 36.8135 4.79107 36.5957C4.88302 35.9634 5.48373 31.549 5.63527 30.3916C5.7113 29.8108 5.82631 28.9495 5.89094 28.4776C6.1347 26.6967 6.52753 23.6135 6.66469 22.4054C6.90197 20.3158 7.10312 19.0245 7.1478 19.3034C7.17111 19.4486 7.24636 19.7753 7.31514 20.0294C8.55542 24.6137 9.24588 27.0762 9.85126 29.0746C10.0937 29.8749 10.292 30.6288 10.292 30.7499C10.292 30.871 10.3503 31.0067 10.4215 31.0516C10.4928 31.0965 10.5511 31.2754 10.5511 31.4492C10.5511 31.6231 10.6061 31.9017 10.6733 32.0684C10.7407 32.2352 10.9215 32.8172 11.0753 33.3617C11.2292 33.9062 11.4003 34.5002 11.4555 34.6817C11.5107 34.8632 11.6881 35.4572 11.8495 36.0017C12.5174 38.2536 13.2852 40.5212 13.4849 40.8318C13.8472 41.3953 14.3094 41.5458 15.6777 41.5458C17.7459 41.5458 17.9723 41.2685 18.9657 37.5197C19.0234 37.3019 19.2816 36.4109 19.5396 35.5397C19.7974 34.6685 20.1262 33.5399 20.2699 33.0317C20.5945 31.8846 21.163 29.9742 21.3109 29.5336C21.3719 29.3521 21.8893 27.5106 22.4609 25.4415C23.0324 23.3724 23.5535 21.5012 23.619 21.2834C23.6844 21.0656 23.8123 20.5607 23.9031 20.1614C24.1365 19.1363 24.2458 19.091 24.3379 19.9814C24.3819 20.4071 24.4744 21.2158 24.5433 21.7784C24.8742 24.4791 24.9372 24.9885 25.0647 26.0025C25.1401 26.6014 25.2575 27.4776 25.3255 27.9496C25.6408 30.1368 25.9951 32.6731 26.2379 34.4837C26.3839 35.5727 26.5279 36.5825 26.5577 36.7277C26.6341 37.0991 26.8233 38.3218 26.9255 39.1038C27.0955 40.4055 27.2966 41.2813 27.4568 41.4169C27.5553 41.5 28.2029 41.5399 29.0908 41.5173L30.5618 41.4798L30.6058 41.0178C30.6301 40.7637 30.5843 40.1103 30.504 39.5658C30.3161 38.2899 30.156 37.1227 29.9883 35.8037C29.7289 33.7644 29.5717 32.6248 29.3878 31.4476C29.2858 30.7942 28.939 28.2697 28.6174 25.8375C28.2957 23.4054 27.9741 20.9996 27.9026 20.4914C27.8313 19.9832 27.7155 19.1368 27.6454 18.6104C27.214 15.3675 27.1194 15.0232 26.4808 14.3724C25.8741 13.7541 25.0109 13.5782 23.5706 13.7793C23.1073 13.844 22.8331 13.9833 22.4655 14.3404C22.048 14.7461 21.9076 15.0458 21.5014 16.3993C20.7269 18.9795 20.6278 19.2923 20.5084 19.5325C20.4458 19.6586 20.3948 19.8368 20.3952 19.9285C20.3956 20.0203 20.2164 20.6894 19.9973 21.4154C19.778 22.1414 19.5367 22.9731 19.4611 23.2635C19.2342 24.1338 19.1173 24.5439 18.8595 25.3755C18.5469 26.3837 17.5198 29.8732 17.2861 30.7216C17.216 30.9757 17.0476 31.5697 16.912 32.0416C16.7763 32.5135 16.5374 33.4046 16.3812 34.0217C16.2252 34.6388 16.0442 35.2802 15.9793 35.4469C15.9144 35.6136 15.8604 35.8809 15.8594 36.0409C15.8582 36.2009 15.8058 36.4149 15.7426 36.5165C15.6132 36.7248 15.6456 36.825 14.3596 32.2396C13.8912 30.5698 13.458 29.0254 13.3969 28.8076C13.0948 27.7325 12.9885 27.3281 12.9284 27.0255C12.8924 26.844 12.8149 26.5767 12.7562 26.4315C12.599 26.0428 12.4234 25.4884 12.1285 24.4515C11.9841 23.9433 11.6805 22.9038 11.4539 22.1414C11.2274 21.3791 10.9365 20.399 10.8076 19.9634C9.63198 15.9916 9.20534 14.8034 8.81018 14.4007C8.1223 13.6996 6.62325 13.4788 5.56935 13.9235ZM61.3151 14.0824C60.4321 14.3555 60.0157 14.7655 59.709 15.6638C59.5348 16.1741 59.5094 17.8184 59.5094 28.6222C59.5094 35.4279 59.5447 41.0902 59.588 41.205C59.6535 41.3792 59.9215 41.4138 61.2025 41.4138C62.5866 41.4138 62.7514 41.3887 62.872 41.1593C62.9625 40.9868 62.9813 37.3161 62.9301 29.7741C62.8567 18.9344 62.8609 18.6541 63.0925 19.0518C63.6457 20.0023 64.3012 21.056 65.3054 22.6093C65.8931 23.5182 66.3739 24.2857 66.3739 24.3149C66.3739 24.344 66.7819 24.9953 67.2805 25.7623C67.7792 26.5292 68.1872 27.2114 68.1872 27.2782C68.1872 27.345 68.2355 27.4193 68.2944 27.4436C68.3535 27.4677 68.7165 27.9925 69.1013 28.6096C69.4861 29.2267 69.8437 29.791 69.8959 29.8636C69.9482 29.9362 71.4841 32.2825 73.309 35.0777C75.1339 37.8729 76.8409 40.3582 77.1022 40.6007C77.8826 41.325 78.2296 41.4537 79.2098 41.3821C80.652 41.2771 81.37 40.6452 81.659 39.2271C81.7634 38.7144 81.7933 35.0302 81.7637 26.3601C81.7271 15.7363 81.6976 14.1959 81.5277 14.0865C81.2364 13.8988 78.6337 13.9235 78.4451 14.1157C78.3267 14.2363 78.289 16.9188 78.287 25.3689L78.2841 36.4637L77.7045 35.5397C76.4755 33.5804 74.123 29.9128 72.1051 26.8102C70.9476 25.0305 70.0004 23.5192 70.0004 23.4518C70.0004 23.3845 69.946 23.3295 69.8796 23.3295C69.8132 23.3295 69.722 23.2111 69.6769 23.0663C69.6318 22.9214 69.5138 22.7204 69.4149 22.6196C69.3158 22.5186 69.1302 22.2552 69.0024 22.0344C68.7919 21.6706 66.5093 18.1675 66.2768 17.8514C66.2233 17.7788 65.8924 17.2738 65.5414 16.7293C64.5635 15.2128 63.9678 14.5406 63.3314 14.2357C62.7424 13.9536 61.9313 13.8919 61.3151 14.0824ZM46.3874 17.2437C46.9439 17.3814 47.5733 17.5635 47.7859 17.6482C51.3715 19.0781 53.8577 22.2044 54.4588 26.0396C55.2141 30.8584 52.8832 35.4756 48.637 37.5719C48.1803 37.7973 47.7039 37.9818 47.5783 37.9818C47.4527 37.9818 47.3178 38.0346 47.2786 38.0992C47.2395 38.1638 46.9883 38.2609 46.7205 38.3151C46.0667 38.4475 42.6061 38.4526 41.9701 38.3223C41.2141 38.1672 39.5706 37.4288 38.7749 36.8865C37.5659 36.0627 36.1507 34.5798 35.6001 33.5597C34.455 31.4385 34.1254 30.3352 34.0281 28.2979C33.8814 25.2261 34.9989 22.3074 37.1713 20.0883C39.6261 17.5808 43.2404 16.4652 46.3874 17.2437Z" fill="white"/>
</svg>
