<svg width="94" height="44" viewBox="0 0 94 44" fill="none" xmlns="http://www.w3.org/2000/svg">
<path fill-rule="evenodd" clip-rule="evenodd" d="M61.6345 0.782444C54.9228 1.64664 49.3976 6.27482 47.5984 12.5394C47.4289 13.13 47.243 13.9494 47.1854 14.3602C46.9766 15.8501 46.9801 15.8428 46.8465 15.0772C46.5852 13.5799 45.849 11.8774 44.9337 10.6537C44.2677 9.76335 42.8473 8.45776 41.9129 7.87696C40.9689 7.29028 39.9049 6.84217 38.6188 6.48968L37.7113 6.24102L31.0546 6.21132L24.398 6.18163L24.4632 6.9094C24.6097 8.54722 25.0644 10.0396 25.8192 11.3604C27.5224 14.3408 30.4281 16.2782 34.0273 16.8332C34.4134 16.8927 40.227 16.927 50.0412 16.9273C66.8977 16.9282 66.4256 16.9421 68.6431 16.3789C74.5627 14.8755 79.1904 10.2832 80.6517 4.46239C80.8597 3.63359 81.1274 1.73964 81.1274 1.09609V0.680664L71.684 0.692523C66.4903 0.699059 61.9679 0.739491 61.6345 0.782444ZM75.3448 5.31463C75.3448 5.47095 74.5216 6.83694 74.0419 7.47666C72.5797 9.42663 70.5732 10.8673 68.2239 11.6538C66.3473 12.2822 66.372 12.2804 59.2328 12.3234C55.3662 12.3468 52.7741 12.3282 52.7741 12.2771C52.7741 12.1437 53.4383 10.9682 53.8883 10.3052C54.4757 9.4398 55.8553 8.09817 56.8585 7.41653C58.339 6.41077 60.2271 5.66349 61.821 5.45246C62.257 5.39475 62.7187 5.33266 62.8469 5.31454C63.2698 5.25469 75.3448 5.25478 75.3448 5.31463ZM14.2282 13.1981C14.0342 13.2458 13.7557 13.3467 13.6093 13.4226C13.2187 13.6247 12.6249 14.3413 12.4989 14.7624C12.4273 15.0014 12.3892 15.9496 12.3892 17.4868C12.3892 19.6893 12.3785 19.8412 12.226 19.794C12.1362 19.7662 11.7587 19.6338 11.3872 19.4999C8.26052 18.3732 4.616 19.2533 2.25922 21.7044C1.31731 22.6839 0.655766 23.8226 0.244176 25.1727C0.0464489 25.8216 0.0378685 26.0182 0.00419891 30.701C-0.0211699 34.2172 0.00028169 35.7354 0.0818908 36.205C0.642895 39.4337 2.97748 41.953 6.28997 42.9045C6.91542 43.0842 7.251 43.1163 8.51859 43.118C9.79095 43.1198 10.1268 43.0883 10.7974 42.9049C13.4987 42.1658 15.6399 40.2864 16.5899 37.8203C17.166 36.3247 17.1514 36.6681 17.1241 25.1917C17.1008 15.3978 17.0888 14.7146 16.9344 14.4319C16.4202 13.4899 15.2368 12.9504 14.2282 13.1981ZM78.8423 13.1598C78.2541 13.303 77.9756 13.444 77.6003 13.789C76.7766 14.5462 76.8415 13.5654 76.8391 25.3004C76.8375 33.8742 76.86 35.8005 76.9692 36.3716C77.4635 38.958 79.2795 41.2517 81.7222 42.3748C83.031 42.9766 83.7116 43.1152 85.3711 43.1177C87.1251 43.1204 87.9061 42.9541 89.2883 42.2834C91.4355 41.2415 92.8856 39.5616 93.6843 37.1907L93.9517 36.397V31.1679C93.9517 25.9788 93.95 25.9332 93.7358 25.1919C93.6169 24.781 93.3022 24.0247 93.0363 23.5111C92.6229 22.713 92.4104 22.4346 91.5734 21.5946C90.7714 20.7899 90.4336 20.5254 89.708 20.1337C88.2225 19.3319 87.0551 19.0384 85.3711 19.0435C84.1832 19.0472 83.1028 19.2476 82.2155 19.629C81.9676 19.7355 81.7263 19.8227 81.6793 19.8227C81.6296 19.8227 81.5937 18.8368 81.5937 17.4758C81.5937 15.9328 81.5558 15.002 81.4828 14.7584C81.3394 14.279 80.6671 13.5332 80.2152 13.3523C79.8105 13.1902 79.1172 13.0929 78.8423 13.1598ZM91.3968 13.2365C90.8133 13.4238 90.292 13.9673 90.1166 14.5715C89.8809 15.3832 90.1777 16.1669 90.9029 16.6478C92.5176 17.7186 94.5887 16.0956 93.8539 14.3352C93.4689 13.4126 92.3738 12.9229 91.3968 13.2365ZM92.6957 13.7766C93.4444 14.155 93.7216 14.9761 93.348 15.7091C92.8647 16.6576 91.7806 16.8356 90.9891 16.0966C90.6549 15.7845 90.607 15.6856 90.5693 15.231C90.5074 14.4828 90.8591 13.9128 91.5267 13.6792C91.9642 13.5261 92.2466 13.5497 92.6957 13.7766ZM91.2625 14.0023C91.2283 14.0365 91.2003 14.5407 91.2003 15.1228C91.2003 16.1188 91.2113 16.1811 91.3868 16.1811C91.5485 16.1811 91.5734 16.1188 91.5734 15.7142C91.5734 15.0876 91.7937 15.0881 92.2037 15.7159C92.3999 16.0165 92.5732 16.1811 92.6933 16.1811C92.9356 16.1811 92.9279 16.1095 92.6394 15.6844L92.3996 15.3313L92.6394 15.1425C92.8836 14.9501 92.9645 14.4995 92.8011 14.2418C92.6547 14.0107 91.4425 13.822 91.2625 14.0023ZM92.3634 14.4401C92.6615 14.6583 92.479 14.8738 91.996 14.8738C91.5886 14.8738 91.5734 14.8637 91.5734 14.5937C91.5734 14.3389 91.6012 14.3136 91.882 14.3136C92.0517 14.3136 92.2684 14.3705 92.3634 14.4401ZM26.7407 19.0745C23.2801 19.5053 20.4468 21.8754 19.4639 25.1619C19.2802 25.7765 19.2558 26.1048 19.223 28.4133L19.1865 30.9812L19.4486 31.4941C19.7403 32.065 20.306 32.5516 20.8556 32.7043C21.0798 32.7667 23.5349 32.801 27.7783 32.801C32.0218 32.801 34.4769 32.7667 34.7011 32.7043C35.2498 32.5518 35.8166 32.0649 36.1025 31.5007L36.359 30.9943V28.7195C36.359 26.1466 36.2674 25.474 35.7539 24.275C35.291 23.1939 34.8992 22.5893 34.1246 21.7605C33.3645 20.9471 32.3832 20.234 31.4266 19.7997C30.1123 19.2031 28.149 18.8993 26.7407 19.0745ZM45.6391 19.1235C43.7178 19.4322 42.2594 20.1751 40.8752 21.5502C39.8947 22.5241 39.4653 23.1654 38.9581 24.4131C38.4106 25.7602 38.4108 25.7565 38.4118 33.8953L38.4127 41.3459L38.6331 41.8128C39.0441 42.6831 39.81 43.1626 40.7892 43.1626C41.7169 43.1626 42.4872 42.7084 42.9196 41.9062C43.1198 41.5345 43.121 41.4952 43.1675 34.0159L43.2141 26.4991L43.5093 25.8754C43.9226 25.002 44.453 24.461 45.3049 24.044C45.984 23.7117 46.0511 23.6978 46.9915 23.6978C47.8975 23.6978 48.0174 23.72 48.5938 23.9934C49.4607 24.4045 50.0009 24.934 50.4204 25.7837L50.7688 26.4891L50.8154 34.0109C50.8667 42.2879 50.8225 41.6898 51.4378 42.4219C52.0441 43.1433 53.2957 43.3782 54.2249 42.9451C54.7935 42.6801 55.3242 42.0873 55.4721 41.5521C55.5518 41.2636 55.5728 39.1228 55.5509 33.5023C55.5212 25.9017 55.5195 25.8405 55.3142 25.1727C54.41 22.231 52.1423 20.0583 49.1949 19.3098C48.0461 19.018 46.726 18.9489 45.6391 19.1235ZM65.1669 19.0745C61.4583 19.5361 58.5189 22.192 57.7629 25.7644C57.6656 26.2247 57.6268 27.0535 57.6256 28.7001L57.624 30.9943L57.8804 31.5007C58.1663 32.0649 58.7331 32.5518 59.2818 32.7043C59.506 32.7667 61.9611 32.801 66.2046 32.801C70.4481 32.801 72.9031 32.7667 73.1274 32.7043C73.6769 32.5516 74.2427 32.065 74.5343 31.4941L74.7964 30.9812L74.7599 28.4133C74.7268 26.0886 74.7037 25.7792 74.5146 25.1452C73.8486 22.9104 72.161 20.924 70.0632 19.9057C68.661 19.225 66.6716 18.8872 65.1669 19.0745ZM10.2629 24.0549C11.1029 24.4594 11.6335 25.0007 12.0474 25.8754L12.3426 26.4991L12.3729 30.7944C12.3943 33.8438 12.3713 35.2387 12.2932 35.6033C11.976 37.0857 10.7518 38.2293 9.19068 38.5014C7.21956 38.8451 5.25041 37.5342 4.83723 35.6033C4.75917 35.2387 4.73613 33.8438 4.75758 30.7944L4.78789 26.4991L5.08308 25.8754C5.45783 25.0834 5.99142 24.5036 6.68738 24.1322C7.43025 23.7359 7.81918 23.6527 8.76277 23.6889C9.45826 23.7155 9.66056 23.7649 10.2629 24.0549ZM29.3988 24.0191C29.744 24.184 30.1782 24.4523 30.3638 24.6154C31.1546 25.3098 31.6361 26.4852 31.5836 27.5929L31.5557 28.1799H27.7783H24.001L23.9731 27.5929C23.9011 26.0745 24.6891 24.7353 26.0455 24.0709C26.7838 23.7092 27.061 23.6542 27.9717 23.6888C28.6415 23.7143 28.873 23.7679 29.3988 24.0191ZM67.9022 24.0549C69.1872 24.6737 69.9354 25.8158 70.0119 27.2755C70.0434 27.8761 70.0228 28.0795 69.9242 28.1421C69.8534 28.187 68.1795 28.2237 66.2046 28.2237C64.2296 28.2237 62.5558 28.187 62.485 28.1421C62.3864 28.0795 62.3658 27.8761 62.3973 27.2755C62.4302 26.6469 62.4966 26.3662 62.7306 25.8655C63.2085 24.8433 64.1951 24.0129 65.2482 23.7466C65.4408 23.6979 65.96 23.672 66.4021 23.6889C67.0976 23.7155 67.2999 23.7649 67.9022 24.0549ZM87.1275 24.0545C87.9371 24.4551 88.5323 25.0545 88.9343 25.8743L89.195 26.4058V31.0746V35.7434L88.9076 36.3506C88.3788 37.4675 87.3172 38.2716 86.0728 38.4976C84.2063 38.8364 82.3213 37.6878 81.7719 35.877C81.5945 35.292 81.5865 35.0406 81.6127 30.88L81.6404 26.4991L81.9382 25.8697C82.4251 24.8406 83.4117 24.0107 84.4613 23.7473C84.6539 23.699 85.1749 23.6703 85.6192 23.6837C86.337 23.7052 86.5049 23.7465 87.1275 24.0545ZM21.2955 35.0241C20.3289 35.3587 19.7638 36.068 19.685 37.0456C19.636 37.6529 19.891 38.3431 20.5214 39.31C23.4736 43.8376 30.1015 44.5019 33.9436 40.6552C34.6606 39.9374 35.4227 38.8133 35.7094 38.0504C36.0913 37.0348 35.7787 35.9437 34.9405 35.3654C33.6258 34.4583 32.1109 34.8601 31.2803 36.3361C30.5676 37.6025 29.6635 38.2819 28.3969 38.5026C26.7268 38.7938 25.1147 37.9283 24.231 36.2659C23.8681 35.5833 23.4154 35.2052 22.7097 34.9954C22.1157 34.8188 21.8743 34.8237 21.2955 35.0241ZM59.909 34.9385C59.4338 35.0629 59.0758 35.2916 58.6755 35.7264C57.826 36.6491 57.9032 37.7084 58.9356 39.2915C60.1708 41.186 62.1638 42.5311 64.4316 43.0011C65.5816 43.2394 67.37 43.1923 68.4896 42.8943C69.4453 42.6398 70.7388 42.0014 71.555 41.3812C72.8644 40.3862 74.1941 38.4584 74.2948 37.4085C74.3583 36.7469 74.1795 36.2107 73.7343 35.727C73.1712 35.1154 72.7297 34.9149 71.9379 34.9112C71.083 34.9073 70.402 35.2578 69.9819 35.9181C69.1388 37.2433 68.9205 37.5236 68.5114 37.8058C67.7662 38.3199 67.1056 38.5262 66.2046 38.5262C65.3035 38.5262 64.6429 38.3199 63.8978 37.8058C63.487 37.5224 63.221 37.1797 62.4272 35.9105C61.9592 35.1624 60.7852 34.7091 59.909 34.9385Z" fill="white"/>
</svg>
