<svg width="320" height="80" viewBox="0 0 320 80" fill="none" xmlns="http://www.w3.org/2000/svg">
<rect width="320" height="80" rx="8" fill="white" fill-opacity="0.05"/>
<g opacity="0.4">
<path fill-rule="evenodd" clip-rule="evenodd" d="M108.939 10.2818C108.475 10.4745 108.06 11.0052 107.281 12.4047C104.889 16.6994 100.773 20.8141 96.4617 23.2212C95.7272 23.6312 94.9678 24.1558 94.7739 24.3867C93.6817 25.6879 94.5891 27.6705 96.2759 27.669C97.1945 27.6682 97.7608 27.2348 98.4835 25.9793C101.478 20.7771 105.137 17.1135 110.225 14.2227C111.252 13.6392 111.702 13.1132 111.825 12.3504C111.934 11.6798 111.511 10.7918 110.908 10.4227C110.428 10.129 109.472 10.0606 108.939 10.2818ZM116.304 10.8759C115.645 11.2798 115.069 12.032 114.23 13.5872C112.88 16.0911 110.789 18.6359 106.757 22.6833C102.697 26.7581 100.166 28.8501 97.678 30.1853C95.9757 31.0989 95.1004 31.9048 94.8698 32.7705C94.4012 34.5297 95.8516 36.0771 97.6888 35.7778C98.6982 35.6134 99.1913 35.0419 100.929 32.0236C101.992 30.1767 104.081 27.6436 107.057 24.592C111.277 20.2645 114.072 17.9034 116.919 16.2608C117.747 15.7829 118.606 15.2627 118.828 15.1048C119.899 14.342 120.214 12.6503 119.473 11.6416C118.729 10.63 117.279 10.2796 116.304 10.8759ZM103.121 11.3309C102.922 11.4884 102.387 12.251 101.934 13.0256C100.859 14.8608 99.1314 16.632 97.5191 17.5505C95.7283 18.5708 95.3126 18.9684 95.3126 19.6616C95.3126 20.1227 95.4078 20.3173 95.7917 20.6417C96.5847 21.3115 97.433 20.9724 98.0599 19.7349C99.2837 17.3194 101.255 15.3168 103.72 13.9851C105.16 13.2075 105.492 12.3226 104.659 11.4862C104.149 10.9745 103.638 10.9228 103.121 11.3309ZM123.234 13.2943C122.424 13.6635 121.748 14.4853 120.772 16.2847C117.069 23.1134 107.135 33.0734 100.357 36.7522C97.9083 38.0813 96.9346 39.3499 97.2169 40.8432C97.5905 42.8185 99.7494 43.9113 101.492 43.0069C102.156 42.6621 102.896 41.708 103.852 39.9646C106.358 35.3966 111.455 29.5568 117.37 24.4785C120.119 22.1189 121.668 21.01 124.196 19.5934C126.046 18.5568 126.733 17.9829 127.102 17.1669C128.211 14.7163 125.678 12.1801 123.234 13.2943ZM126.083 20.8562C125.489 21.2198 125.054 21.8054 124.131 23.487C122.673 26.1422 120.099 29.2307 115.92 33.3391C112.179 37.0176 109.875 38.8631 107.169 40.3503C106.526 40.7032 105.771 41.2089 105.491 41.474C104.192 42.7037 104.51 44.8232 106.099 45.5287C107.584 46.188 108.907 45.4477 110.001 43.3462C111.411 40.6358 113.845 37.6132 117.816 33.6395C121.74 29.7131 124.529 27.429 127.147 25.9979C129.158 24.8982 129.792 24.1469 129.792 22.8604C129.792 22.1626 129.327 21.4021 128.599 20.9098C127.944 20.4668 126.76 20.4416 126.083 20.8562ZM127.444 28.8622C126.805 29.1556 126.701 29.2917 125.248 31.7503C122.98 35.5893 118.903 39.5712 115.112 41.6493C113.271 42.6586 112.78 43.199 112.78 44.2191C112.779 45.7366 114.323 46.7161 115.639 46.0329C116.167 45.7588 116.568 45.2263 117.52 43.539C119.576 39.8943 124.097 35.3412 127.533 33.4551C129.706 32.2625 130.242 31.7072 130.243 30.647C130.244 29.147 128.813 28.2339 127.444 28.8622ZM127.272 35.6084C127.092 35.7353 126.559 36.5004 126.089 37.3087C124.99 39.197 123.154 41.0513 121.428 42.0163C120.769 42.3842 120.082 42.8178 119.9 42.98C119.447 43.3836 119.332 44.0205 119.614 44.5677C119.875 45.0747 120.119 45.2015 120.832 45.2015C121.422 45.2015 121.796 44.8143 122.61 43.3616C123.751 41.3267 125.495 39.6017 127.566 38.4593C128.888 37.7302 129.22 37.3654 129.22 36.6416C129.22 35.627 128.095 35.0301 127.272 35.6084ZM221.387 46.2657C220.23 46.4954 219.243 47.0292 218.556 47.796C217.693 48.7599 217.36 49.7532 217.455 51.0836C217.579 52.8269 218.353 53.9678 219.945 54.7542C220.901 55.226 221.041 55.2522 222.612 55.2522C223.86 55.2522 224.448 55.1836 224.986 54.9751L225.702 54.6982V53.3504C225.702 52.6092 225.678 52.0027 225.65 52.0027C225.621 52.0027 225.198 52.1413 224.709 52.3106C223.3 52.7985 222.27 52.8535 221.441 52.4851C219.778 51.7468 219.713 49.7896 221.328 49.059C222.158 48.683 223.704 48.8009 224.85 49.3276L225.702 49.7189V48.3121V46.9052L225.062 46.6636C223.649 46.1304 222.626 46.0196 221.387 46.2657ZM131.926 47.053C131.835 47.4893 131.419 49.4107 131.003 51.3226C130.586 53.2345 130.245 54.8838 130.244 54.9877C130.244 55.1248 130.612 55.1766 131.586 55.1766H132.929L133.079 54.4587C133.162 54.0638 133.45 52.5846 133.719 51.1715C134.088 49.2296 134.236 48.6945 134.325 48.98C134.389 49.1878 134.618 50.582 134.832 52.0783C135.046 53.5745 135.251 54.8838 135.287 54.9877C135.337 55.1288 136.003 55.1766 137.922 55.1766C139.848 55.1766 140.505 55.1293 140.547 54.9877C140.577 54.8838 140.784 53.5745 141.006 52.0783C141.229 50.582 141.461 49.1903 141.522 48.9856C141.603 48.7129 141.763 49.2996 142.121 51.177C142.39 52.5872 142.679 54.0638 142.763 54.4587L142.916 55.1766H144.334C145.114 55.1766 145.751 55.1257 145.751 55.0632C145.751 55.0008 145.511 53.8277 145.219 52.4561C144.601 49.5547 143.945 46.3931 143.945 46.3142C143.945 46.2841 142.908 46.2595 141.64 46.2595H139.335L138.763 49.32C138.448 51.0032 138.142 52.548 138.083 52.7528C137.97 53.1488 137.935 52.9986 137.084 48.4132L136.685 46.2595H134.388H132.092L131.926 47.053ZM147.257 50.7155V55.1766H151.022H154.786V54.0431V52.9095H152.301H149.817V52.3806V51.8516H152.226H154.635V50.718V49.5845H152.226H149.817V49.1349V48.6852L152.264 48.6437L154.71 48.6021V47.4686V46.3351L150.984 46.2947L147.257 46.2542V50.7155ZM155.538 47.5442V48.8288H156.966H158.393L158.434 51.9649L158.474 55.101L159.792 55.1447L161.109 55.1884V52.0086V48.8288H162.54H163.97V47.5442V46.2595H159.754H155.538V47.5442ZM166.531 46.5995C166.141 47.5268 163.368 54.9322 163.368 55.0457C163.368 55.1177 163.964 55.1766 164.693 55.1766H166.019L166.289 54.4209L166.56 53.6652H168.49H170.42L170.67 54.4209L170.92 55.1766H172.338C173.119 55.1766 173.757 55.131 173.757 55.075C173.757 55.0193 173.596 54.5603 173.399 54.0549C173.202 53.5496 172.446 51.5889 171.719 49.6979L170.398 46.2595H168.536C166.748 46.2595 166.668 46.2729 166.531 46.5995ZM179.177 46.7885V47.3175L177.935 47.319C176.952 47.32 176.535 47.3939 175.94 47.6725C173.961 48.5974 173.477 51.4884 175.017 53.1887C175.628 53.8638 176.451 54.1682 177.86 54.2397L179.177 54.3068V54.7416V55.1766H180.532H181.887V54.7416V54.3068L183.205 54.2397C185.683 54.1138 186.903 52.9523 186.903 50.718C186.903 49.6732 186.629 48.9346 186.014 48.3236C185.295 47.6081 184.765 47.4116 183.318 47.324L181.963 47.2419L181.915 46.7507L181.868 46.2595H180.523H179.177V46.7885ZM188.211 50.7066V55.1766H189.491H190.771V54.1186V53.0607H191.968C194.229 53.0607 195.38 52.5459 196.045 51.2384C196.661 50.026 196.356 48.0799 195.415 47.2218C194.525 46.4097 194.196 46.3382 191.109 46.2858L188.211 46.2364V50.7066ZM199.871 46.7862C199.75 47.0759 199.17 48.5893 198.582 50.149C197.994 51.7089 197.351 53.4118 197.153 53.9332C196.955 54.4546 196.793 54.9476 196.793 55.0289C196.793 55.1139 197.356 55.1766 198.118 55.1766H199.444L199.715 54.4209L199.985 53.6652H201.892H203.799L204.066 54.4209L204.334 55.1766H205.758C206.541 55.1766 207.182 55.153 207.182 55.1242C207.182 55.0747 206.598 53.525 205.208 49.8868C204.874 49.014 204.429 47.8407 204.218 47.2797L203.835 46.2595H201.962H200.09L199.871 46.7862ZM208.236 50.718V55.1884L209.554 55.1447L210.871 55.101L210.911 53.6652C210.984 51.0858 210.819 51.1245 212.576 53.2744L214.13 55.1766H215.775C216.68 55.1766 217.421 55.1356 217.421 55.0855C217.421 55.0353 216.614 53.9939 215.629 52.7714L213.838 50.5486L214.378 49.8777C214.674 49.5086 215.413 48.6135 216.018 47.8883C216.624 47.1631 217.119 46.5001 217.119 46.4147C217.119 46.319 216.552 46.2595 215.641 46.2595H214.162L212.594 48.2135C211.731 49.2881 211.003 50.1452 210.976 50.1182C210.949 50.0911 210.914 49.2289 210.899 48.2021L210.871 46.3351L209.554 46.2914L208.236 46.2477V50.718ZM169.081 49.9125C169.334 50.6331 169.541 51.2623 169.541 51.3105C169.541 51.3587 169.067 51.3982 168.487 51.3982C167.907 51.3982 167.433 51.3472 167.432 51.2848C167.43 50.9661 168.424 48.4034 168.515 48.4951C168.573 48.5539 168.828 49.1917 169.081 49.9125ZM202.439 49.8112C202.673 50.4762 202.894 51.1054 202.931 51.2092C202.981 51.349 202.72 51.3982 201.928 51.3982C201.34 51.3982 200.858 51.3472 200.856 51.2848C200.851 50.9874 201.839 48.3942 201.92 48.4912C201.972 48.5522 202.205 49.1462 202.439 49.8112ZM193.33 48.98C193.496 49.1462 193.631 49.4523 193.631 49.6601C193.631 50.3742 193.158 50.6425 191.9 50.6425H190.771V49.6601V48.6777H191.9C192.828 48.6777 193.083 48.7315 193.33 48.98ZM179.177 50.718V51.8516H178.437C177.477 51.8516 177.256 51.7567 176.982 51.2244C176.541 50.3676 177.278 49.5912 178.537 49.5868L179.177 49.5845V50.718ZM183.842 49.9602C184.257 50.3372 184.244 51.1435 183.816 51.5434C183.57 51.7733 183.284 51.8516 182.687 51.8516H181.887V50.6993V49.547L182.713 49.6158C183.222 49.6581 183.655 49.7905 183.842 49.9602ZM130.765 60.9569C130.724 61.0633 130.709 63.0879 130.731 65.4559L130.771 69.7614H132.05H133.33L133.371 66.5497L133.411 63.338H135.748H138.085L138.041 62.0911L137.998 60.8443L134.418 60.8037C131.618 60.772 130.822 60.8053 130.765 60.9569ZM138.976 65.2924V69.8487L140.294 69.805L141.611 69.7614V68.7034V67.6454L143.267 67.5699C145.278 67.4781 146.014 67.1488 146.701 66.0327C147.495 64.7427 147.25 62.7243 146.178 61.7206C145.4 60.9919 144.802 60.866 141.799 60.7991L138.976 60.736V65.2924ZM147.409 60.9522C147.409 61.059 147.765 61.6906 148.199 62.3556C149.884 64.9352 150.871 66.5364 150.871 66.69C150.871 66.8659 149.925 68.4909 149.489 69.0639C148.955 69.765 149.087 69.8522 150.605 69.8049L151.996 69.7614L154.067 66.4363C155.206 64.6076 156.439 62.639 156.807 62.0617C157.176 61.4843 157.444 60.9572 157.402 60.8904C157.309 60.7383 154.918 60.733 154.705 60.8843C154.619 60.9454 154.111 61.6926 153.576 62.5446C153.041 63.3965 152.569 64.0925 152.527 64.091C152.486 64.0895 151.978 63.3584 151.398 62.4663L150.344 60.8443L148.876 60.801C147.757 60.7681 147.408 60.8041 147.409 60.9522ZM158.017 60.9572C157.976 61.0634 157.961 63.0879 157.983 65.4559L158.023 69.7614H159.303H160.582L160.623 66.5497L160.664 63.338H162.314H163.964L164.005 66.5497L164.045 69.7614H165.325H166.605L166.575 65.3028L166.544 60.8443L162.317 60.8041C158.995 60.7726 158.075 60.8053 158.017 60.9572ZM168.648 60.9835C168.513 61.1464 168.478 62.305 168.514 65.4821L168.562 69.7614H169.842H171.122L171.163 66.5497L171.203 63.338H172.853H174.504L174.544 66.5497L174.585 69.7614H175.865H177.144V65.3028V60.8443L172.987 60.8041C169.501 60.7705 168.8 60.7995 168.648 60.9835ZM143.953 63.4175C144.541 63.7231 144.606 64.3833 144.099 64.9059C143.738 65.278 141.876 65.4521 141.667 65.1334C141.536 64.9339 141.518 63.5363 141.644 63.3002C141.754 63.0926 143.497 63.181 143.953 63.4175Z" fill="white"/>
</g>
</svg>
