<svg width="320" height="80" viewBox="0 0 320 80" fill="none" xmlns="http://www.w3.org/2000/svg">
<rect width="320" height="80" rx="8" fill="white" fill-opacity="0.05"/>
<g opacity="0.4">
<path fill-rule="evenodd" clip-rule="evenodd" d="M89.7714 29.5414V33.8727L88.9259 33.0638C87.4785 31.679 86.0243 31.156 83.6571 31.1691C81.9822 31.1783 80.9057 31.4345 79.4286 32.1757C76.0744 33.8587 74 37.4652 74 41.6134C74 45.7617 76.0744 49.3682 79.4286 51.0512C80.9057 51.7924 81.9822 52.0486 83.6571 52.0578C86.0243 52.0708 87.4785 51.5479 88.9259 50.1631L89.7714 49.3542V50.4624V51.5706H92.2857H94.8V38.3903V25.2101H92.2857H89.7714V29.5414ZM165.086 28.4332V31.6563H163.429H161.771V33.4981V35.3399H163.424H165.076L165.11 41.5847C165.143 47.7849 165.145 47.8341 165.404 48.4802C165.912 49.7451 166.908 50.7465 168.154 51.2455C168.747 51.4827 169.025 51.5077 171.514 51.5465L174.229 51.5889V49.3926V47.1963L172.714 47.1959C170.989 47.1954 170.643 47.0746 170.304 46.3556C170.131 45.9892 170.115 45.414 170.142 40.6728L170.171 35.3974L172.029 35.3658L173.886 35.3341V33.4952V31.6563H172H170.114V28.4332V25.2101H167.6H165.086V28.4332ZM105.714 31.2044C101.31 31.7934 97.6927 35.1665 96.8091 39.5078C96.5779 40.644 96.5779 42.5829 96.8091 43.7191C97.6263 47.7337 100.722 50.8817 104.83 51.8761C106.063 52.1744 108.191 52.1225 109.573 51.7603C110.826 51.4321 112.265 50.7514 113.182 50.0543C114.535 49.0253 115.835 47.4161 116.457 45.999L116.74 45.3546H114.056C112.451 45.3546 111.371 45.3982 111.371 45.4631C111.371 45.5229 111.091 45.8771 110.748 46.2502C109.655 47.4393 108.31 47.9656 106.642 47.8573C104.249 47.702 102.679 46.2923 101.835 43.5416L101.756 43.2826H109.364H116.971L116.971 42.1027C116.969 36.5131 113.983 32.324 109.316 31.3645C108.272 31.1497 106.659 31.078 105.714 31.2044ZM128.743 31.1869C127.07 31.4245 125.768 32.0376 124.673 33.1032L123.943 33.8138V32.7351V31.6563H121.429H118.914V44.8366V58.0168H121.429H123.943V53.7149V49.413L124.673 50.1237C126.056 51.4696 127.669 52.071 129.886 52.0679C133.801 52.0623 137.01 49.9827 138.677 46.3726C139.419 44.7651 139.652 43.6254 139.652 41.6134C139.652 40.1789 139.607 39.7115 139.386 38.8508C138.574 35.6879 136.513 33.1352 133.797 31.9251C132.453 31.3263 130.139 30.9884 128.743 31.1869ZM150.343 31.1939C149.216 31.3367 148.213 31.6286 147.18 32.1146C145.985 32.6767 145.333 33.1277 144.359 34.0666C142.257 36.0912 141.164 38.6722 141.164 41.6134C141.164 44.5547 142.257 47.1357 144.359 49.1603C145.335 50.1005 145.984 50.5491 147.194 51.1204C149.908 52.4013 153.178 52.4013 155.891 51.1204C158.613 49.836 160.561 47.5958 161.464 44.7144C162.823 40.3732 161.144 35.5366 157.369 32.9209C155.482 31.6129 152.609 30.9069 150.343 31.1939ZM241.171 31.6588C239.794 32.0092 238.612 33.1213 238.214 34.4417C237.734 36.0331 238.17 37.8477 239.273 38.8516C240.68 40.1318 242.935 40.3093 244.382 39.2537C245.256 38.6157 246 37.1095 246 35.9767V35.455H243.829H241.657V36.1457V36.8363H242.971C243.694 36.8363 244.286 36.8706 244.286 36.9125C244.286 36.9544 244.155 37.2135 243.995 37.4883C243.617 38.1389 243.024 38.4479 242.155 38.4479C240.574 38.4479 239.469 37.1369 239.651 35.4753C239.889 33.3028 242.067 32.3175 243.736 33.6275C244.11 33.9208 244.25 33.9585 244.965 33.9585C245.408 33.9585 245.771 33.9146 245.771 33.8607C245.771 33.6845 245.134 32.8733 244.683 32.4743C244.439 32.2594 244.015 31.9831 243.739 31.8603C243.161 31.6028 241.808 31.4967 241.171 31.6588ZM183.6 35.8088V39.8461L185.914 39.809C188.078 39.7741 188.264 39.7539 188.779 39.4987C189.459 39.1616 189.869 38.569 189.96 37.7913C190.041 37.1063 189.873 36.5205 189.473 36.0856L189.186 35.7729L189.416 35.526C190.428 34.4412 190.053 32.6245 188.686 31.989C188.29 31.8048 187.92 31.7761 185.914 31.774L183.6 31.7714V35.8088ZM191.486 35.8003V39.8292H192.286H193.086V38.2752V36.7212H193.698H194.311L195.486 38.2752L196.66 39.8292H197.616C198.141 39.8292 198.571 39.7903 198.57 39.7429C198.569 39.6955 198.059 38.9868 197.437 38.1684L196.306 36.6802L196.843 36.4294C198.139 35.825 198.6 34.3548 197.91 33.026C197.653 32.5293 197.476 32.3514 196.983 32.0919L196.374 31.7714H193.93H191.486V35.8003ZM202.25 31.9679C202.051 32.3562 198.914 39.6853 198.914 39.7623C198.914 39.8047 199.281 39.824 199.73 39.8055L200.545 39.7717L200.922 38.9083L201.299 38.045L203.086 38.0132L204.874 37.9815L205.29 38.9053L205.707 39.8292H206.547C207.3 39.8292 207.38 39.808 207.322 39.6247C207.287 39.5121 206.52 37.7121 205.617 35.6245L203.976 31.829L203.166 31.7953C202.482 31.7668 202.34 31.7936 202.25 31.9679ZM208.286 35.8003V39.8292H209.084H209.882L209.912 37.0537L209.943 34.2782L211.886 37.0518L213.829 39.8254L214.714 39.8273L215.6 39.8292V35.8003V31.7714H214.8H214V34.4833C214 36.1229 213.958 37.1691 213.894 37.1292C213.836 37.0929 212.953 35.8725 211.932 34.4173L210.076 31.7714H209.181H208.286V35.8003ZM217.429 35.8042V39.8553L219.4 39.8035C221.832 39.7397 222.373 39.5728 223.378 38.5758C224.271 37.6891 224.553 36.9252 224.491 35.5608C224.415 33.9072 223.704 32.8226 222.242 32.1323C221.634 31.8452 221.488 31.8269 219.514 31.7911L217.429 31.7531V35.8042ZM225.886 35.8003V39.8292H226.686H227.486V35.8003V31.7714H226.686H225.886V35.8003ZM229.314 35.8003V39.8292H230.112H230.91L230.941 37.0389L230.971 34.2485L232.917 37.0101L234.863 39.7717L235.746 39.8053L236.629 39.8389V35.8052V31.7714H235.829H235.029V34.5489V37.3265L233.077 34.5489L231.126 31.7714H230.22H229.314V35.8003ZM188.137 33.5479C188.358 33.8075 188.406 33.9595 188.351 34.2363C188.227 34.8693 187.931 34.9891 186.486 34.992L185.2 34.9945V34.1504C185.2 33.6861 185.239 33.2667 185.286 33.2185C185.333 33.1701 185.93 33.1497 186.612 33.1728C187.816 33.2135 187.861 33.2246 188.137 33.5479ZM196.14 33.3829C196.705 33.7538 196.736 34.572 196.2 34.9964C195.948 35.1962 195.735 35.2248 194.499 35.2248H193.086V34.1769V33.1291L194.486 33.1728C195.451 33.2028 195.965 33.2682 196.14 33.3829ZM221.438 33.4649C222.423 33.904 222.983 34.8637 222.891 35.9571C222.759 37.5216 221.76 38.3172 219.914 38.3277L219.029 38.3328V35.7265V33.1203L219.981 33.1802C220.559 33.2165 221.131 33.3282 221.438 33.4649ZM203.724 35.3161L204.257 36.5485L203.171 36.5817C202.574 36.5999 202.062 36.5916 202.034 36.5632C202.005 36.5348 202.231 35.9421 202.534 35.2461C202.837 34.55 203.109 34.0037 203.138 34.032C203.167 34.0604 203.431 34.6383 203.724 35.3161ZM85.7143 35.4963C87.4682 35.9683 88.763 37.2771 89.4034 39.2256C89.6567 39.9962 89.6967 40.3197 89.6987 41.6134C89.7008 42.9515 89.6677 43.2074 89.3856 44.0308C89.0023 45.15 88.568 45.8554 87.8401 46.5412C85.8815 48.3865 82.6911 48.3429 80.804 46.4449C78.0501 43.6751 78.5886 37.8793 81.7745 35.9988C82.8158 35.3842 84.4993 35.1695 85.7143 35.4963ZM108.343 35.4963C109.998 35.9417 111.271 37.166 111.926 38.9415C112.061 39.3079 112.171 39.6316 112.171 39.6609C112.171 39.6902 109.852 39.7141 107.016 39.7141H101.861L101.934 39.3976C101.974 39.2234 102.193 38.695 102.421 38.2232C103.084 36.8497 104.195 35.8899 105.546 35.5244C106.338 35.3101 107.603 35.2973 108.343 35.4963ZM130.646 35.5005C132.383 35.9664 133.671 37.2667 134.307 39.1961C134.573 40.0028 134.61 40.3026 134.61 41.6134C134.611 42.9114 134.572 43.2281 134.318 44.0013C133.513 46.4504 131.66 47.8874 129.314 47.8829C127.253 47.8788 125.601 46.8436 124.694 44.9879C123.1 41.7244 124.165 37.2676 126.862 35.9204C128.021 35.3414 129.458 35.1819 130.646 35.5005ZM152.919 35.5174C154.751 35.995 156.144 37.5253 156.683 39.6519C156.945 40.6831 156.914 42.6778 156.62 43.745C155.906 46.3404 154.01 47.887 151.543 47.887C148.383 47.887 146.195 45.3211 146.195 41.6134C146.195 40.2852 146.408 39.3127 146.937 38.2177C147.349 37.3639 148.336 36.3007 149.062 35.9274C150.187 35.3498 151.67 35.192 152.919 35.5174ZM187.825 36.6382C188.278 36.8692 188.47 37.3095 188.298 37.7265C188.095 38.2216 187.746 38.3328 186.395 38.3328H185.2V37.4119V36.491L186.371 36.4927C187.078 36.4938 187.655 36.5514 187.825 36.6382ZM194.563 43.4325C193.379 43.7711 192.492 44.5398 191.954 45.6946C191.696 46.2492 191.657 46.4845 191.657 47.4865C191.657 48.556 191.684 48.6956 192.03 49.4022C192.694 50.7613 193.902 51.5619 195.439 51.6613C196.69 51.7421 197.421 51.4704 198.3 50.597C199.098 49.8044 199.453 49.022 199.566 47.8056L199.633 47.0761L197.474 47.1074L195.314 47.1388L195.28 47.8582L195.246 48.5777H196.555C198.056 48.5777 198.092 48.6191 197.358 49.483C196.883 50.0421 196.362 50.2308 195.473 50.166C192.978 49.9842 192.337 46.2101 194.607 45.0706C195.342 44.7015 196.134 44.6846 196.829 45.0233C197.104 45.1576 197.39 45.3648 197.464 45.4837C197.576 45.6651 197.741 45.6999 198.487 45.6999H199.376L199.155 45.2631C198.864 44.689 198 43.8959 197.348 43.6058C196.694 43.3142 195.284 43.2265 194.563 43.4325ZM219.632 43.5157C219.107 43.6882 218.744 43.9135 218.249 44.3757C215.549 46.893 217.068 51.4267 220.689 51.6607C222.159 51.7558 223.496 51.1444 224.249 50.0328C224.458 49.7251 224.629 49.4273 224.629 49.3709C224.629 49.3145 224.251 49.2683 223.789 49.2683C223.075 49.2683 222.917 49.3052 222.732 49.5148C222.158 50.1648 220.779 50.3887 219.956 49.9658C219.055 49.5028 218.528 48.5872 218.528 47.4841C218.528 45.1627 220.934 43.9416 222.645 45.3946C222.96 45.6623 223.104 45.6999 223.816 45.6999C224.263 45.6999 224.628 45.661 224.628 45.6136C224.627 45.4364 224.178 44.7931 223.763 44.3752C222.784 43.3897 221.088 43.0368 219.632 43.5157ZM186.169 43.5168C185.931 43.904 182.726 51.4573 182.777 51.509C182.905 51.6383 184.26 51.5682 184.367 51.4267C184.428 51.3476 184.626 50.9319 184.808 50.503L185.139 49.7234L186.948 49.7548L188.758 49.7863L189.128 50.6497L189.498 51.513L190.32 51.5469C190.935 51.5721 191.143 51.5429 191.142 51.4318C191.142 51.3498 190.38 49.5216 189.45 47.369L187.757 43.4552L187.003 43.4214C186.534 43.4004 186.218 43.4365 186.169 43.5168ZM200.971 47.4841V51.5746L203.8 51.5438L206.629 51.513L206.663 50.7936L206.697 50.0741H204.634H202.571V49.1532V48.2323H204.571H206.571V47.4841V46.7359H204.571H202.571V45.815V44.8941H204.634H206.697L206.663 44.1747L206.629 43.4552L203.8 43.4245L200.971 43.3936V47.4841ZM208.223 43.5424C208.193 43.6219 208.182 45.4478 208.198 47.6L208.229 51.513H209.029H209.829L209.886 48.8103L209.943 46.1076L211.841 48.8103L213.739 51.513L214.612 51.5466L215.486 51.5802V47.489V43.3977H214.688H213.89L213.859 46.1732L213.829 48.9487L211.886 46.1751L209.943 43.4015L209.111 43.3996C208.547 43.3982 208.261 43.4443 208.223 43.5424ZM225.086 43.4667C225.086 43.5101 225.78 44.6973 226.629 46.1049L228.171 48.6641V50.1174V51.5706H228.971H229.771L229.772 50.1605L229.772 48.7503L231.314 46.1603C232.162 44.7358 232.856 43.5314 232.857 43.484C232.857 43.4366 232.479 43.3977 232.017 43.3977H231.176L230.11 45.1834C229.523 46.1655 229.001 46.9265 228.949 46.8744C228.897 46.8222 228.402 46.0316 227.848 45.1174L226.842 43.4552L225.964 43.4216C225.481 43.4031 225.086 43.4235 225.086 43.4667ZM187.371 46.6208C187.573 47.0956 187.811 47.6525 187.9 47.8582L188.06 48.2323H186.922H185.784L186.188 47.3402C186.41 46.8496 186.665 46.2718 186.755 46.0563C186.844 45.8409 186.937 45.6855 186.96 45.7109C186.984 45.7365 187.169 46.146 187.371 46.6208Z" fill="white"/>
</g>
</svg>
