<svg width="103" height="21" viewBox="0 0 103 21" fill="none" xmlns="http://www.w3.org/2000/svg">
<path opacity="0.6" fill-rule="evenodd" clip-rule="evenodd" d="M8.18907 0.081584C7.24803 0.262395 5.28354 1.05738 4.48969 1.57854C2.41431 2.9412 0.665576 5.71843 0.156256 8.46084C-0.150739 10.1146 0.0114816 13.0324 0.495335 14.5538C1.29681 17.0741 3.47024 19.5068 5.71386 20.3954C8.25684 21.4025 11.9753 21.1224 13.9975 19.7712C15.6915 18.6395 17.5966 16.1823 17.1826 15.6633C17.0117 15.4493 16.6817 15.7083 15.6554 16.861C14.9233 17.6833 13.8951 18.5792 13.323 18.8933C12.4162 19.3908 12.083 19.4538 10.3948 19.448C8.15318 19.4401 7.14176 19.0586 5.70183 17.6782C4.11652 16.1583 3.37379 13.905 3.38001 10.6333C3.38863 6.20185 4.86145 3.01648 7.45216 1.8263C10.1931 0.567293 13.3693 1.45258 14.9939 3.92846C15.3366 4.45088 15.7852 5.33887 15.9907 5.90195C16.351 6.88922 16.6698 7.25105 16.8706 6.90069C16.9233 6.80851 16.8639 5.23272 16.7386 3.39875C16.5561 0.729335 16.4507 0.0523872 16.2099 0.00483825C16.0378 -0.0289466 15.798 0.207339 15.6496 0.557283C15.5068 0.893879 15.2586 1.22151 15.098 1.28574C14.9372 1.34997 14.1297 1.12078 13.3033 0.776675C11.8211 0.159581 9.45655 -0.161792 8.18907 0.081584ZM19.0171 0.785434C19.0171 1.11598 19.1487 1.2067 19.6287 1.2067C20.3696 1.2067 21.3289 1.69283 21.4994 2.15455C21.5677 2.34016 21.6239 6.14867 21.6239 10.6179V18.7437L21.1316 19.2555C20.7713 19.6305 20.4222 19.7675 19.8282 19.7675C19.1481 19.7675 19.0171 19.8355 19.0171 20.1888C19.0171 20.5998 19.119 20.6088 23.1779 20.5537C26.7187 20.5057 27.3387 20.4507 27.3387 20.1846C27.3387 19.9671 27.0525 19.8376 26.3987 19.7594C25.8815 19.6974 25.2725 19.4718 25.0451 19.2578C24.6407 18.8772 24.6317 18.6866 24.6317 10.5822C24.6317 1.09033 24.5549 1.51097 26.3361 1.24633C27.0257 1.14372 27.3387 1.00045 27.3387 0.787102C27.3387 0.524123 26.703 0.468232 23.1779 0.420475C19.119 0.365418 19.0171 0.374386 19.0171 0.785434ZM28.3868 0.637365C28.219 1.09179 28.4004 1.2067 29.2861 1.2067C29.8446 1.2067 30.2027 1.35102 30.556 1.71869L31.0483 2.23046V10.4496C31.0483 18.4486 31.0373 18.6832 30.6326 19.218C30.2984 19.6601 30.0479 19.7675 29.3507 19.7675C28.5454 19.7675 28.0543 20.1295 28.3886 20.477C28.545 20.6398 36.5594 20.6398 36.7158 20.477C37.0501 20.1295 36.559 19.7675 35.7537 19.7675C35.0565 19.7675 34.806 19.6601 34.4718 19.218C34.0864 18.7087 34.0561 18.3963 34.0561 14.9427V11.217H34.9458H35.8355L39.0957 15.9093L42.3558 20.6017H49.1009C52.8107 20.6017 55.8999 20.5456 55.9657 20.477C56.2849 20.1452 55.8135 19.7675 55.0802 19.7675C54.5089 19.7675 54.1542 19.6259 53.7982 19.2555C53.3096 18.7475 53.306 18.7139 53.306 14.7219V10.7L56.9217 14.4516C58.9105 16.5152 60.5898 18.4157 60.6538 18.6753C60.8014 19.2751 60.4457 19.7245 59.7581 19.8073C59.4423 19.8453 59.2213 20.0004 59.2213 20.1846C59.2213 20.4522 59.8987 20.5055 63.8988 20.5535C68.1661 20.6046 68.5705 20.5792 68.5108 20.2634C68.4701 20.049 68.0965 19.8253 67.5286 19.6755C65.834 19.2286 64.6742 18.2847 60.3647 13.8453L56.0942 9.44581L59.6628 5.7812C63.1611 2.18896 64.422 1.2067 65.5355 1.2067C65.8066 1.2067 65.9387 1.06843 65.9387 0.784809C65.9387 0.375012 65.8366 0.364584 62.3795 0.419849C59.3737 0.468024 58.8203 0.525375 58.8203 0.789605C58.8203 0.98856 59.0521 1.12578 59.4571 1.16666C59.8072 1.2019 60.2008 1.36499 60.3316 1.52891C60.8509 2.17958 60.2973 2.9754 56.9655 6.36827C55.1349 8.23206 53.5628 9.75718 53.4716 9.75718C53.2817 9.75718 53.2482 3.01648 53.4345 2.29324C53.5817 1.72161 54.4606 1.2067 55.2893 1.2067C55.9502 1.2067 56.1672 1.00921 55.9352 0.618804C55.8219 0.427983 54.7726 0.377723 51.7902 0.420058C48.3012 0.469692 47.7891 0.519326 47.7347 0.813588C47.6868 1.07302 47.8869 1.17542 48.6068 1.25967C49.1857 1.32766 49.704 1.53892 49.9697 1.81504C50.3926 2.25486 50.3984 2.36748 50.3984 10.232C50.3984 14.6163 50.3341 18.438 50.2555 18.7247C50.0473 19.4843 49.4377 19.7804 48.0329 19.8044C46.5366 19.8301 45.0309 19.2273 44.129 18.2417C43.7947 17.8766 42.4833 16.0816 41.2148 14.2528L38.9083 10.9278L39.9953 10.4683C41.568 9.80347 42.4547 9.016 42.9989 7.80037C43.9457 5.68527 43.3714 3.13369 41.6578 1.84277C40.1445 0.702641 39.284 0.551026 33.6366 0.428608C29.1438 0.331216 28.4901 0.357285 28.3868 0.637365ZM68.746 0.785434C68.746 1.13871 68.8771 1.2067 69.5571 1.2067C70.151 1.2067 70.5001 1.34372 70.8605 1.71869L71.3527 2.23046V10.4496C71.3527 18.4486 71.3417 18.6832 70.937 19.218C70.6 19.6638 70.3539 19.7675 69.6337 19.7675C68.8797 19.7675 68.746 19.8303 68.746 20.1846C68.746 20.5942 68.8797 20.6017 76.232 20.6017H83.718L84.4729 18.0628C84.8882 16.6664 85.274 15.3994 85.3299 15.2474C85.3941 15.0735 85.2802 14.9709 85.0229 14.9709C84.7781 14.9709 84.5579 15.1544 84.4743 15.4286C84.1362 16.5365 83.1058 17.9204 82.2121 18.4666C81.3254 19.0088 81.1261 19.0411 78.2414 19.1114C75.3713 19.1813 75.1813 19.1612 74.7824 18.7464C74.3687 18.3162 74.3605 18.1571 74.3605 10.6049C74.3605 6.00748 74.4409 2.6826 74.5598 2.35726C74.7928 1.71952 75.8249 1.2067 76.8752 1.2067C77.4557 1.2067 77.5849 1.13475 77.5307 0.841742C77.4694 0.509525 77.0714 0.471778 73.1047 0.420475C68.8478 0.365627 68.746 0.374177 68.746 0.785434ZM86.5254 0.51161C86.1555 0.896382 86.4705 1.16145 87.4093 1.25529C89.196 1.43381 89.0987 0.902012 89.0987 10.4869C89.0987 20.049 89.1877 19.5493 87.449 19.7577C86.7556 19.8407 86.4783 19.971 86.4294 20.2367C86.3664 20.5789 86.8276 20.6017 93.8655 20.6017H101.368L102.134 18.2555C102.555 16.9652 102.939 15.7921 102.988 15.6487C103.04 15.4983 102.915 15.388 102.692 15.388C102.45 15.388 102.135 15.7054 101.844 16.2443C101.589 16.7152 101.108 17.4238 100.775 17.819C99.709 19.0812 99.2512 19.2211 95.8871 19.312C91.7349 19.424 91.9804 19.7258 92.052 14.6013L92.1065 10.6956L93.7107 10.6293C95.9041 10.5386 97.7321 10.762 98.2282 11.1811C98.455 11.373 98.7553 11.9991 98.8957 12.5726C99.0531 13.2159 99.261 13.6153 99.4385 13.6153C99.6749 13.6153 99.7361 12.9909 99.7812 10.1221C99.8333 6.81143 99.8163 6.62895 99.4559 6.62895C99.1664 6.62895 99.0447 6.83104 98.9452 7.47733C98.8716 7.95636 98.6025 8.54655 98.3272 8.83289C97.8554 9.3236 97.7451 9.34008 94.9184 9.34008H91.9972L92.0518 5.53408L92.1065 1.72807L94.2432 1.66759C95.4185 1.63443 97.0872 1.69867 97.9517 1.81024C99.767 2.04465 100.271 2.45966 100.652 4.03357C100.817 4.71344 100.976 4.96057 101.249 4.96057C101.593 4.96057 101.612 4.8102 101.509 2.92722C101.447 1.80899 101.362 0.776675 101.32 0.633194C101.26 0.430902 99.6095 0.372509 93.9509 0.372509C89.9403 0.372509 86.5988 0.435073 86.5254 0.51161ZM38.0647 2.2192C39.1699 2.83588 39.9135 3.94723 40.0246 5.1491C40.1641 6.65919 39.9359 7.58035 39.2096 8.44082C38.3729 9.43205 37.1816 9.96218 35.4533 10.113L34.0561 10.2347V6.15513C34.0561 3.08676 34.1183 2.04965 34.3067 1.97041C34.4447 1.91264 35.1904 1.85779 35.9642 1.84882C36.9753 1.83693 37.566 1.94121 38.0647 2.2192Z" fill="white"/>
</svg>
