<svg width="196" height="40" viewBox="0 0 196 40" fill="none" xmlns="http://www.w3.org/2000/svg">
<path opacity="0.6" fill-rule="evenodd" clip-rule="evenodd" d="M15.5831 0.963916C13.7924 1.29949 10.0541 2.77495 8.54348 3.7422C4.59422 6.27122 1.26653 11.4256 0.297342 16.5154C-0.286843 19.5848 0.0218485 25 0.94258 27.8236C2.46772 32.5012 6.60357 37.0162 10.873 38.6654C15.7121 40.5345 22.7879 40.0147 26.6361 37.507C29.8596 35.4064 33.4849 30.8461 32.6969 29.8827C32.3718 29.4856 31.7438 29.9664 29.7909 32.1056C28.3978 33.6318 26.4411 35.2946 25.3524 35.8775C23.627 36.801 22.9928 36.9179 19.7804 36.907C15.5148 36.8923 13.5901 36.1844 10.8501 33.6225C7.83337 30.8016 6.42003 26.6195 6.43186 20.5474C6.44827 12.3228 9.25091 6.41094 14.1808 4.20202C19.3965 1.86537 25.4406 3.50842 28.5321 8.10354C29.1842 9.07311 30.0378 10.7212 30.4289 11.7662C31.1146 13.5986 31.7213 14.2701 32.1032 13.6198C32.2036 13.4488 32.0906 10.5242 31.8521 7.12042C31.5049 2.16611 31.3042 0.909728 30.8459 0.82148C30.5185 0.758777 30.0622 1.19731 29.7798 1.84679C29.5081 2.4715 29.0358 3.07956 28.7301 3.19877C28.4241 3.31798 26.8875 2.89261 25.3151 2.25397C22.4945 1.10867 17.995 0.512222 15.5831 0.963916ZM36.1879 2.27023C36.1879 2.88371 36.4382 3.05208 37.3517 3.05208C38.7616 3.05208 40.5871 3.9543 40.9114 4.81124C41.0415 5.15572 41.1483 12.2241 41.1483 20.5187V35.5999L40.2116 36.5498C39.5259 37.2457 38.8616 37.5 37.7314 37.5C36.4371 37.5 36.1879 37.6262 36.1879 38.2818C36.1879 39.0447 36.3818 39.0614 44.1055 38.9592C50.8433 38.8702 52.0231 38.768 52.0231 38.2741C52.0231 37.8704 51.4786 37.63 50.2343 37.4849C49.2503 37.3699 48.0914 36.9511 47.6587 36.554C46.8891 35.8477 46.8719 35.4939 46.8719 20.4525C46.8719 2.8361 46.7258 3.61679 50.1153 3.12562C51.4275 2.93519 52.0231 2.66928 52.0231 2.27332C52.0231 1.78525 50.8135 1.68152 44.1055 1.59288C36.3818 1.4907 36.1879 1.50734 36.1879 2.27023ZM54.0176 1.99542C53.6982 2.83881 54.0436 3.05208 55.729 3.05208C56.7916 3.05208 57.4731 3.31992 58.1454 4.0023L59.0822 4.95213V20.2064C59.0822 35.0523 59.0612 35.4877 58.2912 36.4801C57.6551 37.3007 57.1785 37.5 55.8518 37.5C54.3194 37.5 53.385 38.1719 54.021 38.8167C54.3187 39.119 69.5693 39.119 69.8669 38.8167C70.503 38.1719 69.5685 37.5 68.0361 37.5C66.7094 37.5 66.2328 37.3007 65.5968 36.4801C64.8634 35.5349 64.8058 34.9551 64.8058 28.5455V21.6307H66.4988H68.1918L74.3958 30.3395L80.5994 39.0482H93.4347C100.494 39.0482 106.373 38.9441 106.498 38.8167C107.105 38.2009 106.208 37.5 104.813 37.5C103.726 37.5 103.051 37.2372 102.373 36.5498C101.443 35.6069 101.437 35.5446 101.437 28.1356V20.6712L108.317 27.634C112.102 31.4639 115.297 34.9911 115.419 35.473C115.7 36.5862 115.023 37.4203 113.714 37.5739C113.113 37.6444 112.693 37.9323 112.693 38.2741C112.693 38.7707 113.982 38.8698 121.594 38.9588C129.714 39.0536 130.484 39.0064 130.37 38.4204C130.293 38.0225 129.582 37.6072 128.501 37.3293C125.276 36.4998 123.069 34.748 114.869 26.5088L106.742 18.3435L113.533 11.5421C120.19 4.87511 122.589 3.05208 124.708 3.05208C125.224 3.05208 125.476 2.79546 125.476 2.26907C125.476 1.5085 125.281 1.48915 118.703 1.59172C112.983 1.68113 111.93 1.78757 111.93 2.27797C111.93 2.64722 112.371 2.9019 113.142 2.97776C113.808 3.04318 114.557 3.34585 114.806 3.65008C115.794 4.85769 114.74 6.33469 108.4 12.6317C104.917 16.0908 101.925 18.9213 101.752 18.9213C101.39 18.9213 101.327 6.41094 101.681 5.06864C101.961 4.00772 103.634 3.05208 105.211 3.05208C106.468 3.05208 106.881 2.68554 106.44 1.96097C106.224 1.60681 104.227 1.51353 98.5523 1.59211C91.913 1.68423 90.9384 1.77634 90.835 2.32248C90.7438 2.80398 91.1246 2.99402 92.4945 3.15039C93.5961 3.27657 94.5824 3.66866 95.088 4.18112C95.8928 4.99742 95.9038 5.20643 95.9038 19.8027C95.9038 27.9397 95.7813 35.0325 95.6318 35.5647C95.2357 36.9744 94.0757 37.524 91.4024 37.5685C88.5551 37.6161 85.6899 36.4975 83.9736 34.6683C83.3375 33.9906 80.8421 30.6592 78.4282 27.2651L74.039 21.0939L76.1075 20.2412C79.1002 19.0073 80.7875 17.5457 81.8231 15.2896C83.6249 11.3641 82.532 6.62847 79.2711 4.2326C76.3914 2.11657 74.7541 1.83518 64.0075 1.60798C55.458 1.42722 54.2141 1.4756 54.0176 1.99542ZM130.818 2.27023C130.818 2.9259 131.067 3.05208 132.361 3.05208C133.491 3.05208 134.156 3.30638 134.841 4.0023L135.778 4.95213V20.2064C135.778 35.0523 135.757 35.4877 134.987 36.4801C134.346 37.3076 133.877 37.5 132.507 37.5C131.072 37.5 130.818 37.6165 130.818 38.2741C130.818 39.0343 131.072 39.0482 145.063 39.0482H159.308L160.745 34.3362C161.535 31.7445 162.269 29.3931 162.375 29.111C162.498 28.7882 162.281 28.5977 161.791 28.5977C161.325 28.5977 160.906 28.9383 160.747 29.4473C160.104 31.5033 158.143 34.0718 156.442 35.0855C154.755 36.0919 154.376 36.1519 148.887 36.2823C143.425 36.412 143.063 36.3748 142.304 35.605C141.517 34.8065 141.502 34.5112 141.502 20.4947C141.502 11.9621 141.655 5.79127 141.881 5.18746C142.324 4.00385 144.288 3.05208 146.287 3.05208C147.391 3.05208 147.637 2.91854 147.534 2.37473C147.417 1.75815 146.66 1.6881 139.112 1.59288C131.011 1.49109 130.818 1.50695 130.818 2.27023ZM164.65 1.76202C163.946 2.47614 164.546 2.96809 166.332 3.14226C169.732 3.47358 169.547 2.48659 169.547 20.2756C169.547 38.0225 169.716 37.0951 166.408 37.4818C165.088 37.6358 164.561 37.8778 164.468 38.3709C164.348 39.006 165.225 39.0482 178.618 39.0482H192.895L194.352 34.6938C195.153 32.2991 195.885 30.1219 195.978 29.8557C196.076 29.5766 195.837 29.3718 195.414 29.3718C194.952 29.3718 194.354 29.9609 193.8 30.9611C193.316 31.8351 192.4 33.1503 191.765 33.8837C189.738 36.2262 188.866 36.4859 182.465 36.6547C174.564 36.8625 175.031 37.4226 175.167 27.9119L175.271 20.6631L178.323 20.54C182.497 20.3716 185.976 20.7862 186.92 21.5642C187.351 21.9202 187.923 23.0822 188.19 24.1466C188.489 25.3407 188.885 26.0819 189.223 26.0819C189.673 26.0819 189.789 24.923 189.875 19.5987C189.974 13.4542 189.942 13.1155 189.256 13.1155C188.705 13.1155 188.473 13.4906 188.284 14.6901C188.144 15.5791 187.632 16.6745 187.108 17.2059C186.21 18.1167 186 18.1472 180.621 18.1472H175.063L175.166 11.0835L175.271 4.01972L179.337 3.90747C181.573 3.84593 184.748 3.96514 186.393 4.17222C189.848 4.60727 190.807 5.37751 191.532 8.29861C191.846 9.56041 192.148 10.0191 192.667 10.0191C193.322 10.0191 193.359 9.74001 193.162 6.24528C193.045 4.16989 192.884 2.25397 192.803 1.98768C192.689 1.61223 189.548 1.50386 178.78 1.50386C171.149 1.50386 164.79 1.61997 164.65 1.76202ZM72.4338 4.93123C74.537 6.07576 75.9518 8.13837 76.1632 10.369C76.4288 13.1716 75.9946 14.8813 74.6125 16.4783C73.0202 18.3179 70.7533 19.3018 67.4646 19.5817L64.8058 19.8077V12.2361C64.8058 6.54138 64.9241 4.61656 65.2827 4.46948C65.5452 4.36226 66.9643 4.26047 68.4368 4.24382C70.3607 4.22176 71.4848 4.41529 72.4338 4.93123Z" fill="white"/>
</svg>
