<svg width="216" height="228" viewBox="0 0 216 228" fill="none" xmlns="http://www.w3.org/2000/svg">
<g opacity="0.5">
<path d="M110.88 211.154C110.808 211.154 110.736 211.154 110.664 211.128L17.9038 191.799C17.4238 191.698 17.0638 191.267 17.0158 190.735L14.1118 139.84L4.82381 97.0015C4.79981 96.9002 4.7998 96.7735 4.7998 96.6722L8.51981 31.7935C8.54381 31.2615 8.9038 30.8309 9.3838 30.7295L80.9998 15.2255C81.0958 15.2002 81.1678 15.2002 81.2638 15.2002L158.448 17.8095C158.976 17.8349 159.432 18.2402 159.504 18.7975C159.576 19.3549 159.264 19.8869 158.76 20.0642L153.384 21.8629L192.432 23.9402C193.008 23.9655 193.464 24.4722 193.464 25.0802V73.2642L200.064 65.7909C200.328 65.4869 200.736 65.3602 201.144 65.4615C201.528 65.5629 201.84 65.8922 201.936 66.2975L212.76 112.658C212.808 112.86 212.808 113.063 212.736 113.266L200.424 155.8C200.4 155.876 200.376 155.952 200.328 156.028L179.376 194.864C179.16 195.295 178.704 195.523 178.248 195.422L130.392 186.859L111.744 210.698C111.504 211.002 111.192 211.154 110.88 211.154ZM19.1278 189.696L110.424 208.722L129.048 184.883C129.288 184.554 129.696 184.427 130.08 184.478L177.792 193.015L198.312 154.99L210.504 112.86L200.256 68.8815L193.152 76.9375C192.84 77.2922 192.384 77.3935 191.952 77.2162C191.544 77.0389 191.256 76.6082 191.256 76.1522V26.1189L147.168 23.7629C146.64 23.7375 146.208 23.3069 146.136 22.7495C146.064 22.1922 146.376 21.6602 146.88 21.5082L151.944 19.8362L81.2878 17.4295L10.6318 32.7309L6.95981 96.5708L16.2478 139.435L19.1278 189.696Z" fill="white"/>
<path d="M110.88 211.154C110.28 211.154 109.776 210.647 109.776 209.988V154.61C109.776 154.28 109.92 153.951 110.16 153.748C110.4 153.52 110.712 153.419 111.024 153.47L163.944 161.374V102.626L166.632 58.2162C166.632 58.0642 166.68 57.8869 166.752 57.7602L180.192 30.4509C180.288 30.2229 180.456 30.0709 180.672 29.9442L191.856 24.0415C192.408 23.7629 193.056 23.9909 193.32 24.5482C193.584 25.1055 193.368 25.8149 192.84 26.0935L181.992 31.8188L168.816 58.5708L166.128 102.676V162.666C166.128 162.995 165.984 163.324 165.744 163.527C165.504 163.755 165.192 163.856 164.88 163.806L111.96 155.902V209.963C111.96 210.622 111.48 211.154 110.88 211.154Z" fill="white"/>
<path d="M167.736 59.4322C167.616 59.4322 167.496 59.4069 167.376 59.3562L108.576 37.5695L56.1358 34.9602L9.5758 32.9842C8.9758 32.9589 8.49581 32.4269 8.51981 31.7935C8.54381 31.1855 9.02381 30.6789 9.62381 30.6789C9.64781 30.6789 9.6478 30.6789 9.6718 30.6789L56.2318 32.6549L108.84 35.2895C108.936 35.2895 109.056 35.3149 109.152 35.3655L168.12 57.2029C168.696 57.4055 168.984 58.0642 168.792 58.6722C168.6 59.1282 168.192 59.4322 167.736 59.4322Z" fill="white"/>
<path d="M178.392 195.472C177.768 195.472 177.288 194.94 177.288 194.307L177.768 146.376L165.912 163.375C165.552 163.882 164.88 164.008 164.376 163.628C163.896 163.248 163.776 162.539 164.136 162.007L178.008 142.12C178.296 141.715 178.776 141.538 179.232 141.715C179.688 141.867 179.976 142.323 179.976 142.83L179.448 194.332C179.472 194.966 178.992 195.472 178.392 195.472Z" fill="white"/>
<path d="M110.88 155.192C110.592 155.192 110.328 154.939 110.328 154.635L108.24 36.4549C108.24 36.2015 108.384 35.9735 108.6 35.8975L144.144 23.1802L61.5358 21.1789C61.2238 21.1789 60.9838 20.9002 61.0078 20.5962C61.0078 20.2922 61.2478 20.0389 61.5598 20.0389L147.24 22.1162C147.504 22.1162 147.72 22.3189 147.768 22.5975C147.816 22.8762 147.648 23.1295 147.408 23.2309L109.32 36.8602L111.408 154.635C111.432 154.914 111.192 155.192 110.88 155.192Z" fill="white"/>
<path d="M61.5598 200.286C61.2718 200.286 61.0318 200.032 61.0078 199.728L59.6638 146.756L51.1438 102.144C51.1438 102.094 51.1198 102.043 51.1438 101.967L57.0958 33.7949C57.1198 33.5415 57.2878 33.3389 57.5038 33.2882L117.408 16.9735C117.696 16.8975 118.008 17.0749 118.08 17.3789C118.152 17.6829 117.984 18.0122 117.696 18.0882L58.1758 34.3015L52.2718 101.967L60.7678 146.604L62.1118 199.678C62.1118 200.007 61.8718 200.286 61.5598 200.286Z" fill="white"/>
<path d="M178.92 143.387C178.824 143.387 178.728 143.362 178.656 143.311C178.488 143.21 178.368 143.007 178.368 142.804L180.624 31.5149L38.8798 26.0682C38.5678 26.0682 38.3518 25.7895 38.3518 25.4602C38.3518 25.1562 38.6158 24.9029 38.9038 24.9029H38.9278L181.2 30.3749C181.512 30.3749 181.728 30.6535 181.728 30.9575L179.472 141.74L202.8 126.059L211.2 112.607C211.368 112.354 211.704 112.278 211.968 112.43C212.232 112.607 212.28 112.962 212.136 113.24L203.664 126.794C203.616 126.87 203.568 126.92 203.496 126.971L179.208 143.286C179.112 143.362 179.016 143.387 178.92 143.387Z" fill="white"/>
<path d="M129.912 186.226C129.888 186.226 129.864 186.226 129.84 186.226C129.696 186.2 129.552 186.099 129.456 185.972L110.544 155.167L15.1198 140.347C14.8318 140.296 14.6158 140.018 14.6638 139.688C14.7118 139.359 14.9758 139.156 15.2878 139.207L110.952 154.052C111.096 154.078 111.24 154.179 111.336 154.306L130.032 184.782L156.888 161.095C157.104 160.892 157.464 160.918 157.656 161.171C157.848 161.424 157.824 161.779 157.584 161.982L130.248 186.074C130.152 186.175 130.032 186.226 129.912 186.226Z" fill="white"/>
<path d="M189.6 174.116C189.552 174.116 189.504 174.116 189.432 174.091C189.144 173.99 188.976 173.686 189.072 173.382L202.608 126.515L192.024 77.3176L165.408 103.082C165.288 103.183 165.12 103.234 164.976 103.234L109.776 97.3309L51.7198 102.651L5.80779 97.3309C5.49579 97.3055 5.2798 97.0015 5.3278 96.6975C5.3518 96.3682 5.6398 96.1402 5.9278 96.1909L51.7438 101.511L109.776 96.1909L164.832 102.068L191.976 75.7975C192.12 75.6709 192.312 75.5949 192.504 75.6709C192.696 75.7215 192.84 75.8989 192.864 76.1015L203.688 126.414C203.712 126.515 203.712 126.616 203.688 126.718L190.104 173.736C190.056 173.939 189.84 174.116 189.6 174.116Z" fill="white"/>
<path d="M169.848 156.383C169.824 156.383 169.8 156.383 169.752 156.383C169.44 156.332 169.248 156.028 169.296 155.724L178.224 96.3175L164.784 143.007C164.688 143.311 164.4 143.463 164.112 143.387C163.824 143.286 163.656 142.982 163.752 142.678L179.496 87.9828C179.568 87.7042 179.856 87.5015 180.144 87.5775C180.432 87.6535 180.6 87.9322 180.552 88.2362L170.4 155.901C170.352 156.18 170.136 156.383 169.848 156.383Z" fill="white"/>
<path d="M165.048 118.104C164.952 118.104 164.88 118.079 164.784 118.028C164.52 117.876 164.424 117.522 164.568 117.243L179.544 87.8308C179.688 87.5522 180.024 87.4508 180.288 87.6028C180.552 87.7548 180.648 88.1095 180.504 88.3882L165.528 117.8C165.432 118.003 165.24 118.104 165.048 118.104Z" fill="white"/>
<path d="M129.912 186.226C129.864 186.226 129.792 186.226 129.744 186.2L110.712 179.639C110.424 179.538 110.28 179.208 110.352 178.904C110.448 178.6 110.76 178.448 111.048 178.524L127.848 184.3L110.496 166.516C110.28 166.288 110.28 165.934 110.496 165.706C110.712 165.478 111.048 165.478 111.264 165.706L130.296 185.212C130.488 185.39 130.512 185.694 130.392 185.922C130.272 186.124 130.104 186.226 129.912 186.226Z" fill="white"/>
<path d="M47.7358 145.388C47.7118 145.388 47.7118 145.388 47.6878 145.388C47.3758 145.363 47.1598 145.084 47.2078 144.755L50.8558 105.64L35.4478 143.058C35.3278 143.362 34.9918 143.488 34.7278 143.362C34.4398 143.235 34.3198 142.906 34.4398 142.602L51.2398 101.815C51.3598 101.562 51.6238 101.435 51.8878 101.486C52.1518 101.562 52.3198 101.815 52.2958 102.094L48.3118 144.856C48.2398 145.16 47.9998 145.388 47.7358 145.388Z" fill="white"/>
<path d="M22.0078 141.386C21.8878 141.386 21.7678 141.335 21.6718 141.259C21.4318 141.056 21.4078 140.702 21.5998 140.448L48.8638 104.855L13.5358 130.948C13.2958 131.126 12.9358 131.075 12.7678 130.796C12.5998 130.543 12.6478 130.163 12.9118 129.986L51.4078 101.562C51.6478 101.41 51.9358 101.435 52.1278 101.638C52.3198 101.84 52.3198 102.17 52.1518 102.398L22.4638 141.183C22.3198 141.31 22.1758 141.386 22.0078 141.386Z" fill="white"/>
<path d="M10.1518 116.99C9.91179 116.99 9.7198 116.838 9.6238 116.584C9.5278 116.28 9.6958 115.951 9.9598 115.85L47.4478 102.879L7.6558 105.488C7.3438 105.463 7.10379 105.26 7.07979 104.956C7.05579 104.627 7.29579 104.374 7.58379 104.348L51.6238 101.486C51.8398 101.486 52.1518 101.663 52.1998 101.942C52.2478 102.22 52.1038 102.499 51.8398 102.6L10.2958 116.964C10.2718 116.964 10.1998 116.99 10.1518 116.99Z" fill="white"/>
<path d="M110.88 196.41C110.688 196.41 110.496 196.283 110.4 196.08C110.256 195.802 110.376 195.447 110.64 195.295L129.672 185.111C129.936 184.959 130.272 185.086 130.416 185.364C130.56 185.643 130.44 185.998 130.176 186.15L111.144 196.334C111.048 196.384 110.952 196.41 110.88 196.41Z" fill="white"/>
</g>
</svg>
